<?xml version="1.0" standalone="no"?>
<!DOCTYPE svg PUBLIC "-//W3C//DTD SVG 1.1//EN" "http://www.w3.org/Graphics/SVG/1.1/DTD/svg11.dtd" >
<svg xmlns="http://www.w3.org/2000/svg" xmlns:xlink="http://www.w3.org/1999/xlink" version="1.1">
<metadata>
Created by FontForge 20170731 at Thu Mar 12 18:57:35 2020
 By Aleksey,,,
Copyright (c) 2020 by Tripadvisor LLC and Colophon Foundry. All rights reserved.
</metadata>
<defs>
<font id="TripSans-Regular" horiz-adv-x="600" >
  <font-face 
    font-family="Trip Sans"
    font-weight="400"
    font-stretch="normal"
    units-per-em="1000"
    panose-1="2 11 5 3 3 5 4 4 2 3"
    ascent="800"
    descent="-200"
    x-height="494"
    cap-height="700"
    bbox="-414 -256 1066 1006"
    underline-thickness="50"
    underline-position="-150"
    unicode-range="U+0020-1F989"
  />
<missing-glyph horiz-adv-x="786" 
d="M352 244q-36 -34 -88 -34q-34 0 -63.5 17t-47 46.5t-17.5 64.5q0 54 42 96l-42 45h93q73 50 164 50t164 -50h93l-42 -45q41 -43 41 -96t-37.5 -90.5t-90.5 -37.5q-51 0 -87 34l-41 -45zM420 417.5q27 34.5 69 50.5q-42 19 -96 19t-96 -19q42 -16 69 -50.5t27 -76.5
q0 42 27 76.5zM325.5 276.5q25.5 25.5 25.5 61.5t-25.5 61.5t-61.5 25.5q-35 0 -60.5 -25.5t-25.5 -61.5t25.5 -61.5t60.5 -25.5q36 0 61.5 25.5zM582.5 276.5q25.5 25.5 25.5 61.5t-25.5 61.5t-61.5 25.5q-35 0 -61 -25.5t-26 -61.5t26 -61.5t61 -25.5q36 0 61.5 25.5z
M232 306q-13 13 -13 32t13 32.5t32 13.5t32.5 -13.5t13.5 -32.5t-13.5 -32t-32.5 -13t-32 13zM489 306q-13 13 -13 32t13 32.5t32 13.5t32 -13.5t13 -32.5t-13 -32t-32 -13t-32 13z" />
    <glyph glyph-name="fi" unicode="fi" horiz-adv-x="556" 
d="M172 548v-54h117v-68h-117v-426h-82v426h-73v68h73v57q0 70 37 109.5t106 39.5h56v-75h-43q-74 0 -74 -77zM394 596q-18 18 -18 43q0 26 17.5 43.5t43.5 17.5t43.5 -17.5t17.5 -43.5t-17.5 -43.5t-43.5 -17.5q-25 0 -43 18zM396 494h82v-494h-82v494z" />
    <glyph glyph-name="fl" unicode="fl" horiz-adv-x="556" 
d="M172 548v-54h117v-68h-117v-426h-82v426h-73v68h73v57q0 70 37 109.5t106 39.5h56v-75h-43q-74 0 -74 -77zM396 700h82v-700h-82v700z" />
    <glyph glyph-name="f_f" unicode="ff" horiz-adv-x="641" 
d="M172 548v-54h117v-68h-117v-426h-82v426h-73v68h73v57q0 70 37 109.5t106 39.5h56v-75h-43q-74 0 -74 -77zM495 548v-54h117v-68h-117v-426h-82v426h-73v68h73v57q0 70 37 109.5t106 39.5h56v-75h-43q-74 0 -74 -77z" />
    <glyph glyph-name=".notdef" horiz-adv-x="786" 
d="M352 244q-36 -34 -88 -34q-34 0 -63.5 17t-47 46.5t-17.5 64.5q0 54 42 96l-42 45h93q73 50 164 50t164 -50h93l-42 -45q41 -43 41 -96t-37.5 -90.5t-90.5 -37.5q-51 0 -87 34l-41 -45zM420 417.5q27 34.5 69 50.5q-42 19 -96 19t-96 -19q42 -16 69 -50.5t27 -76.5
q0 42 27 76.5zM325.5 276.5q25.5 25.5 25.5 61.5t-25.5 61.5t-61.5 25.5q-35 0 -60.5 -25.5t-25.5 -61.5t25.5 -61.5t60.5 -25.5q36 0 61.5 25.5zM582.5 276.5q25.5 25.5 25.5 61.5t-25.5 61.5t-61.5 25.5q-35 0 -61 -25.5t-26 -61.5t26 -61.5t61 -25.5q36 0 61.5 25.5z
M232 306q-13 13 -13 32t13 32.5t32 13.5t32.5 -13.5t13.5 -32.5t-13.5 -32t-32.5 -13t-32 13zM489 306q-13 13 -13 32t13 32.5t32 13.5t32 -13.5t13 -32.5t-13 -32t-32 -13t-32 13z" />
    <glyph glyph-name=".null" horiz-adv-x="0" 
 />
    <glyph glyph-name="nonmarkingreturn" horiz-adv-x="333" 
 />
    <glyph glyph-name="space" unicode=" " horiz-adv-x="220" 
 />
    <glyph glyph-name="exclam" unicode="!" horiz-adv-x="246" 
d="M79 700h88l-14 -510h-60zM81.5 8q-16.5 17 -16.5 41q0 25 16.5 42t41.5 17t41.5 -17t16.5 -42q0 -24 -16.5 -41t-41.5 -17t-41.5 17z" />
    <glyph glyph-name="quotedbl" unicode="&#x22;" horiz-adv-x="390" 
d="M78 700h72v-198h-72v198zM240 700h72v-198h-72v198z" />
    <glyph glyph-name="numbersign" unicode="#" horiz-adv-x="626" 
d="M484 426l-18 -152h120v-76h-128l-23 -198h-82l23 198h-160l-23 -198h-82l23 198h-94v76h102l18 152h-120v76h128l23 198h82l-23 -198h160l23 198h82l-23 -198h94v-76h-102zM402 426h-160l-18 -152h160z" />
    <glyph glyph-name="dollar" unicode="$" horiz-adv-x="567" 
d="M469.5 57.5q-53.5 -58.5 -147.5 -69.5v-96h-74v96q-96 10 -152 70t-56 151h86q0 -57 33.5 -94.5t88.5 -47.5v269l-15 4q-82 24 -127.5 72.5t-45.5 122.5q0 70 53.5 119t134.5 58v94h74v-94q86 -11 135 -65.5t49 -132.5h-85q0 46 -26.5 77.5t-72.5 42.5v-237l33 -11
q78 -24 123 -71.5t45 -116.5q0 -82 -53.5 -140.5zM168 468.5q24 -27.5 80 -48.5v216q-49 -8 -76.5 -34t-27.5 -65q0 -41 24 -68.5zM407 107q30 32 30 86q0 44 -29 72t-86 48v-246q55 8 85 40z" />
    <glyph glyph-name="percent" unicode="%" horiz-adv-x="770" 
d="M119.5 393q-39.5 23 -61.5 62t-22 87q0 47 22 86.5t61.5 62.5t90.5 23t90.5 -23t61.5 -62.5t22 -86.5q0 -48 -22 -87t-61.5 -62t-90.5 -23t-90.5 23zM284.5 464.5q29.5 30.5 29.5 77.5t-29.5 77.5t-74.5 30.5t-74.5 -30.5t-29.5 -77.5t29.5 -77.5t74.5 -30.5t74.5 30.5z
M88 95l552 552l42 -42l-552 -552zM469.5 9q-39.5 23 -61.5 62t-22 87q0 47 22 86.5t61.5 62.5t90.5 23t90.5 -23t61.5 -62.5t22 -86.5q0 -48 -22 -87t-61.5 -62t-90.5 -23t-90.5 23zM634.5 80.5q29.5 30.5 29.5 77.5t-29.5 77.5t-74.5 30.5t-74.5 -30.5t-29.5 -77.5
t29.5 -77.5t74.5 -30.5t74.5 30.5z" />
    <glyph glyph-name="ampersand" unicode="&#x26;" horiz-adv-x="639" 
d="M506 0l-69 82q-52 -50 -97 -73t-110 -23q-55 0 -101 24t-72.5 69t-26.5 105q0 70 44 121.5t107 82.5q-30 38 -47 75t-17 80q0 48 23 87t63.5 61.5t89.5 22.5q50 0 88.5 -20t60 -55t21.5 -78q0 -125 -141 -189l-16 -7l141 -168l95 98l48 -54l-96 -100l118 -141h-106z
M228.5 612.5q-27.5 -25.5 -27.5 -67.5q0 -55 57 -122l19 8q59 27 83.5 54t24.5 68q0 38 -26 61.5t-64 23.5q-39 0 -66.5 -25.5zM391 137l-161 193q-58 -28 -86 -61.5t-28 -79.5q0 -57 35 -91t92 -34q73 0 148 73z" />
    <glyph glyph-name="quotesingle" unicode="'" horiz-adv-x="228" 
d="M78 700h72v-198h-72v198z" />
    <glyph glyph-name="parenleft" unicode="(" horiz-adv-x="258" 
d="M71.5 67.5q-35.5 119.5 -35.5 242.5t35.5 242.5t89.5 203.5h75q-55 -93 -87.5 -209.5t-32.5 -236.5t32.5 -236.5t87.5 -209.5h-75q-54 84 -89.5 203.5z" />
    <glyph glyph-name="parenright" unicode=")" horiz-adv-x="258" 
d="M109.5 73.5q32.5 116.5 32.5 236.5t-32.5 236.5t-87.5 209.5h75q54 -84 89.5 -203.5t35.5 -242.5t-35.5 -242.5t-89.5 -203.5h-75q55 93 87.5 209.5z" />
    <glyph glyph-name="asterisk" unicode="*" horiz-adv-x="358" 
d="M225 531l78 -86l-67 -48l-57 100l-57 -100l-67 48l78 86l-113 24l25 78l106 -48l-13 115h82l-13 -115l106 48l25 -78z" />
    <glyph glyph-name="plus" unicode="+" horiz-adv-x="482" 
d="M447 315h-171v-171h-70v171h-171v70h171v171h70v-171h171v-70z" />
    <glyph glyph-name="comma" unicode="," horiz-adv-x="256" 
d="M68 -69h8q29 0 45 15t19 49q-6 -4 -19 -4q-23 0 -39 16.5t-16 41.5t16.5 42t41.5 17q31 0 48.5 -24.5t17.5 -68.5q0 -65 -28.5 -98.5t-81.5 -33.5h-12v48z" />
    <glyph glyph-name="hyphen" unicode="-" horiz-adv-x="288" 
d="M15 370h258v-70h-258v70z" />
    <glyph glyph-name="period" unicode="." horiz-adv-x="248" 
d="M82.5 8q-16.5 17 -16.5 41q0 25 16.5 41.5t41.5 16.5t41.5 -16.5t16.5 -41.5q0 -24 -16.5 -41t-41.5 -17t-41.5 17z" />
    <glyph glyph-name="slash" unicode="/" horiz-adv-x="400" 
d="M300 760h80l-280 -820h-80z" />
    <glyph glyph-name="zero" unicode="0" horiz-adv-x="614" 
d="M178 26.5q-62 40.5 -100 122.5t-38 201t38 201t100 122.5t134 40.5q71 0 131 -40.5t95.5 -122.5t35.5 -201t-35.5 -201t-95.5 -122.5t-131 -40.5q-72 0 -134 40.5zM437 134q49 70 49 216t-49 216t-125 70q-49 0 -90.5 -29.5t-67.5 -93.5t-26 -163t26 -163t67.5 -93.5
t90.5 -29.5q76 0 125 70z" />
    <glyph glyph-name="one" unicode="1" horiz-adv-x="341" 
d="M167 619h-131v81h217v-700h-86v619z" />
    <glyph glyph-name="two" unicode="2" horiz-adv-x="527" 
d="M51 69l243 257q47 49 68 91.5t21 88.5q0 57 -34 93.5t-87 36.5q-57 0 -90.5 -34.5t-38.5 -90.5h-83q5 89 61.5 146t152.5 57q62 0 108 -26.5t71 -72t25 -103.5q0 -63 -27.5 -117.5t-83.5 -115.5l-184 -198h303v-81h-425v69z" />
    <glyph glyph-name="three" unicode="3" horiz-adv-x="525" 
d="M130 17q-51 31 -77 81t-26 106h83q4 -60 41.5 -100t102.5 -40t104.5 36.5t39.5 102.5q0 56 -38.5 90.5t-101.5 34.5h-40v73h40q56 0 90.5 32t34.5 85t-35.5 86t-96.5 33q-56 0 -93.5 -34t-42.5 -87h-79q1 55 29 100t76 71.5t110 26.5q63 0 112 -24.5t76 -67.5t27 -96
q0 -52 -29.5 -95t-67.5 -63q51 -19 83.5 -62.5t32.5 -103.5t-29 -109.5t-81.5 -78t-121.5 -28.5q-72 0 -123 31z" />
    <glyph glyph-name="four" unicode="4" horiz-adv-x="531" 
d="M352 183h-320v48l313 469h93v-445h71v-72h-71v-183h-86v183zM352 255v259q0 25 4 67l-216 -326h212z" />
    <glyph glyph-name="five" unicode="5" horiz-adv-x="557" 
d="M413.5 431.5q49.5 -30.5 76 -84t26.5 -122.5t-31 -123.5t-85.5 -85t-123.5 -30.5t-121.5 30t-80.5 79t-28 106h84q2 -60 43.5 -99.5t104.5 -39.5q71 0 111.5 46t40.5 117t-40 117t-112 46q-45 0 -84.5 -26t-60.5 -68h-81l38 406h399v-76h-327l-26 -231q25 31 67.5 50
t92.5 19q68 0 117.5 -30.5z" />
    <glyph glyph-name="six" unicode="6" 
d="M431.5 426.5q49.5 -29.5 78.5 -82.5t29 -119q0 -68 -32.5 -122.5t-88 -85.5t-121.5 -31q-72 0 -127.5 32t-86 86.5t-30.5 120.5q0 69 25 123t78 129l157 223h96l-192 -270q47 26 106 26t108.5 -29.5zM375.5 81.5q35.5 19.5 56.5 56t21 83.5t-21 83.5t-56.5 56t-78.5 19.5
t-79 -20t-57.5 -56t-21.5 -83t21.5 -83t57.5 -56t79 -20t78.5 19.5z" />
    <glyph glyph-name="seven" unicode="7" horiz-adv-x="516" 
d="M397 624h-359v76h448v-68l-255 -632h-88z" />
    <glyph glyph-name="eight" unicode="8" horiz-adv-x="532" 
d="M145 14q-51 28 -77.5 75.5t-26.5 103.5q0 61 31 109.5t81 69.5q-41 23 -66.5 62.5t-25.5 96.5q0 52 27.5 94t74.5 65.5t103 23.5q57 0 104 -23.5t74 -65.5t27 -94q0 -57 -25.5 -96.5t-66.5 -62.5q51 -21 81.5 -69t30.5 -110q0 -56 -26.5 -103.5t-77.5 -75.5t-121 -28
t-121 28zM355.5 439.5q34.5 32.5 34.5 83.5t-34.5 83.5t-89.5 32.5q-54 0 -88.5 -32.5t-34.5 -83.5t34 -83.5t89 -32.5t89.5 32.5zM366.5 102q38.5 38 38.5 96q0 59 -38 97.5t-101 38.5q-62 0 -100 -38.5t-38 -97.5q0 -58 38 -96t100 -38t100.5 38z" />
    <glyph glyph-name="nine" unicode="9" 
d="M433.5 682.5q55.5 -31.5 84.5 -85.5t29 -122q0 -69 -25 -123t-78 -129l-157 -223h-96l190 267q-41 -23 -99 -23q-59 0 -110 30t-81 82.5t-30 118.5q0 68 32.5 122.5t88 85.5t121.5 31q75 0 130.5 -31.5zM382 340q36 20 57.5 56t21.5 83t-21.5 83t-57.5 56t-79 20
t-78.5 -19.5t-56.5 -56t-21 -83.5t21 -83.5t56.5 -56t78.5 -19.5t79 20z" />
    <glyph glyph-name="colon" unicode=":" horiz-adv-x="248" 
d="M82.5 8q-16.5 17 -16.5 41q0 25 16.5 41.5t41.5 16.5t41.5 -16.5t16.5 -41.5q0 -24 -16.5 -41t-41.5 -17t-41.5 17zM82.5 389q-16.5 17 -16.5 41q0 25 16.5 41.5t41.5 16.5t41.5 -16.5t16.5 -41.5q0 -24 -16.5 -41t-41.5 -17t-41.5 17z" />
    <glyph glyph-name="semicolon" unicode=";" horiz-adv-x="256" 
d="M68 -69h8q29 0 45 15t19 49q-6 -4 -19 -4q-23 0 -39 16.5t-16 41.5t16.5 42t41.5 17q31 0 48.5 -24.5t17.5 -68.5q0 -65 -28.5 -98.5t-81.5 -33.5h-12v48zM82.5 389q-16.5 17 -16.5 41q0 25 16.5 41.5t41.5 16.5t41.5 -16.5t16.5 -41.5q0 -24 -16.5 -41t-41.5 -17
t-41.5 17z" />
    <glyph glyph-name="less" unicode="&#x3c;" horiz-adv-x="482" 
d="M35 311v78l412 194v-76l-341 -157l341 -157v-76z" />
    <glyph glyph-name="equal" unicode="=" horiz-adv-x="482" 
d="M35 499h412v-70h-412v70zM35 271h412v-70h-412v70z" />
    <glyph glyph-name="greater" unicode="&#x3e;" horiz-adv-x="482" 
d="M35 193l341 157l-341 157v76l412 -194v-78l-412 -194v76z" />
    <glyph glyph-name="question" unicode="?" horiz-adv-x="490" 
d="M205 220q0 47 9.5 76.5t29 52t58.5 53.5q37 29 53.5 58t16.5 63q0 51 -35 83t-92 32t-95.5 -35t-39.5 -92h-78q0 53 26.5 99.5t75 75t111.5 28.5q60 0 106 -23.5t71.5 -65.5t25.5 -94q0 -54 -22.5 -95t-71.5 -80q-43 -35 -60 -61.5t-17 -73.5v-31h-72v30zM203.5 8
q-16.5 17 -16.5 41q0 25 16.5 42t41.5 17t41.5 -17t16.5 -42q0 -24 -16.5 -41t-41.5 -17t-41.5 17z" />
    <glyph glyph-name="at" unicode="@" horiz-adv-x="942" 
d="M269.5 -123q-97.5 51 -156.5 151.5t-59 241.5q0 129 59 230.5t157 157.5t210 56q125 0 219 -50.5t144.5 -139.5t50.5 -201q0 -123 -45.5 -190.5t-125.5 -67.5q-48 0 -79 27t-42 68q-21 -41 -62 -68t-92 -27q-58 0 -101.5 27t-67 74t-23.5 104q0 56 25.5 103t69.5 74.5
t97 27.5q87 0 132 -62v50h78v-224q0 -48 19 -74t50 -26q89 0 89 174q0 104 -44 177.5t-120.5 111.5t-171.5 38q-86 0 -165 -42.5t-129 -126.5t-50 -201t49.5 -201t129 -126.5t167.5 -42.5q74 0 135.5 17t126.5 55v-82q-61 -32 -123.5 -48t-138.5 -16q-115 0 -212.5 51z
M545 175.5q35 36.5 35 94.5t-35 94.5t-87 36.5t-87 -36.5t-35 -94.5t35 -94.5t87 -36.5t87 36.5z" />
    <glyph glyph-name="A" unicode="A" horiz-adv-x="654" 
d="M487 182h-320l-69 -182h-89l269 700h98l269 -700h-89zM458 260l-113 297q-14 36 -18 48q-4 -12 -18 -48l-113 -297h262z" />
    <glyph glyph-name="B" unicode="B" horiz-adv-x="602" 
d="M88 700h237q56 0 98 -22t64.5 -60t22.5 -85q0 -53 -27.5 -90.5t-68.5 -54.5q59 -23 92.5 -69t33.5 -115q0 -58 -29 -105t-79.5 -73t-111.5 -26h-232v700zM316 417q48 0 79 27.5t31 76.5t-31 76t-79 27h-142v-207h142zM318 78q61 0 98.5 36t37.5 96q0 61 -37.5 97
t-98.5 36h-144v-265h144z" />
    <glyph glyph-name="C" unicode="C" horiz-adv-x="744" 
d="M216.5 29.5q-78.5 43.5 -126.5 126t-48 194.5q0 111 48 194t126.5 126.5t167.5 43.5q81 0 149.5 -31.5t113 -90t57.5 -136.5h-86q-19 84 -84 132t-150 48q-67 0 -125.5 -33.5t-94.5 -98t-36 -154.5t36 -154.5t94.5 -98t125.5 -33.5q87 0 151 48t83 133h86
q-13 -78 -58.5 -137t-113.5 -90.5t-148 -31.5q-89 0 -167.5 43.5z" />
    <glyph glyph-name="D" unicode="D" horiz-adv-x="664" 
d="M88 700h190q99 0 177 -41.5t122.5 -121t44.5 -187.5t-44.5 -187.5t-122.5 -121t-177 -41.5h-190v700zM272 78q77 0 136.5 31.5t93.5 92.5t34 148t-34 148t-93.5 92.5t-136.5 31.5h-98v-544h98z" />
    <glyph glyph-name="E" unicode="E" horiz-adv-x="554" 
d="M88 700h411v-78h-325v-211h274v-78h-274v-255h328v-78h-414v700z" />
    <glyph glyph-name="F" unicode="F" horiz-adv-x="557" 
d="M88 700h411v-78h-325v-247h262v-78h-262v-297h-86v700z" />
    <glyph glyph-name="G" unicode="G" horiz-adv-x="749" 
d="M707 352v-27q0 -108 -41.5 -184.5t-115 -115.5t-166.5 -39q-89 0 -167.5 43.5t-126.5 126t-48 194.5q0 111 48 194t126.5 126.5t167.5 43.5q79 0 145.5 -28t110 -79.5t55.5 -121.5h-86q-18 70 -81 110.5t-144 40.5q-67 0 -125.5 -33.5t-94.5 -98t-36 -154.5t36 -154.5
t94.5 -98t125.5 -33.5q106 0 167 54t74 160h-218v74h300z" />
    <glyph glyph-name="H" unicode="H" horiz-adv-x="756" 
d="M88 700h86v-288h408v288h86v-700h-86v334h-408v-334h-86v700z" />
    <glyph glyph-name="I" unicode="I" horiz-adv-x="262" 
d="M88 700h86v-700h-86v700z" />
    <glyph glyph-name="J" unicode="J" horiz-adv-x="559" 
d="M154 12q-49 26 -77.5 77.5t-28.5 125.5v40h86v-45q0 -67 36 -106.5t94 -39.5t93.5 39.5t35.5 106.5v490h86v-478q0 -76 -28.5 -129t-77 -80t-109.5 -27t-110 26z" />
    <glyph glyph-name="K" unicode="K" horiz-adv-x="572" 
d="M446 0l-272 333v-333h-86v700h86v-329l266 329h107l-282 -346l287 -354h-106z" />
    <glyph glyph-name="L" unicode="L" horiz-adv-x="554" 
d="M88 700h86v-622h328v-78h-414v700z" />
    <glyph glyph-name="M" unicode="M" horiz-adv-x="836" 
d="M748 700v-700h-82v438q0 29 6 103l-222 -541h-64l-222 541q6 -74 6 -103v-438h-82v700h96l211 -512q18 -45 23 -73q7 33 23 73l211 512h96z" />
    <glyph glyph-name="N" unicode="N" horiz-adv-x="730" 
d="M88 700h84l389 -569q-1 35 -1 94v475h82v-700h-83l-391 569q2 -35 2 -94v-475h-82v700z" />
    <glyph glyph-name="O" unicode="O" horiz-adv-x="784" 
d="M219 29.5q-80 43.5 -128.5 126t-48.5 194.5t48.5 194.5t128.5 126t173 43.5t173 -43.5t128.5 -126t48.5 -194.5t-48.5 -194.5t-128.5 -126t-173 -43.5t-173 43.5zM521.5 97.5q60.5 33.5 97.5 98t37 154.5t-37 154.5t-97.5 98t-129.5 33.5t-129.5 -33.5t-97.5 -98
t-37 -154.5t37 -154.5t97.5 -98t129.5 -33.5t129.5 33.5z" />
    <glyph glyph-name="P" unicode="P" horiz-adv-x="591" 
d="M88 700h236q62 0 112.5 -26.5t79.5 -74.5t29 -111q0 -64 -29 -112t-79 -74t-113 -26h-150v-276h-86v700zM319 352q62 0 101 36.5t39 99.5t-39 99.5t-101 36.5h-145v-272h145z" />
    <glyph glyph-name="Q" unicode="Q" horiz-adv-x="784" 
d="M219 43q-80 43 -128.5 124t-48.5 190t48.5 190t128.5 124t173 43q92 0 172.5 -42.5t129 -121.5t48.5 -182q0 -99 -41.5 -173t-111.5 -117h153v-78h-350q-93 0 -173 43zM521 110.5q61 32.5 98 96t37 150.5t-37 150.5t-98 96t-129 32.5q-69 0 -129.5 -32.5t-97.5 -96
t-37 -150.5t37 -150.5t97.5 -96t129.5 -32.5q68 0 129 32.5z" />
    <glyph glyph-name="R" unicode="R" horiz-adv-x="615" 
d="M486 0l-144 280h-168v-280h-86v700h239q67 0 119 -27t81 -74.5t29 -108.5q0 -67 -34.5 -117t-95.5 -74l153 -299h-93zM322 356q70 0 109 35.5t39 98.5t-39 98.5t-109 35.5h-148v-268h148z" />
    <glyph glyph-name="S" unicode="S" horiz-adv-x="567" 
d="M163.5 13.5q-52.5 27.5 -81 77.5t-28.5 114h86q0 -64 42.5 -102.5t106.5 -38.5q65 0 103 35t38 96q0 46 -34.5 74.5t-97.5 49.5l-69 23q-76 25 -118.5 71.5t-42.5 114.5q0 54 28 96.5t76.5 66t109.5 23.5q68 0 117 -24.5t74.5 -68.5t25.5 -100h-85q0 51 -37 84t-95 33
q-57 0 -92.5 -29.5t-35.5 -70.5q0 -82 114 -121l95 -33q153 -54 153 -183q0 -59 -27.5 -108t-79.5 -78t-124 -29q-69 0 -121.5 27.5z" />
    <glyph glyph-name="T" unicode="T" horiz-adv-x="590" 
d="M550 622h-212v-622h-86v622h-212v78h510v-78z" />
    <glyph glyph-name="U" unicode="U" horiz-adv-x="656" 
d="M202.5 15.5q-56.5 29.5 -89.5 88t-33 141.5v455h84v-466q0 -50 21.5 -88.5t59 -60t83.5 -21.5t83.5 21.5t59 60t21.5 88.5v466h84v-455q0 -83 -33 -141.5t-89.5 -88t-125.5 -29.5t-125.5 29.5z" />
    <glyph glyph-name="V" unicode="V" horiz-adv-x="642" 
d="M8 700h92l202 -556q14 -37 19 -54q5 17 19 54l201 556h93l-264 -700h-98z" />
    <glyph glyph-name="W" unicode="W" horiz-adv-x="876" 
d="M12 700h94l124 -530q9 -32 13 -61q4 29 13 61l133 530h98l133 -530q9 -32 13 -61q4 29 13 61l124 530h94l-178 -700h-104l-127 500q-14 58 -17 74q-3 -16 -17 -74l-127 -500h-104z" />
    <glyph glyph-name="X" unicode="X" horiz-adv-x="610" 
d="M594 0h-104l-168 266l-18 29q-6 -11 -18 -29l-166 -266h-104l235 374l-202 326h102l137 -226q15 -25 18 -31l18 31l139 226h101l-207 -329z" />
    <glyph glyph-name="Y" unicode="Y" horiz-adv-x="560" 
d="M237 291l-218 409h98l138 -269q15 -30 25 -59q10 29 25 59l138 269h98l-218 -409v-291h-86v291z" />
    <glyph glyph-name="Z" unicode="Z" horiz-adv-x="605" 
d="M49 78l389 544h-371v78h469v-78l-390 -544h408v-78h-505v78z" />
    <glyph glyph-name="bracketleft" unicode="[" horiz-adv-x="290" 
d="M40 756h206v-76h-122v-740h122v-76h-206v892z" />
    <glyph glyph-name="backslash" unicode="\" horiz-adv-x="400" 
d="M20 760h80l280 -820h-80z" />
    <glyph glyph-name="bracketright" unicode="]" horiz-adv-x="290" 
d="M44 -60h122v740h-122v76h206v-892h-206v76z" />
    <glyph glyph-name="asciicircum" unicode="^" horiz-adv-x="482" 
d="M202 700h78l166 -269h-79l-126 207l-126 -207h-79z" />
    <glyph glyph-name="underscore" unicode="_" horiz-adv-x="398" 
d="M15 -15h368v-70h-368v70z" />
    <glyph glyph-name="grave" unicode="`" 
d="M40 700h118l56 -133h-72z" />
    <glyph glyph-name="a" unicode="a" horiz-adv-x="632" 
d="M164 20.5q-57 34.5 -89.5 94t-32.5 132.5q0 72 34 132t91.5 94.5t124.5 34.5q62 0 109.5 -23.5t76.5 -62.5v72h76v-494h-76v85q-29 -45 -77 -72t-111 -27q-69 0 -126 34.5zM388.5 83.5q40.5 23.5 65 66t24.5 97.5t-24.5 97.5t-65 66t-87.5 23.5q-49 0 -89.5 -23t-64 -66
t-23.5 -98t23.5 -98t64 -66t89.5 -23q47 0 87.5 23.5z" />
    <glyph glyph-name="b" unicode="b" horiz-adv-x="632" 
d="M231 12.5q-51 26.5 -77 68.5v-81h-76v700h82v-281q25 37 76 63t111 26q67 0 122.5 -34.5t88 -94t32.5 -132.5t-33.5 -132.5t-90.5 -94t-124 -34.5q-60 0 -111 26.5zM420.5 83q40.5 23 64 66t23.5 98t-23.5 98t-64 66t-89.5 23q-47 0 -87.5 -23.5t-65 -66t-24.5 -97.5
t24.5 -97.5t65 -66t87.5 -23.5q49 0 89.5 23z" />
    <glyph glyph-name="c" unicode="c" horiz-adv-x="571" 
d="M164.5 20q-57.5 34 -90 93.5t-32.5 133.5t33 133.5t90.5 93.5t128.5 34q97 0 158.5 -47.5t75.5 -129.5h-82q-14 46 -54 74.5t-98 28.5q-47 0 -85.5 -23t-61.5 -65.5t-23 -98.5t23 -98.5t62 -65.5t85 -23q60 0 98 27t54 76h82q-18 -83 -79 -130t-155 -47q-72 0 -129.5 34z
" />
    <glyph glyph-name="d" unicode="d" horiz-adv-x="632" 
d="M164 20.5q-57 34.5 -89.5 94t-32.5 132.5q0 72 34 132t91.5 94.5t124.5 34.5q61 0 107.5 -23.5t72.5 -58.5v274h82v-700h-76v85q-29 -45 -77 -72t-111 -27q-69 0 -126 34.5zM388.5 83.5q40.5 23.5 65 66t24.5 97.5t-24.5 97.5t-65 66t-87.5 23.5q-49 0 -89.5 -23t-64 -66
t-23.5 -98t23.5 -98t64 -66t89.5 -23q47 0 87.5 23.5z" />
    <glyph glyph-name="e" unicode="e" horiz-adv-x="577" 
d="M533 234h-409q0 -54 22.5 -94t60.5 -61t84 -21q59 0 99 29t56 76h78q-22 -80 -83.5 -128.5t-149.5 -48.5q-72 0 -129 33.5t-88.5 93t-31.5 134.5t32.5 134.5t89.5 93t126 33.5q73 0 128 -30.5t85 -86.5t30 -131v-26zM185 401.5q-43 -36.5 -56 -101.5h324q-8 64 -52 101
t-112 37q-61 0 -104 -36.5z" />
    <glyph glyph-name="f" unicode="f" horiz-adv-x="318" 
d="M172 548v-54h117v-68h-117v-426h-82v426h-73v68h73v57q0 70 37 109.5t106 39.5h56v-75h-43q-74 0 -74 -77z" />
    <glyph glyph-name="g" unicode="g" horiz-adv-x="610" 
d="M175 -190q-52 24 -80.5 65t-31.5 91h82q5 -48 43.5 -77t104.5 -29q73 0 115 38t42 110v91q-60 -87 -175 -87q-64 0 -117 32t-84.5 88.5t-31.5 127.5t32.5 127.5t87 88.5t118.5 32q59 0 106.5 -24t69.5 -64v74h76v-484q0 -65 -31 -116t-85 -79.5t-121 -28.5q-68 0 -120 24
zM373 108q38 22 60.5 62t22.5 90q0 51 -22.5 90.5t-60.5 61.5t-83 22t-83 -22t-60.5 -61.5t-22.5 -90.5q0 -50 22.5 -90t60.5 -62t83 -22t83 22z" />
    <glyph glyph-name="h" unicode="h" horiz-adv-x="569" 
d="M78 700h82v-272q19 33 61 56.5t97 23.5q79 0 126.5 -53t47.5 -139v-316h-82v306q0 60 -35 95t-89 35t-90 -35t-36 -95v-306h-82v700z" />
    <glyph glyph-name="i" unicode="i" horiz-adv-x="238" 
d="M76 596q-18 18 -18 43q0 26 17.5 43.5t43.5 17.5t43.5 -17.5t17.5 -43.5t-17.5 -43.5t-43.5 -17.5q-25 0 -43 18zM78 494h82v-494h-82v494z" />
    <glyph glyph-name="j" unicode="j" horiz-adv-x="238" 
d="M76 596q-18 18 -18 43q0 26 17.5 43.5t43.5 17.5t43.5 -17.5t17.5 -43.5t-17.5 -43.5t-43.5 -17.5q-25 0 -43 18zM-16 -126h36q30 0 44 15.5t14 46.5v558h82v-564q0 -61 -32 -95.5t-92 -34.5h-52v74z" />
    <glyph glyph-name="k" unicode="k" horiz-adv-x="482" 
d="M353 0l-193 242v-242h-82v700h82v-428l183 222h99l-196 -237l205 -257h-98z" />
    <glyph glyph-name="l" unicode="l" horiz-adv-x="238" 
d="M78 700h82v-700h-82v700z" />
    <glyph glyph-name="m" unicode="m" horiz-adv-x="789" 
d="M78 494h77v-60q16 33 50 53.5t81 20.5q48 0 81.5 -19.5t49.5 -53.5q50 73 148 73q69 0 108 -47t39 -122v-339h-82v335q0 44 -26 72.5t-71 28.5t-71 -28.5t-26 -72.5v-335h-82v335q0 44 -25.5 72.5t-70.5 28.5t-71.5 -28.5t-26.5 -72.5v-335h-82v494z" />
    <glyph glyph-name="n" unicode="n" horiz-adv-x="557" 
d="M78 494h77v-69q19 35 59.5 59t96.5 24q79 0 124 -50t45 -131v-327h-82v308q0 59 -34.5 93.5t-84.5 34.5q-49 0 -84 -35t-35 -93v-308h-82v494z" />
    <glyph glyph-name="o" unicode="o" horiz-adv-x="606" 
d="M169.5 20.5q-59.5 34.5 -93.5 94t-34 132.5t34 132.5t93.5 94t133.5 34.5t133.5 -34.5t93.5 -94t34 -132.5t-34 -132.5t-93.5 -94t-133.5 -34.5t-133.5 34.5zM393 83q41 23 65 65.5t24 98.5t-24 98.5t-65 65.5t-90 23t-90 -23t-65 -65.5t-24 -98.5t24 -98.5t65 -65.5
t90 -23t90 23z" />
    <glyph glyph-name="p" unicode="p" horiz-adv-x="632" 
d="M78 494h76v-84q27 43 77 70.5t111 27.5q69 0 126 -34.5t89.5 -94t32.5 -132.5q0 -72 -34 -132t-91.5 -94.5t-124.5 -34.5q-62 0 -107.5 24.5t-72.5 61.5v-272h-82v694zM420.5 83q40.5 23 64 66t23.5 98t-23.5 98t-64 66t-89.5 23q-47 0 -87.5 -23.5t-65 -66t-24.5 -97.5
t24.5 -97.5t65 -66t87.5 -23.5q49 0 89.5 23z" />
    <glyph glyph-name="q" unicode="q" horiz-adv-x="632" 
d="M472 74q-27 -39 -73 -63.5t-109 -24.5q-67 0 -124 34.5t-90.5 94.5t-33.5 132q0 73 33 132.5t90.5 94t127.5 34.5q61 0 109.5 -26.5t75.5 -68.5v81h76v-694h-82v274zM388.5 83.5q40.5 23.5 65 66t24.5 97.5t-24.5 97.5t-65 66t-87.5 23.5q-49 0 -89.5 -23t-64 -66
t-23.5 -98t23.5 -98t64 -66t89.5 -23q47 0 87.5 23.5z" />
    <glyph glyph-name="r" unicode="r" horiz-adv-x="375" 
d="M336 494v-76h-99q-77 0 -77 -78v-340h-82v494h76v-70q8 35 32 52.5t59 17.5h91z" />
    <glyph glyph-name="s" unicode="s" horiz-adv-x="455" 
d="M95.5 34.5q-49.5 48.5 -49.5 125.5h82q0 -44 27.5 -73t74.5 -29q43 0 71 22t28 57q0 31 -19 49t-65 31l-73 21q-53 16 -83.5 50t-30.5 83q0 62 49 99.5t121 37.5q49 0 86.5 -19t58.5 -52t21 -74h-78q0 32 -25.5 53.5t-62.5 21.5q-39 0 -64.5 -17t-25.5 -46
q0 -27 19.5 -44.5t62.5 -30.5l73 -22q118 -35 118 -134q0 -45 -23.5 -81t-65 -56.5t-92.5 -20.5q-85 0 -134.5 48.5z" />
    <glyph glyph-name="t" unicode="t" horiz-adv-x="342" 
d="M180 426v-289q0 -31 14.5 -46t44.5 -15h58v-76h-76q-59 0 -91 34.5t-32 95.5v296h-73v68h73v126h82v-126h117v-68h-117z" />
    <glyph glyph-name="u" unicode="u" horiz-adv-x="557" 
d="M123.5 38q-46.5 52 -46.5 135v321h82v-308q0 -59 33.5 -93.5t85.5 -34.5q51 0 85 34.5t34 93.5v308h82v-494h-77v69q-19 -36 -58.5 -59.5t-97.5 -23.5q-76 0 -122.5 52z" />
    <glyph glyph-name="v" unicode="v" horiz-adv-x="482" 
d="M20 494h87l116 -349q13 -42 18 -61q5 19 18 61l116 349h87l-174 -494h-94z" />
    <glyph glyph-name="w" unicode="w" horiz-adv-x="692" 
d="M22 494h87l76 -341l6 -27q6 -20 9 -40q6 33 14 67l90 341h84l90 -341q9 -34 14 -67q3 20 9 40l6 27l76 341h87l-130 -494h-94l-88 331q-8 32 -12 58q-4 -26 -12 -58l-88 -331h-94z" />
    <glyph glyph-name="x" unicode="x" horiz-adv-x="472" 
d="M367 0l-133 189l-126 -189h-95l175 256l-168 238h96l123 -179l122 179h92l-170 -244l176 -250h-92z" />
    <glyph glyph-name="y" unicode="y" horiz-adv-x="501" 
d="M48 -124h58q24 0 36.5 8.5t21.5 30.5l34 85l-186 494h91l122 -328q10 -29 17 -67l152 395h90l-241 -605q-18 -44 -48 -66.5t-78 -22.5h-69v76z" />
    <glyph glyph-name="z" unicode="z" horiz-adv-x="480" 
d="M44 68l287 358h-279v68h371v-68l-286 -358h299v-68h-392v68z" />
    <glyph glyph-name="braceleft" unicode="{" horiz-adv-x="370" 
d="M155 -101q-35 35 -35 102v206q0 65 -65 65h-21v76h21q65 0 65 65v206q0 67 35 102t102 35h69v-76h-68q-26 0 -40 -14t-14 -40v-226q0 -42 -13.5 -61t-42.5 -29q29 -10 42.5 -29t13.5 -61v-226q0 -26 14 -40t40 -14h68v-76h-69q-67 0 -102 35z" />
    <glyph glyph-name="bar" unicode="|" horiz-adv-x="240" 
d="M78 756h84v-892h-84v892z" />
    <glyph glyph-name="braceright" unicode="}" horiz-adv-x="370" 
d="M44 -60h68q26 0 40 14t14 40v226q0 42 13.5 61t42.5 29q-29 10 -42.5 29t-13.5 61v226q0 26 -14 40t-40 14h-68v76h69q67 0 102 -35t35 -102v-206q0 -65 65 -65h21v-76h-21q-65 0 -65 -65v-206q0 -67 -35 -102t-102 -35h-69v76z" />
    <glyph glyph-name="asciitilde" unicode="~" horiz-adv-x="482" 
d="M282 295.5q-22 7.5 -55 23.5q-25 12 -39.5 17.5t-27.5 5.5q-22 0 -34 -14t-12 -36h-72q0 59 31 89.5t80 30.5q25 0 47 -7.5t55 -23.5q25 -12 39.5 -17.5t27.5 -5.5q22 0 34 14t12 36h72q0 -59 -31 -89.5t-80 -30.5q-25 0 -47 7.5z" />
    <glyph glyph-name="uni00A0" unicode="&#xa0;" horiz-adv-x="220" 
 />
    <glyph glyph-name="exclamdown" unicode="&#xa1;" horiz-adv-x="246" 
d="M81.5 408q-16.5 17 -16.5 42q0 24 16.5 41t41.5 17t41.5 -17t16.5 -41q0 -25 -16.5 -42t-41.5 -17t-41.5 17zM93 309h60l14 -509h-88z" />
    <glyph glyph-name="cent" unicode="&#xa2;" horiz-adv-x="571" 
d="M404.5 200q28.5 26 41.5 66h82q-16 -74 -66 -119.5t-129 -55.5v-91h-74v91q-63 8 -112.5 43.5t-77 91.5t-27.5 124q0 67 28 123t77.5 92t111.5 44v91h74v-91q81 -10 132 -56t63 -119h-82q-12 37 -41 63.5t-72 35.5v-367q43 8 71.5 34zM162 228q38 -49 97 -61v367
q-60 -12 -97.5 -61t-37.5 -123q0 -73 38 -122z" />
    <glyph glyph-name="sterling" unicode="&#xa3;" horiz-adv-x="571" 
d="M531 78v-78h-501v78h15q74 0 74 83v140h-87v72h87v127q0 63 27 112t74 75.5t106 26.5q58 0 103.5 -24.5t71 -68t26.5 -96.5h-78q-4 49 -37 80t-86 31q-55 0 -88 -33t-33 -97v-133h191v-72h-191v-130q0 -34 -10 -55t-33 -38h369z" />
    <glyph glyph-name="currency" unicode="&#xa4;" horiz-adv-x="658" 
d="M524 210l98 -98l-55 -55l-97 97q-61 -47 -141 -47t-141 47l-97 -97l-55 55l98 98q-42 62 -42 140t42 140l-98 98l55 55l97 -97q61 47 141 47t141 -47l97 97l55 -55l-98 -98q42 -62 42 -140t-42 -140zM217.5 231q43.5 -46 111.5 -46t111.5 46t43.5 119t-43.5 119
t-111.5 46t-111.5 -46t-43.5 -119t43.5 -119z" />
    <glyph glyph-name="yen" unicode="&#xa5;" horiz-adv-x="560" 
d="M362 358h140v-72h-179v-68h179v-72h-179v-146h-86v146h-179v72h179v68h-179v72h140l-183 342h98l142 -278q15 -30 25 -59q10 29 25 59l142 278h98z" />
    <glyph glyph-name="brokenbar" unicode="&#xa6;" horiz-adv-x="240" 
d="M78 756h84v-390h-84v390zM78 254h84v-390h-84v390z" />
    <glyph glyph-name="section" unicode="&#xa7;" horiz-adv-x="537" 
d="M454 105q19 -32 19 -72q0 -49 -27.5 -87t-75 -59t-104.5 -21q-95 0 -151 48t-56 125h85q0 -43 35 -70t87 -27q55 0 88 23.5t33 61.5t-25.5 59t-86.5 35l-81 18q-63 14 -101.5 53t-38.5 99q0 86 84 129q-33 23 -52 55t-19 72q0 49 27.5 87t75 59t104.5 21q95 0 151 -48
t56 -125h-85q0 43 -35 70t-87 27q-55 0 -88 -23.5t-33 -61.5t25.5 -59t86.5 -35l81 -18q63 -14 101.5 -53t38.5 -99q0 -86 -84 -129q33 -23 52 -55zM314 196q5 -1 20 -5q34 12 54.5 35.5t20.5 51.5q0 67 -104 89l-79 17q-5 1 -20 5q-34 -12 -54.5 -35.5t-20.5 -51.5
q0 -67 104 -89z" />
    <glyph glyph-name="dieresis" unicode="&#xa8;" 
d="M42 600q-16 16 -16 39q0 24 16 39.5t39 15.5q24 0 39.5 -15.5t15.5 -39.5q0 -23 -15.5 -39t-39.5 -16q-23 0 -39 16zM202 600q-16 16 -16 39q0 24 16 39.5t39 15.5t39 -15.5t16 -39.5q0 -23 -16 -39t-39 -16t-39 16z" />
    <glyph glyph-name="copyright" unicode="&#xa9;" horiz-adv-x="798" 
d="M218 33q-82 47 -130 130t-48 187t48 187t130 130t181 47t181 -47t130 -130t48 -187t-48 -187t-130 -130t-181 -47t-181 47zM543 95.5q65 37.5 103 104t38 150.5t-38 150.5t-103 104t-144 37.5t-144 -37.5t-103 -104t-38 -150.5t38 -150.5t103 -104t144 -37.5t144 37.5z
M300 175q-44 26 -69 72t-25 103t25.5 103t69.5 72t99 26q75 0 122.5 -38t57.5 -102h-70q-11 35 -39 54.5t-71 19.5q-51 0 -86.5 -35.5t-35.5 -99.5t35.5 -99.5t86.5 -35.5q45 0 71 18.5t39 55.5h70q-14 -65 -60.5 -102.5t-119.5 -37.5q-56 0 -100 26z" />
    <glyph glyph-name="ordfeminine" unicode="&#xaa;" horiz-adv-x="436" 
d="M109 368q-39 25 -61 66.5t-22 90.5t23 91t62.5 66.5t87.5 24.5q79 0 124 -52v45h60v-350h-60v58q-46 -65 -126 -65q-49 0 -88 25zM288.5 437.5q34.5 34.5 34.5 87.5q0 54 -34.5 88t-81.5 34q-48 0 -81.5 -34t-33.5 -88t33.5 -88t81.5 -34q47 0 81.5 34.5z" />
    <glyph glyph-name="guillemotleft" unicode="&#xab;" horiz-adv-x="490" 
d="M223 286v8l142 203h91l-141 -207l141 -207h-91zM39 286v8l142 203h91l-141 -207l141 -207h-91z" />
    <glyph glyph-name="logicalnot" unicode="&#xac;" horiz-adv-x="482" 
d="M377 315h-342v70h412v-241h-70v171z" />
    <glyph glyph-name="uni00AD" unicode="&#xad;" horiz-adv-x="288" 
d="M15 370h258v-70h-258v70z" />
    <glyph glyph-name="registered" unicode="&#xae;" horiz-adv-x="362" 
d="M253.5 685.5q33.5 -19.5 53 -53t19.5 -72.5t-19.5 -72.5t-53 -53t-72.5 -19.5t-72.5 19.5t-53 53t-19.5 72.5t19.5 72.5t53 53t72.5 19.5t72.5 -19.5zM264 477q34 34 34 83t-34 83t-83 34t-83 -34t-34 -83t34 -83t83 -34t83 34zM210 549l33 -64h-28l-32 60h-24v-60h-26
v150h55q23 0 36 -12t13 -33q0 -30 -27 -41zM159 568h28q11 0 17.5 6t6.5 16t-6.5 16t-17.5 6h-28v-44z" />
    <glyph glyph-name="macron" unicode="&#xaf;" 
d="M50 670h242v-66h-242v66z" />
    <glyph glyph-name="degree" unicode="&#xb0;" horiz-adv-x="352" 
d="M74.5 474q-40.5 40 -40.5 100t40.5 100t101.5 40t101.5 -40t40.5 -100t-40.5 -100t-101.5 -40t-101.5 40zM235 513.5q23 23.5 23 60.5t-23 60.5t-59 23.5t-59 -23.5t-23 -60.5t23 -60.5t59 -23.5t59 23.5z" />
    <glyph glyph-name="plusminus" unicode="&#xb1;" horiz-adv-x="482" 
d="M447 355h-171v-171h-70v171h-171v70h171v171h70v-171h171v-70zM35 70h412v-70h-412v70z" />
    <glyph glyph-name="uni00B2" unicode="&#xb2;" horiz-adv-x="282" 
d="M23 397l122 125q20 21 29.5 38.5t9.5 37.5q0 22 -13.5 36t-34.5 14q-23 0 -36.5 -14t-15.5 -37h-61q2 49 32.5 79.5t81.5 30.5t81 -29.5t30 -76.5q0 -32 -13.5 -58.5t-44.5 -57.5l-74 -77h136v-58h-229v47z" />
    <glyph glyph-name="uni00B3" unicode="&#xb3;" horiz-adv-x="290" 
d="M52 376.5q-32 33.5 -32 81.5h63q2 -26 17 -41t41 -15q27 0 42.5 14t15.5 39q0 24 -16 37.5t-43 13.5h-19v51h19q23 0 37.5 12.5t14.5 33.5t-13.5 33.5t-38.5 12.5q-22 0 -37 -13t-17 -34h-61q2 44 33.5 74.5t81.5 30.5q53 0 83.5 -27t30.5 -70q0 -24 -13 -44.5t-32 -31.5
q24 -9 39.5 -30t15.5 -51q0 -48 -34.5 -79t-88.5 -31q-57 0 -89 33.5z" />
    <glyph glyph-name="acute" unicode="&#xb4;" 
d="M96 700h118l-102 -133h-72z" />
    <glyph glyph-name="uni00B5" unicode="&#xb5;" horiz-adv-x="608" 
d="M77 494h82v-308q0 -59 33.5 -93.5t85.5 -34.5q51 0 85 34.5t34 93.5v308h82v-357q0 -31 14.5 -46t44.5 -15h25v-76h-43q-42 0 -71 18.5t-42 53.5q-27 -41 -63.5 -63.5t-89.5 -22.5q-28 0 -53 8.5t-42 23.5v-218h-82v694z" />
    <glyph glyph-name="paragraph" unicode="&#xb6;" horiz-adv-x="629" 
d="M297 276h-30q-63 0 -113 26t-79 74t-29 112q0 63 29 111t79.5 74.5t112.5 26.5h116v-820h-86v396zM455 700h86v-820h-86v820z" />
    <glyph glyph-name="periodcentered" unicode="&#xb7;" horiz-adv-x="248" 
d="M82.5 309q-16.5 17 -16.5 41q0 25 16.5 41.5t41.5 16.5t41.5 -16.5t16.5 -41.5q0 -24 -16.5 -41t-41.5 -17t-41.5 17z" />
    <glyph glyph-name="cedilla" unicode="&#xb8;" 
d="M173 -76q23 -23 23 -61q0 -47 -30.5 -69t-76.5 -22q-42 0 -69 10v52q28 -10 57 -10q56 0 56 40q0 18 -13.5 28.5t-35.5 10.5h-64v20l35 102h57l-25 -80q18 2 28 2q35 0 58 -23z" />
    <glyph glyph-name="uni00B9" unicode="&#xb9;" horiz-adv-x="191" 
d="M89 640h-67v60h131v-350h-64v290z" />
    <glyph glyph-name="ordmasculine" unicode="&#xba;" horiz-adv-x="415" 
d="M113.5 367q-41.5 24 -64.5 66t-23 92t23 92t64.5 66t94.5 24q52 0 93.5 -24t64.5 -66t23 -92t-23 -92t-64.5 -66t-93.5 -24q-53 0 -94.5 24zM289.5 437q33.5 34 33.5 88t-33.5 88t-81.5 34q-49 0 -82.5 -34t-33.5 -88t33.5 -88t82.5 -34q48 0 81.5 34z" />
    <glyph glyph-name="guillemotright" unicode="&#xbb;" horiz-adv-x="490" 
d="M175 290l-141 207h91l142 -203v-8l-142 -203h-91zM359 290l-141 207h91l142 -203v-8l-142 -203h-91z" />
    <glyph glyph-name="onequarter" unicode="&#xbc;" horiz-adv-x="621" 
d="M89 640h-67v60h131v-350h-64v290zM14 95l552 552l42 -42l-552 -552zM502 86h-155v39l149 225h70v-215h39v-49h-39v-86h-64v86zM502 135v99q0 15 2 33l-86 -132h84z" />
    <glyph glyph-name="onehalf" unicode="&#xbd;" horiz-adv-x="673" 
d="M89 640h-67v60h131v-350h-64v290zM14 95l552 552l42 -42l-552 -552zM414 47l122 125q20 21 29.5 38.5t9.5 37.5q0 22 -13.5 36t-34.5 14q-23 0 -36.5 -14t-15.5 -37h-61q2 49 32.5 79.5t81.5 30.5t81 -29.5t30 -76.5q0 -32 -13.5 -58.5t-44.5 -57.5l-74 -77h136v-58h-229
v47z" />
    <glyph glyph-name="threequarters" unicode="&#xbe;" horiz-adv-x="690" 
d="M52 376.5q-32 33.5 -32 81.5h63q2 -26 17 -41t41 -15q27 0 42.5 14t15.5 39q0 24 -16 37.5t-43 13.5h-19v51h19q23 0 37.5 12.5t14.5 33.5t-13.5 33.5t-38.5 12.5q-22 0 -37 -13t-17 -34h-61q2 44 33.5 74.5t81.5 30.5q53 0 83.5 -27t30.5 -70q0 -24 -13 -44.5t-32 -31.5
q24 -9 39.5 -30t15.5 -51q0 -48 -34.5 -79t-88.5 -31q-57 0 -89 33.5zM83 95l552 552l42 -42l-552 -552zM571 86h-155v39l149 225h70v-215h39v-49h-39v-86h-64v86zM571 135v99q0 15 2 33l-86 -132h84z" />
    <glyph glyph-name="questiondown" unicode="&#xbf;" horiz-adv-x="490" 
d="M203.5 408q-16.5 17 -16.5 42q0 24 16.5 41t41.5 17t41.5 -17t16.5 -41q0 -25 -16.5 -42t-41.5 -17t-41.5 17zM139 -190.5q-46 23.5 -71.5 65.5t-25.5 94q0 54 22.5 95t71.5 80q43 35 60 61.5t17 73.5v30h72v-29q0 -47 -9.5 -76.5t-29 -52t-58.5 -53.5q-37 -29 -53.5 -58
t-16.5 -63q0 -51 35 -83t92 -32t95.5 35t39.5 92h78q0 -53 -26.5 -99.5t-75 -75t-111.5 -28.5q-60 0 -106 23.5z" />
    <glyph glyph-name="Agrave" unicode="&#xc0;" horiz-adv-x="654" 
d="M487 182h-320l-69 -182h-89l269 700h98l269 -700h-89zM458 260l-113 297q-14 36 -18 48q-4 -12 -18 -48l-113 -297h262zM190 906h118l56 -133h-72z" />
    <glyph glyph-name="Aacute" unicode="&#xc1;" horiz-adv-x="654" 
d="M487 182h-320l-69 -182h-89l269 700h98l269 -700h-89zM458 260l-113 297q-14 36 -18 48q-4 -12 -18 -48l-113 -297h262zM348 906h118l-102 -133h-72z" />
    <glyph glyph-name="Acircumflex" unicode="&#xc2;" horiz-adv-x="654" 
d="M487 182h-320l-69 -182h-89l269 700h98l269 -700h-89zM458 260l-113 297q-14 36 -18 48q-4 -12 -18 -48l-113 -297h262zM293 906h70l99 -133h-70l-64 69l-64 -69h-70z" />
    <glyph glyph-name="Atilde" unicode="&#xc3;" horiz-adv-x="654" 
d="M487 182h-320l-69 -182h-89l269 700h98l269 -700h-89zM458 260l-113 297q-14 36 -18 48q-4 -12 -18 -48l-113 -297h262zM358 786q-20 9 -42 25q-17 12 -28.5 18t-23.5 6q-21 0 -33.5 -14.5t-12.5 -35.5h-72q0 53 28 87t78 34q26 0 46 -9t42 -25q17 -12 28.5 -18t23.5 -6
q21 0 33.5 14.5t12.5 35.5h72q0 -53 -28 -87t-78 -34q-26 0 -46 9z" />
    <glyph glyph-name="Adieresis" unicode="&#xc4;" horiz-adv-x="654" 
d="M487 182h-320l-69 -182h-89l269 700h98l269 -700h-89zM458 260l-113 297q-14 36 -18 48q-4 -12 -18 -48l-113 -297h262zM209 806q-16 16 -16 39q0 24 16 39.5t39 15.5q24 0 39.5 -15.5t15.5 -39.5q0 -23 -15.5 -39t-39.5 -16q-23 0 -39 16zM369 806q-16 16 -16 39
q0 24 16 39.5t39 15.5t39 -15.5t16 -39.5q0 -23 -16 -39t-39 -16t-39 16z" />
    <glyph glyph-name="Aring" unicode="&#xc5;" horiz-adv-x="654" 
d="M487 182h-320l-69 -182h-89l269 700h98l269 -700h-89zM458 260l-113 297q-14 36 -18 48q-4 -12 -18 -48l-113 -297h262zM243 801.5q-35 35.5 -35 84.5q0 50 35 85t85 35q49 0 84.5 -35t35.5 -85q0 -49 -35.5 -84.5t-84.5 -35.5q-50 0 -85 35.5zM377.5 836.5
q20.5 20.5 20.5 49.5t-20.5 49.5t-49.5 20.5t-49.5 -20.5t-20.5 -49.5t20.5 -49.5t49.5 -20.5t49.5 20.5z" />
    <glyph glyph-name="AE" unicode="&#xc6;" horiz-adv-x="904" 
d="M852 78v-78h-414v175h-240l-94 -175h-95l378 700h462v-78h-325v-211h274v-78h-274v-255h328zM438 253v369l-198 -369h198z" />
    <glyph glyph-name="Ccedilla" unicode="&#xc7;" horiz-adv-x="744" 
d="M535 112q64 48 83 133h86q-13 -75 -55.5 -132.5t-106 -90t-139.5 -36.5l-13 -41q18 2 28 2q35 0 58 -23t23 -61q0 -47 -30.5 -69t-76.5 -22q-42 0 -69 10v52q28 -10 57 -10q56 0 56 40q0 18 -13.5 28.5t-35.5 10.5h-64v20l22 65q-82 9 -151 55t-110.5 124.5t-41.5 182.5
q0 111 48 194t126.5 126.5t167.5 43.5q81 0 149.5 -31.5t113 -90t57.5 -136.5h-86q-19 84 -84 132t-150 48q-67 0 -125.5 -33.5t-94.5 -98t-36 -154.5t36 -154.5t94.5 -98t125.5 -33.5q87 0 151 48z" />
    <glyph glyph-name="Egrave" unicode="&#xc8;" horiz-adv-x="554" 
d="M88 700h411v-78h-325v-211h274v-78h-274v-255h328v-78h-414v700zM157 906h118l56 -133h-72z" />
    <glyph glyph-name="Eacute" unicode="&#xc9;" horiz-adv-x="554" 
d="M88 700h411v-78h-325v-211h274v-78h-274v-255h328v-78h-414v700zM315 906h118l-102 -133h-72z" />
    <glyph glyph-name="Ecircumflex" unicode="&#xca;" horiz-adv-x="554" 
d="M88 700h411v-78h-325v-211h274v-78h-274v-255h328v-78h-414v700zM260 906h70l99 -133h-70l-64 69l-64 -69h-70z" />
    <glyph glyph-name="Edieresis" unicode="&#xcb;" horiz-adv-x="554" 
d="M88 700h411v-78h-325v-211h274v-78h-274v-255h328v-78h-414v700zM176 806q-16 16 -16 39q0 24 16 39.5t39 15.5q24 0 39.5 -15.5t15.5 -39.5q0 -23 -15.5 -39t-39.5 -16q-23 0 -39 16zM336 806q-16 16 -16 39q0 24 16 39.5t39 15.5t39 -15.5t16 -39.5q0 -23 -16 -39
t-39 -16t-39 16z" />
    <glyph glyph-name="Igrave" unicode="&#xcc;" horiz-adv-x="262" 
d="M88 700h86v-700h-86v700zM-7 906h118l56 -133h-72z" />
    <glyph glyph-name="Iacute" unicode="&#xcd;" horiz-adv-x="262" 
d="M88 700h86v-700h-86v700zM151 906h118l-102 -133h-72z" />
    <glyph glyph-name="Icircumflex" unicode="&#xce;" horiz-adv-x="262" 
d="M88 700h86v-700h-86v700zM96 906h70l99 -133h-70l-64 69l-64 -69h-70z" />
    <glyph glyph-name="Idieresis" unicode="&#xcf;" horiz-adv-x="262" 
d="M88 700h86v-700h-86v700zM12 806q-16 16 -16 39q0 24 16 39.5t39 15.5q24 0 39.5 -15.5t15.5 -39.5q0 -23 -15.5 -39t-39.5 -16q-23 0 -39 16zM172 806q-16 16 -16 39q0 24 16 39.5t39 15.5t39 -15.5t16 -39.5q0 -23 -16 -39t-39 -16t-39 16z" />
    <glyph glyph-name="Eth" unicode="&#xd0;" horiz-adv-x="664" 
d="M455 658.5q78 -41.5 122.5 -121t44.5 -187.5t-44.5 -187.5t-122.5 -121t-177 -41.5h-190v314h-84v72h84v314h190q99 0 177 -41.5zM408.5 109.5q59.5 31.5 93.5 92.5t34 148t-34 148t-93.5 92.5t-136.5 31.5h-98v-236h184v-72h-184v-236h98q77 0 136.5 31.5z" />
    <glyph glyph-name="Ntilde" unicode="&#xd1;" horiz-adv-x="730" 
d="M88 700h84l389 -569q-1 35 -1 94v475h82v-700h-83l-391 569q2 -35 2 -94v-475h-82v700zM395 786q-20 9 -42 25q-17 12 -28.5 18t-23.5 6q-21 0 -33.5 -14.5t-12.5 -35.5h-72q0 53 28 87t78 34q26 0 46 -9t42 -25q17 -12 28.5 -18t23.5 -6q21 0 33.5 14.5t12.5 35.5h72
q0 -53 -28 -87t-78 -34q-26 0 -46 9z" />
    <glyph glyph-name="Ograve" unicode="&#xd2;" horiz-adv-x="784" 
d="M219 29.5q-80 43.5 -128.5 126t-48.5 194.5t48.5 194.5t128.5 126t173 43.5t173 -43.5t128.5 -126t48.5 -194.5t-48.5 -194.5t-128.5 -126t-173 -43.5t-173 43.5zM521.5 97.5q60.5 33.5 97.5 98t37 154.5t-37 154.5t-97.5 98t-129.5 33.5t-129.5 -33.5t-97.5 -98
t-37 -154.5t37 -154.5t97.5 -98t129.5 -33.5t129.5 33.5zM254 906h118l56 -133h-72z" />
    <glyph glyph-name="Oacute" unicode="&#xd3;" horiz-adv-x="784" 
d="M219 29.5q-80 43.5 -128.5 126t-48.5 194.5t48.5 194.5t128.5 126t173 43.5t173 -43.5t128.5 -126t48.5 -194.5t-48.5 -194.5t-128.5 -126t-173 -43.5t-173 43.5zM521.5 97.5q60.5 33.5 97.5 98t37 154.5t-37 154.5t-97.5 98t-129.5 33.5t-129.5 -33.5t-97.5 -98
t-37 -154.5t37 -154.5t97.5 -98t129.5 -33.5t129.5 33.5zM412 906h118l-102 -133h-72z" />
    <glyph glyph-name="Ocircumflex" unicode="&#xd4;" horiz-adv-x="784" 
d="M219 29.5q-80 43.5 -128.5 126t-48.5 194.5t48.5 194.5t128.5 126t173 43.5t173 -43.5t128.5 -126t48.5 -194.5t-48.5 -194.5t-128.5 -126t-173 -43.5t-173 43.5zM521.5 97.5q60.5 33.5 97.5 98t37 154.5t-37 154.5t-97.5 98t-129.5 33.5t-129.5 -33.5t-97.5 -98
t-37 -154.5t37 -154.5t97.5 -98t129.5 -33.5t129.5 33.5zM357 906h70l99 -133h-70l-64 69l-64 -69h-70z" />
    <glyph glyph-name="Otilde" unicode="&#xd5;" horiz-adv-x="784" 
d="M219 29.5q-80 43.5 -128.5 126t-48.5 194.5t48.5 194.5t128.5 126t173 43.5t173 -43.5t128.5 -126t48.5 -194.5t-48.5 -194.5t-128.5 -126t-173 -43.5t-173 43.5zM521.5 97.5q60.5 33.5 97.5 98t37 154.5t-37 154.5t-97.5 98t-129.5 33.5t-129.5 -33.5t-97.5 -98
t-37 -154.5t37 -154.5t97.5 -98t129.5 -33.5t129.5 33.5zM422 786q-20 9 -42 25q-17 12 -28.5 18t-23.5 6q-21 0 -33.5 -14.5t-12.5 -35.5h-72q0 53 28 87t78 34q26 0 46 -9t42 -25q17 -12 28.5 -18t23.5 -6q21 0 33.5 14.5t12.5 35.5h72q0 -53 -28 -87t-78 -34q-26 0 -46 9
z" />
    <glyph glyph-name="Odieresis" unicode="&#xd6;" horiz-adv-x="784" 
d="M219 29.5q-80 43.5 -128.5 126t-48.5 194.5t48.5 194.5t128.5 126t173 43.5t173 -43.5t128.5 -126t48.5 -194.5t-48.5 -194.5t-128.5 -126t-173 -43.5t-173 43.5zM521.5 97.5q60.5 33.5 97.5 98t37 154.5t-37 154.5t-97.5 98t-129.5 33.5t-129.5 -33.5t-97.5 -98
t-37 -154.5t37 -154.5t97.5 -98t129.5 -33.5t129.5 33.5zM273 806q-16 16 -16 39q0 24 16 39.5t39 15.5q24 0 39.5 -15.5t15.5 -39.5q0 -23 -15.5 -39t-39.5 -16q-23 0 -39 16zM433 806q-16 16 -16 39q0 24 16 39.5t39 15.5t39 -15.5t16 -39.5q0 -23 -16 -39t-39 -16t-39 16
z" />
    <glyph glyph-name="multiply" unicode="&#xd7;" horiz-adv-x="482" 
d="M49 208l142 142l-142 142l50 50l142 -142l142 142l50 -50l-142 -142l142 -142l-50 -50l-142 142l-142 -142z" />
    <glyph glyph-name="Oslash" unicode="&#xd8;" horiz-adv-x="784" 
d="M705 522q37 -75 37 -172q0 -112 -48.5 -194.5t-128.5 -126t-173 -43.5q-77 0 -148 31l-44 -77h-86l66 115q-64 48 -101 123t-37 172q0 112 48.5 194.5t128.5 126t173 43.5q77 0 148 -31l44 77h86l-66 -115q64 -48 101 -123zM153 221.5q25 -56.5 68 -94.5l279 486
q-52 23 -108 23q-69 0 -129.5 -33.5t-97.5 -98t-37 -154.5q0 -72 25 -128.5zM521.5 97.5q60.5 33.5 97.5 98t37 154.5q0 72 -25 128.5t-68 94.5l-279 -486q52 -23 108 -23q69 0 129.5 33.5z" />
    <glyph glyph-name="Ugrave" unicode="&#xd9;" horiz-adv-x="656" 
d="M202.5 15.5q-56.5 29.5 -89.5 88t-33 141.5v455h84v-466q0 -50 21.5 -88.5t59 -60t83.5 -21.5t83.5 21.5t59 60t21.5 88.5v466h84v-455q0 -83 -33 -141.5t-89.5 -88t-125.5 -29.5t-125.5 29.5zM190 906h118l56 -133h-72z" />
    <glyph glyph-name="Uacute" unicode="&#xda;" horiz-adv-x="656" 
d="M202.5 15.5q-56.5 29.5 -89.5 88t-33 141.5v455h84v-466q0 -50 21.5 -88.5t59 -60t83.5 -21.5t83.5 21.5t59 60t21.5 88.5v466h84v-455q0 -83 -33 -141.5t-89.5 -88t-125.5 -29.5t-125.5 29.5zM348 906h118l-102 -133h-72z" />
    <glyph glyph-name="Ucircumflex" unicode="&#xdb;" horiz-adv-x="656" 
d="M202.5 15.5q-56.5 29.5 -89.5 88t-33 141.5v455h84v-466q0 -50 21.5 -88.5t59 -60t83.5 -21.5t83.5 21.5t59 60t21.5 88.5v466h84v-455q0 -83 -33 -141.5t-89.5 -88t-125.5 -29.5t-125.5 29.5zM293 906h70l99 -133h-70l-64 69l-64 -69h-70z" />
    <glyph glyph-name="Udieresis" unicode="&#xdc;" horiz-adv-x="656" 
d="M202.5 15.5q-56.5 29.5 -89.5 88t-33 141.5v455h84v-466q0 -50 21.5 -88.5t59 -60t83.5 -21.5t83.5 21.5t59 60t21.5 88.5v466h84v-455q0 -83 -33 -141.5t-89.5 -88t-125.5 -29.5t-125.5 29.5zM209 806q-16 16 -16 39q0 24 16 39.5t39 15.5q24 0 39.5 -15.5t15.5 -39.5
q0 -23 -15.5 -39t-39.5 -16q-23 0 -39 16zM369 806q-16 16 -16 39q0 24 16 39.5t39 15.5t39 -15.5t16 -39.5q0 -23 -16 -39t-39 -16t-39 16z" />
    <glyph glyph-name="Yacute" unicode="&#xdd;" horiz-adv-x="560" 
d="M237 291l-218 409h98l138 -269q15 -30 25 -59q10 29 25 59l138 269h98l-218 -409v-291h-86v291zM300 906h118l-102 -133h-72z" />
    <glyph glyph-name="Thorn" unicode="&#xde;" horiz-adv-x="591" 
d="M88 700h86v-138h150q62 0 112.5 -26.5t79.5 -74.5t29 -111q0 -64 -29 -112t-79 -74t-113 -26h-150v-138h-86v700zM319 214q62 0 101 36.5t39 99.5t-39 99.5t-101 36.5h-145v-272h145z" />
    <glyph glyph-name="germandbls" unicode="&#xdf;" horiz-adv-x="564" 
d="M78 531q0 56 26 97.5t69.5 63.5t94.5 22q88 0 138 -47t50 -126q0 -45 -25 -83t-61 -57q62 -20 100.5 -67t38.5 -124q0 -62 -28 -109.5t-79 -74t-118 -26.5h-62v76h62q62 0 102.5 37.5t40.5 98.5t-40.5 98.5t-102.5 37.5h-62v75h36q51 0 84.5 31.5t33.5 80.5
q0 48 -30 76.5t-78 28.5q-46 0 -77 -29.5t-31 -79.5v-531h-82v531z" />
    <glyph glyph-name="agrave" unicode="&#xe0;" horiz-adv-x="632" 
d="M164 20.5q-57 34.5 -89.5 94t-32.5 132.5q0 72 34 132t91.5 94.5t124.5 34.5q62 0 109.5 -23.5t76.5 -62.5v72h76v-494h-76v85q-29 -45 -77 -72t-111 -27q-69 0 -126 34.5zM388.5 83.5q40.5 23.5 65 66t24.5 97.5t-24.5 97.5t-65 66t-87.5 23.5q-49 0 -89.5 -23t-64 -66
t-23.5 -98t23.5 -98t64 -66t89.5 -23q47 0 87.5 23.5zM178 700h118l56 -133h-72z" />
    <glyph glyph-name="aacute" unicode="&#xe1;" horiz-adv-x="632" 
d="M164 20.5q-57 34.5 -89.5 94t-32.5 132.5q0 72 34 132t91.5 94.5t124.5 34.5q62 0 109.5 -23.5t76.5 -62.5v72h76v-494h-76v85q-29 -45 -77 -72t-111 -27q-69 0 -126 34.5zM388.5 83.5q40.5 23.5 65 66t24.5 97.5t-24.5 97.5t-65 66t-87.5 23.5q-49 0 -89.5 -23t-64 -66
t-23.5 -98t23.5 -98t64 -66t89.5 -23q47 0 87.5 23.5zM336 700h118l-102 -133h-72z" />
    <glyph glyph-name="acircumflex" unicode="&#xe2;" horiz-adv-x="632" 
d="M164 20.5q-57 34.5 -89.5 94t-32.5 132.5q0 72 34 132t91.5 94.5t124.5 34.5q62 0 109.5 -23.5t76.5 -62.5v72h76v-494h-76v85q-29 -45 -77 -72t-111 -27q-69 0 -126 34.5zM388.5 83.5q40.5 23.5 65 66t24.5 97.5t-24.5 97.5t-65 66t-87.5 23.5q-49 0 -89.5 -23t-64 -66
t-23.5 -98t23.5 -98t64 -66t89.5 -23q47 0 87.5 23.5zM281 700h70l99 -133h-70l-64 69l-64 -69h-70z" />
    <glyph glyph-name="atilde" unicode="&#xe3;" horiz-adv-x="632" 
d="M164 20.5q-57 34.5 -89.5 94t-32.5 132.5q0 72 34 132t91.5 94.5t124.5 34.5q62 0 109.5 -23.5t76.5 -62.5v72h76v-494h-76v85q-29 -45 -77 -72t-111 -27q-69 0 -126 34.5zM388.5 83.5q40.5 23.5 65 66t24.5 97.5t-24.5 97.5t-65 66t-87.5 23.5q-49 0 -89.5 -23t-64 -66
t-23.5 -98t23.5 -98t64 -66t89.5 -23q47 0 87.5 23.5zM346 580q-20 9 -42 25q-17 12 -28.5 18t-23.5 6q-21 0 -33.5 -14.5t-12.5 -35.5h-72q0 53 28 87t78 34q26 0 46 -9t42 -25q17 -12 28.5 -18t23.5 -6q21 0 33.5 14.5t12.5 35.5h72q0 -53 -28 -87t-78 -34q-26 0 -46 9z
" />
    <glyph glyph-name="adieresis" unicode="&#xe4;" horiz-adv-x="632" 
d="M164 20.5q-57 34.5 -89.5 94t-32.5 132.5q0 72 34 132t91.5 94.5t124.5 34.5q62 0 109.5 -23.5t76.5 -62.5v72h76v-494h-76v85q-29 -45 -77 -72t-111 -27q-69 0 -126 34.5zM388.5 83.5q40.5 23.5 65 66t24.5 97.5t-24.5 97.5t-65 66t-87.5 23.5q-49 0 -89.5 -23t-64 -66
t-23.5 -98t23.5 -98t64 -66t89.5 -23q47 0 87.5 23.5zM197 600q-16 16 -16 39q0 24 16 39.5t39 15.5q24 0 39.5 -15.5t15.5 -39.5q0 -23 -15.5 -39t-39.5 -16q-23 0 -39 16zM357 600q-16 16 -16 39q0 24 16 39.5t39 15.5t39 -15.5t16 -39.5q0 -23 -16 -39t-39 -16t-39 16z
" />
    <glyph glyph-name="aring" unicode="&#xe5;" horiz-adv-x="632" 
d="M164 20.5q-57 34.5 -89.5 94t-32.5 132.5q0 72 34 132t91.5 94.5t124.5 34.5q62 0 109.5 -23.5t76.5 -62.5v72h76v-494h-76v85q-29 -45 -77 -72t-111 -27q-69 0 -126 34.5zM388.5 83.5q40.5 23.5 65 66t24.5 97.5t-24.5 97.5t-65 66t-87.5 23.5q-49 0 -89.5 -23t-64 -66
t-23.5 -98t23.5 -98t64 -66t89.5 -23q47 0 87.5 23.5zM231 595.5q-35 35.5 -35 84.5q0 50 35 85t85 35q49 0 84.5 -35t35.5 -85q0 -49 -35.5 -84.5t-84.5 -35.5q-50 0 -85 35.5zM365.5 630.5q20.5 20.5 20.5 49.5t-20.5 49.5t-49.5 20.5t-49.5 -20.5t-20.5 -49.5t20.5 -49.5
t49.5 -20.5t49.5 20.5z" />
    <glyph glyph-name="ae" unicode="&#xe6;" horiz-adv-x="1007" 
d="M963 234h-409q0 -54 22.5 -94t60.5 -61t84 -21q59 0 99 29t56 76h78q-22 -80 -83.5 -128.5t-149.5 -48.5q-54 0 -98 22t-69 57v-65h-76v85q-29 -45 -77 -72t-111 -27q-69 0 -126 34.5t-89.5 94t-32.5 132.5q0 72 34 132t91.5 94.5t124.5 34.5q62 0 109.5 -23.5
t76.5 -62.5v72h76v-72q26 39 74 62.5t109 23.5q65 0 116.5 -30.5t80.5 -86.5t29 -131v-26zM615 401.5q-43 -36.5 -56 -101.5h324q-8 64 -52 101t-112 37q-61 0 -104 -36.5zM388.5 83.5q40.5 23.5 65 66t24.5 97.5t-24.5 97.5t-65 66t-87.5 23.5q-49 0 -89.5 -23t-64 -66
t-23.5 -98t23.5 -98t64 -66t89.5 -23q47 0 87.5 23.5z" />
    <glyph glyph-name="ccedilla" unicode="&#xe7;" horiz-adv-x="571" 
d="M392 87q38 27 54 76h82q-18 -79 -73.5 -125.5t-141.5 -50.5l-13 -42q18 2 28 2q35 0 58 -23t23 -61q0 -47 -30.5 -69t-76.5 -22q-42 0 -69 10v52q28 -10 57 -10q56 0 56 40q0 18 -13.5 28.5t-35.5 10.5h-64v20l23 66q-62 8 -111 43.5t-76 91.5t-27 123q0 74 33 133.5
t90.5 93.5t128.5 34q97 0 158.5 -47.5t75.5 -129.5h-82q-14 46 -54 74.5t-98 28.5q-47 0 -85.5 -23t-61.5 -65.5t-23 -98.5t23 -98.5t62 -65.5t85 -23q60 0 98 27z" />
    <glyph glyph-name="egrave" unicode="&#xe8;" horiz-adv-x="577" 
d="M533 234h-409q0 -54 22.5 -94t60.5 -61t84 -21q59 0 99 29t56 76h78q-22 -80 -83.5 -128.5t-149.5 -48.5q-72 0 -129 33.5t-88.5 93t-31.5 134.5t32.5 134.5t89.5 93t126 33.5q73 0 128 -30.5t85 -86.5t30 -131v-26zM185 401.5q-43 -36.5 -56 -101.5h324q-8 64 -52 101
t-112 37q-61 0 -104 -36.5zM151 700h118l56 -133h-72z" />
    <glyph glyph-name="eacute" unicode="&#xe9;" horiz-adv-x="577" 
d="M533 234h-409q0 -54 22.5 -94t60.5 -61t84 -21q59 0 99 29t56 76h78q-22 -80 -83.5 -128.5t-149.5 -48.5q-72 0 -129 33.5t-88.5 93t-31.5 134.5t32.5 134.5t89.5 93t126 33.5q73 0 128 -30.5t85 -86.5t30 -131v-26zM185 401.5q-43 -36.5 -56 -101.5h324q-8 64 -52 101
t-112 37q-61 0 -104 -36.5zM309 700h118l-102 -133h-72z" />
    <glyph glyph-name="ecircumflex" unicode="&#xea;" horiz-adv-x="577" 
d="M533 234h-409q0 -54 22.5 -94t60.5 -61t84 -21q59 0 99 29t56 76h78q-22 -80 -83.5 -128.5t-149.5 -48.5q-72 0 -129 33.5t-88.5 93t-31.5 134.5t32.5 134.5t89.5 93t126 33.5q73 0 128 -30.5t85 -86.5t30 -131v-26zM185 401.5q-43 -36.5 -56 -101.5h324q-8 64 -52 101
t-112 37q-61 0 -104 -36.5zM254 700h70l99 -133h-70l-64 69l-64 -69h-70z" />
    <glyph glyph-name="edieresis" unicode="&#xeb;" horiz-adv-x="577" 
d="M533 234h-409q0 -54 22.5 -94t60.5 -61t84 -21q59 0 99 29t56 76h78q-22 -80 -83.5 -128.5t-149.5 -48.5q-72 0 -129 33.5t-88.5 93t-31.5 134.5t32.5 134.5t89.5 93t126 33.5q73 0 128 -30.5t85 -86.5t30 -131v-26zM185 401.5q-43 -36.5 -56 -101.5h324q-8 64 -52 101
t-112 37q-61 0 -104 -36.5zM170 600q-16 16 -16 39q0 24 16 39.5t39 15.5q24 0 39.5 -15.5t15.5 -39.5q0 -23 -15.5 -39t-39.5 -16q-23 0 -39 16zM330 600q-16 16 -16 39q0 24 16 39.5t39 15.5t39 -15.5t16 -39.5q0 -23 -16 -39t-39 -16t-39 16z" />
    <glyph glyph-name="igrave" unicode="&#xec;" horiz-adv-x="238" 
d="M78 494h82v-494h-82v494zM-19 700h118l56 -133h-72z" />
    <glyph glyph-name="iacute" unicode="&#xed;" horiz-adv-x="238" 
d="M78 494h82v-494h-82v494zM139 700h118l-102 -133h-72z" />
    <glyph glyph-name="icircumflex" unicode="&#xee;" horiz-adv-x="238" 
d="M78 494h82v-494h-82v494zM84 700h70l99 -133h-70l-64 69l-64 -69h-70z" />
    <glyph glyph-name="idieresis" unicode="&#xef;" horiz-adv-x="238" 
d="M78 494h82v-494h-82v494zM0 600q-16 16 -16 39q0 24 16 39.5t39 15.5q24 0 39.5 -15.5t15.5 -39.5q0 -23 -15.5 -39t-39.5 -16q-23 0 -39 16zM160 600q-16 16 -16 39q0 24 16 39.5t39 15.5t39 -15.5t16 -39.5q0 -23 -16 -39t-39 -16t-39 16z" />
    <glyph glyph-name="eth" unicode="&#xf0;" horiz-adv-x="570" 
d="M494.5 435.5q33.5 -81.5 33.5 -173.5q0 -129 -65 -202.5t-179 -73.5q-68 0 -123 31t-87 85.5t-32 122.5q0 65 32 118t84.5 83t110.5 30q53 0 95.5 -19t69.5 -51q-34 90 -106 159l-128 -62l-31 63l99 48q-48 35 -106 56l36 64q79 -28 148 -82l107 52l31 -63l-83 -40
q60 -64 93.5 -145.5zM366 80q37 20 58.5 56.5t21.5 84.5t-21.5 84.5t-58.5 56.5t-82 20t-81.5 -20t-57.5 -56.5t-21 -84.5t21 -84.5t57.5 -56.5t81.5 -20t82 20z" />
    <glyph glyph-name="ntilde" unicode="&#xf1;" horiz-adv-x="557" 
d="M78 494h77v-69q19 35 59.5 59t96.5 24q79 0 124 -50t45 -131v-327h-82v308q0 59 -34.5 93.5t-84.5 34.5q-49 0 -84 -35t-35 -93v-308h-82v494zM309 580q-20 9 -42 25q-17 12 -28.5 18t-23.5 6q-21 0 -33.5 -14.5t-12.5 -35.5h-72q0 53 28 87t78 34q26 0 46 -9t42 -25
q17 -12 28.5 -18t23.5 -6q21 0 33.5 14.5t12.5 35.5h72q0 -53 -28 -87t-78 -34q-26 0 -46 9z" />
    <glyph glyph-name="ograve" unicode="&#xf2;" horiz-adv-x="606" 
d="M169.5 20.5q-59.5 34.5 -93.5 94t-34 132.5t34 132.5t93.5 94t133.5 34.5t133.5 -34.5t93.5 -94t34 -132.5t-34 -132.5t-93.5 -94t-133.5 -34.5t-133.5 34.5zM393 83q41 23 65 65.5t24 98.5t-24 98.5t-65 65.5t-90 23t-90 -23t-65 -65.5t-24 -98.5t24 -98.5t65 -65.5
t90 -23t90 23zM165 700h118l56 -133h-72z" />
    <glyph glyph-name="oacute" unicode="&#xf3;" horiz-adv-x="606" 
d="M169.5 20.5q-59.5 34.5 -93.5 94t-34 132.5t34 132.5t93.5 94t133.5 34.5t133.5 -34.5t93.5 -94t34 -132.5t-34 -132.5t-93.5 -94t-133.5 -34.5t-133.5 34.5zM393 83q41 23 65 65.5t24 98.5t-24 98.5t-65 65.5t-90 23t-90 -23t-65 -65.5t-24 -98.5t24 -98.5t65 -65.5
t90 -23t90 23zM323 700h118l-102 -133h-72z" />
    <glyph glyph-name="ocircumflex" unicode="&#xf4;" horiz-adv-x="606" 
d="M169.5 20.5q-59.5 34.5 -93.5 94t-34 132.5t34 132.5t93.5 94t133.5 34.5t133.5 -34.5t93.5 -94t34 -132.5t-34 -132.5t-93.5 -94t-133.5 -34.5t-133.5 34.5zM393 83q41 23 65 65.5t24 98.5t-24 98.5t-65 65.5t-90 23t-90 -23t-65 -65.5t-24 -98.5t24 -98.5t65 -65.5
t90 -23t90 23zM268 700h70l99 -133h-70l-64 69l-64 -69h-70z" />
    <glyph glyph-name="otilde" unicode="&#xf5;" horiz-adv-x="606" 
d="M169.5 20.5q-59.5 34.5 -93.5 94t-34 132.5t34 132.5t93.5 94t133.5 34.5t133.5 -34.5t93.5 -94t34 -132.5t-34 -132.5t-93.5 -94t-133.5 -34.5t-133.5 34.5zM393 83q41 23 65 65.5t24 98.5t-24 98.5t-65 65.5t-90 23t-90 -23t-65 -65.5t-24 -98.5t24 -98.5t65 -65.5
t90 -23t90 23zM333 580q-20 9 -42 25q-17 12 -28.5 18t-23.5 6q-21 0 -33.5 -14.5t-12.5 -35.5h-72q0 53 28 87t78 34q26 0 46 -9t42 -25q17 -12 28.5 -18t23.5 -6q21 0 33.5 14.5t12.5 35.5h72q0 -53 -28 -87t-78 -34q-26 0 -46 9z" />
    <glyph glyph-name="odieresis" unicode="&#xf6;" horiz-adv-x="606" 
d="M169.5 20.5q-59.5 34.5 -93.5 94t-34 132.5t34 132.5t93.5 94t133.5 34.5t133.5 -34.5t93.5 -94t34 -132.5t-34 -132.5t-93.5 -94t-133.5 -34.5t-133.5 34.5zM393 83q41 23 65 65.5t24 98.5t-24 98.5t-65 65.5t-90 23t-90 -23t-65 -65.5t-24 -98.5t24 -98.5t65 -65.5
t90 -23t90 23zM184 600q-16 16 -16 39q0 24 16 39.5t39 15.5q24 0 39.5 -15.5t15.5 -39.5q0 -23 -15.5 -39t-39.5 -16q-23 0 -39 16zM344 600q-16 16 -16 39q0 24 16 39.5t39 15.5t39 -15.5t16 -39.5q0 -23 -16 -39t-39 -16t-39 16z" />
    <glyph glyph-name="divide" unicode="&#xf7;" horiz-adv-x="482" 
d="M199.5 463q-16.5 17 -16.5 41q0 25 16.5 41.5t41.5 16.5t41.5 -16.5t16.5 -41.5q0 -24 -16.5 -41t-41.5 -17t-41.5 17zM35 385h412v-70h-412v70zM199.5 155q-16.5 17 -16.5 41q0 25 16.5 41.5t41.5 16.5t41.5 -16.5t16.5 -41.5q0 -24 -16.5 -41t-41.5 -17t-41.5 17z" />
    <glyph glyph-name="oslash" unicode="&#xf8;" horiz-adv-x="606" 
d="M539.5 361.5q24.5 -52.5 24.5 -114.5q0 -73 -34 -132.5t-93.5 -94t-133.5 -34.5q-57 0 -109 22l-39 -62h-82l62 98q-44 36 -68.5 88.5t-24.5 114.5q0 73 34 132.5t93.5 94t133.5 34.5q57 0 109 -22l39 62h82l-62 -98q44 -36 68.5 -88.5zM176 111l195 310q-30 13 -68 13
q-49 0 -90 -23t-65 -65.5t-24 -98.5q0 -84 52 -136zM393 83q41 23 65 65.5t24 98.5q0 84 -52 136l-195 -310q30 -13 68 -13q49 0 90 23z" />
    <glyph glyph-name="ugrave" unicode="&#xf9;" horiz-adv-x="557" 
d="M123.5 38q-46.5 52 -46.5 135v321h82v-308q0 -59 33.5 -93.5t85.5 -34.5q51 0 85 34.5t34 93.5v308h82v-494h-77v69q-19 -36 -58.5 -59.5t-97.5 -23.5q-76 0 -122.5 52zM140 700h118l56 -133h-72z" />
    <glyph glyph-name="uacute" unicode="&#xfa;" horiz-adv-x="557" 
d="M123.5 38q-46.5 52 -46.5 135v321h82v-308q0 -59 33.5 -93.5t85.5 -34.5q51 0 85 34.5t34 93.5v308h82v-494h-77v69q-19 -36 -58.5 -59.5t-97.5 -23.5q-76 0 -122.5 52zM298 700h118l-102 -133h-72z" />
    <glyph glyph-name="ucircumflex" unicode="&#xfb;" horiz-adv-x="557" 
d="M123.5 38q-46.5 52 -46.5 135v321h82v-308q0 -59 33.5 -93.5t85.5 -34.5q51 0 85 34.5t34 93.5v308h82v-494h-77v69q-19 -36 -58.5 -59.5t-97.5 -23.5q-76 0 -122.5 52zM243 700h70l99 -133h-70l-64 69l-64 -69h-70z" />
    <glyph glyph-name="udieresis" unicode="&#xfc;" horiz-adv-x="557" 
d="M123.5 38q-46.5 52 -46.5 135v321h82v-308q0 -59 33.5 -93.5t85.5 -34.5q51 0 85 34.5t34 93.5v308h82v-494h-77v69q-19 -36 -58.5 -59.5t-97.5 -23.5q-76 0 -122.5 52zM159 600q-16 16 -16 39q0 24 16 39.5t39 15.5q24 0 39.5 -15.5t15.5 -39.5q0 -23 -15.5 -39
t-39.5 -16q-23 0 -39 16zM319 600q-16 16 -16 39q0 24 16 39.5t39 15.5t39 -15.5t16 -39.5q0 -23 -16 -39t-39 -16t-39 16z" />
    <glyph glyph-name="yacute" unicode="&#xfd;" horiz-adv-x="501" 
d="M48 -124h58q24 0 36.5 8.5t21.5 30.5l34 85l-186 494h91l122 -328q10 -29 17 -67l152 395h90l-241 -605q-18 -44 -48 -66.5t-78 -22.5h-69v76zM269 700h118l-102 -133h-72z" />
    <glyph glyph-name="thorn" unicode="&#xfe;" horiz-adv-x="632" 
d="M78 700h82v-283q25 40 74.5 65.5t107.5 25.5q69 0 126 -34.5t89.5 -94t32.5 -132.5q0 -72 -34 -132t-91.5 -94.5t-124.5 -34.5q-62 0 -107.5 24.5t-72.5 61.5v-272h-82v900zM420.5 83q40.5 23 64 66t23.5 98t-23.5 98t-64 66t-89.5 23q-47 0 -87.5 -23.5t-65 -66
t-24.5 -97.5t24.5 -97.5t65 -66t87.5 -23.5q49 0 89.5 23z" />
    <glyph glyph-name="ydieresis" unicode="&#xff;" horiz-adv-x="501" 
d="M48 -124h58q24 0 36.5 8.5t21.5 30.5l34 85l-186 494h91l122 -328q10 -29 17 -67l152 395h90l-241 -605q-18 -44 -48 -66.5t-78 -22.5h-69v76zM130 600q-16 16 -16 39q0 24 16 39.5t39 15.5q24 0 39.5 -15.5t15.5 -39.5q0 -23 -15.5 -39t-39.5 -16q-23 0 -39 16zM290 600
q-16 16 -16 39q0 24 16 39.5t39 15.5t39 -15.5t16 -39.5q0 -23 -16 -39t-39 -16t-39 16z" />
    <glyph glyph-name="Amacron" unicode="&#x100;" horiz-adv-x="654" 
d="M487 182h-320l-69 -182h-89l269 700h98l269 -700h-89zM458 260l-113 297q-14 36 -18 48q-4 -12 -18 -48l-113 -297h262zM207 876h242v-66h-242v66z" />
    <glyph glyph-name="amacron" unicode="&#x101;" horiz-adv-x="632" 
d="M164 20.5q-57 34.5 -89.5 94t-32.5 132.5q0 72 34 132t91.5 94.5t124.5 34.5q62 0 109.5 -23.5t76.5 -62.5v72h76v-494h-76v85q-29 -45 -77 -72t-111 -27q-69 0 -126 34.5zM388.5 83.5q40.5 23.5 65 66t24.5 97.5t-24.5 97.5t-65 66t-87.5 23.5q-49 0 -89.5 -23t-64 -66
t-23.5 -98t23.5 -98t64 -66t89.5 -23q47 0 87.5 23.5zM195 670h242v-66h-242v66z" />
    <glyph glyph-name="Abreve" unicode="&#x102;" horiz-adv-x="654" 
d="M487 182h-320l-69 -182h-89l269 700h98l269 -700h-89zM458 260l-113 297q-14 36 -18 48q-4 -12 -18 -48l-113 -297h262zM237 816.5q-35 36.5 -35 89.5h58q0 -32 18.5 -52t49.5 -20t49.5 20t18.5 52h58q0 -53 -35 -89.5t-91 -36.5t-91 36.5z" />
    <glyph glyph-name="abreve" unicode="&#x103;" horiz-adv-x="632" 
d="M164 20.5q-57 34.5 -89.5 94t-32.5 132.5q0 72 34 132t91.5 94.5t124.5 34.5q62 0 109.5 -23.5t76.5 -62.5v72h76v-494h-76v85q-29 -45 -77 -72t-111 -27q-69 0 -126 34.5zM388.5 83.5q40.5 23.5 65 66t24.5 97.5t-24.5 97.5t-65 66t-87.5 23.5q-49 0 -89.5 -23t-64 -66
t-23.5 -98t23.5 -98t64 -66t89.5 -23q47 0 87.5 23.5zM225 610.5q-35 36.5 -35 89.5h58q0 -32 18.5 -52t49.5 -20t49.5 20t18.5 52h58q0 -53 -35 -89.5t-91 -36.5t-91 36.5z" />
    <glyph glyph-name="Aogonek" unicode="&#x104;" horiz-adv-x="654" 
d="M660 -120v-67q-32 -13 -70 -13q-41 0 -67.5 25.5t-26.5 67.5q0 34 17.5 62.5t44.5 44.5h-2l-69 182h-320l-69 -182h-89l269 700h98l269 -700q-71 -39 -71 -84q0 -21 12 -33t31 -12q22 0 43 9zM458 260l-113 297q-14 36 -18 48q-4 -12 -18 -48l-113 -297h262z" />
    <glyph glyph-name="aogonek" unicode="&#x105;" horiz-adv-x="632" 
d="M569 -120v-67q-32 -13 -70 -13q-41 0 -67.5 25.5t-26.5 67.5q0 38 21 68.5t52 44.5v79q-29 -45 -77 -72t-111 -27q-69 0 -126 34.5t-89.5 94t-32.5 132.5q0 72 34 132t91.5 94.5t124.5 34.5q62 0 109.5 -23.5t76.5 -62.5v72h76v-494q-71 -39 -71 -84q0 -21 12 -33t31 -12
q22 0 43 9zM388.5 83.5q40.5 23.5 65 66t24.5 97.5t-24.5 97.5t-65 66t-87.5 23.5q-49 0 -89.5 -23t-64 -66t-23.5 -98t23.5 -98t64 -66t89.5 -23q47 0 87.5 23.5z" />
    <glyph glyph-name="Cacute" unicode="&#x106;" horiz-adv-x="744" 
d="M216.5 29.5q-78.5 43.5 -126.5 126t-48 194.5q0 111 48 194t126.5 126.5t167.5 43.5q81 0 149.5 -31.5t113 -90t57.5 -136.5h-86q-19 84 -84 132t-150 48q-67 0 -125.5 -33.5t-94.5 -98t-36 -154.5t36 -154.5t94.5 -98t125.5 -33.5q87 0 151 48t83 133h86
q-13 -78 -58.5 -137t-113.5 -90.5t-148 -31.5q-89 0 -167.5 43.5zM404 906h118l-102 -133h-72z" />
    <glyph glyph-name="cacute" unicode="&#x107;" horiz-adv-x="571" 
d="M164.5 20q-57.5 34 -90 93.5t-32.5 133.5t33 133.5t90.5 93.5t128.5 34q97 0 158.5 -47.5t75.5 -129.5h-82q-14 46 -54 74.5t-98 28.5q-47 0 -85.5 -23t-61.5 -65.5t-23 -98.5t23 -98.5t62 -65.5t85 -23q60 0 98 27t54 76h82q-18 -83 -79 -130t-155 -47q-72 0 -129.5 34z
M314 700h118l-102 -133h-72z" />
    <glyph glyph-name="Ccaron" unicode="&#x10c;" horiz-adv-x="744" 
d="M216.5 29.5q-78.5 43.5 -126.5 126t-48 194.5q0 111 48 194t126.5 126.5t167.5 43.5q81 0 149.5 -31.5t113 -90t57.5 -136.5h-86q-19 84 -84 132t-150 48q-67 0 -125.5 -33.5t-94.5 -98t-36 -154.5t36 -154.5t94.5 -98t125.5 -33.5q87 0 151 48t83 133h86
q-13 -78 -58.5 -137t-113.5 -90.5t-148 -31.5q-89 0 -167.5 43.5zM250 906h70l64 -69l64 69h70l-99 -133h-70z" />
    <glyph glyph-name="ccaron" unicode="&#x10d;" horiz-adv-x="571" 
d="M164.5 20q-57.5 34 -90 93.5t-32.5 133.5t33 133.5t90.5 93.5t128.5 34q97 0 158.5 -47.5t75.5 -129.5h-82q-14 46 -54 74.5t-98 28.5q-47 0 -85.5 -23t-61.5 -65.5t-23 -98.5t23 -98.5t62 -65.5t85 -23q60 0 98 27t54 76h82q-18 -83 -79 -130t-155 -47q-72 0 -129.5 34z
M160 700h70l64 -69l64 69h70l-99 -133h-70z" />
    <glyph glyph-name="Dcaron" unicode="&#x10e;" horiz-adv-x="664" 
d="M88 700h190q99 0 177 -41.5t122.5 -121t44.5 -187.5t-44.5 -187.5t-122.5 -121t-177 -41.5h-190v700zM272 78q77 0 136.5 31.5t93.5 92.5t34 148t-34 148t-93.5 92.5t-136.5 31.5h-98v-544h98zM158 906h70l64 -69l64 69h70l-99 -133h-70z" />
    <glyph glyph-name="dcaron" unicode="&#x10f;" horiz-adv-x="712" 
d="M164 20.5q-57 34.5 -89.5 94t-32.5 132.5q0 72 34 132t91.5 94.5t124.5 34.5q61 0 107.5 -23.5t72.5 -58.5v274h82v-700h-76v85q-29 -45 -77 -72t-111 -27q-69 0 -126 34.5zM388.5 83.5q40.5 23.5 65 66t24.5 97.5t-24.5 97.5t-65 66t-87.5 23.5q-49 0 -89.5 -23t-64 -66
t-23.5 -98t23.5 -98t64 -66t89.5 -23q47 0 87.5 23.5zM622 546h8q29 0 44.5 12.5t18.5 42.5q-6 -4 -19 -4q-23 0 -39 16.5t-16 41.5t16.5 42t41.5 17q31 0 49.5 -22t18.5 -67q0 -61 -30.5 -94t-80.5 -33h-12v48z" />
    <glyph glyph-name="Dcroat" unicode="&#x110;" horiz-adv-x="664" 
d="M455 658.5q78 -41.5 122.5 -121t44.5 -187.5t-44.5 -187.5t-122.5 -121t-177 -41.5h-190v314h-84v72h84v314h190q99 0 177 -41.5zM408.5 109.5q59.5 31.5 93.5 92.5t34 148t-34 148t-93.5 92.5t-136.5 31.5h-98v-236h184v-72h-184v-236h98q77 0 136.5 31.5z" />
    <glyph glyph-name="dcroat" unicode="&#x111;" horiz-adv-x="632" 
d="M632 562h-78v-562h-76v85q-29 -45 -77 -72t-111 -27q-69 0 -126 34.5t-89.5 94t-32.5 132.5q0 72 34 132t91.5 94.5t124.5 34.5q61 0 107.5 -23.5t72.5 -58.5v136h-152v70h152v68h82v-68h78v-70zM388.5 83.5q40.5 23.5 65 66t24.5 97.5t-24.5 97.5t-65 66t-87.5 23.5
q-49 0 -89.5 -23t-64 -66t-23.5 -98t23.5 -98t64 -66t89.5 -23q47 0 87.5 23.5z" />
    <glyph glyph-name="Emacron" unicode="&#x112;" horiz-adv-x="554" 
d="M88 700h411v-78h-325v-211h274v-78h-274v-255h328v-78h-414v700zM174 876h242v-66h-242v66z" />
    <glyph glyph-name="emacron" unicode="&#x113;" horiz-adv-x="577" 
d="M533 234h-409q0 -54 22.5 -94t60.5 -61t84 -21q59 0 99 29t56 76h78q-22 -80 -83.5 -128.5t-149.5 -48.5q-72 0 -129 33.5t-88.5 93t-31.5 134.5t32.5 134.5t89.5 93t126 33.5q73 0 128 -30.5t85 -86.5t30 -131v-26zM185 401.5q-43 -36.5 -56 -101.5h324q-8 64 -52 101
t-112 37q-61 0 -104 -36.5zM168 670h242v-66h-242v66z" />
    <glyph glyph-name="Edotaccent" unicode="&#x116;" horiz-adv-x="554" 
d="M88 700h411v-78h-325v-211h274v-78h-274v-255h328v-78h-414v700zM251.5 802q-17.5 18 -17.5 43q0 26 17.5 43.5t43.5 17.5t43.5 -17.5t17.5 -43.5t-17.5 -43.5t-43.5 -17.5t-43.5 18z" />
    <glyph glyph-name="edotaccent" unicode="&#x117;" horiz-adv-x="577" 
d="M533 234h-409q0 -54 22.5 -94t60.5 -61t84 -21q59 0 99 29t56 76h78q-22 -80 -83.5 -128.5t-149.5 -48.5q-72 0 -129 33.5t-88.5 93t-31.5 134.5t32.5 134.5t89.5 93t126 33.5q73 0 128 -30.5t85 -86.5t30 -131v-26zM185 401.5q-43 -36.5 -56 -101.5h324q-8 64 -52 101
t-112 37q-61 0 -104 -36.5zM245.5 596q-17.5 18 -17.5 43q0 26 17.5 43.5t43.5 17.5t43.5 -17.5t17.5 -43.5t-17.5 -43.5t-43.5 -17.5t-43.5 18z" />
    <glyph glyph-name="Eogonek" unicode="&#x118;" horiz-adv-x="554" 
d="M517 -120v-67q-32 -13 -70 -13q-41 0 -67.5 25.5t-26.5 67.5q0 34 17.5 62.5t44.5 44.5h-327v700h411v-78h-325v-211h274v-78h-274v-255h328v-78q-71 -39 -71 -84q0 -21 12 -33t31 -12q22 0 43 9z" />
    <glyph glyph-name="eogonek" unicode="&#x119;" horiz-adv-x="577" 
d="M533 234h-409q0 -54 22.5 -94t60.5 -61t84 -21q59 0 99 29t56 76h78q-17 -58 -55 -101t-92 -62q-71 -39 -71 -84q0 -21 12 -33t31 -12q22 0 43 9v-67q-32 -13 -70 -13q-41 0 -67.5 25.5t-26.5 67.5q0 28 11.5 52.5t31.5 41.5q-67 4 -119 38.5t-81 92t-29 129.5
q0 75 32.5 134.5t89.5 93t126 33.5q73 0 128 -30.5t85 -86.5t30 -131v-26zM185 401.5q-43 -36.5 -56 -101.5h324q-8 64 -52 101t-112 37q-61 0 -104 -36.5z" />
    <glyph glyph-name="Ecaron" unicode="&#x11a;" horiz-adv-x="554" 
d="M88 700h411v-78h-325v-211h274v-78h-274v-255h328v-78h-414v700zM161 906h70l64 -69l64 69h70l-99 -133h-70z" />
    <glyph glyph-name="ecaron" unicode="&#x11b;" horiz-adv-x="577" 
d="M533 234h-409q0 -54 22.5 -94t60.5 -61t84 -21q59 0 99 29t56 76h78q-22 -80 -83.5 -128.5t-149.5 -48.5q-72 0 -129 33.5t-88.5 93t-31.5 134.5t32.5 134.5t89.5 93t126 33.5q73 0 128 -30.5t85 -86.5t30 -131v-26zM185 401.5q-43 -36.5 -56 -101.5h324q-8 64 -52 101
t-112 37q-61 0 -104 -36.5zM155 700h70l64 -69l64 69h70l-99 -133h-70z" />
    <glyph glyph-name="Gbreve" unicode="&#x11e;" horiz-adv-x="749" 
d="M707 352v-27q0 -108 -41.5 -184.5t-115 -115.5t-166.5 -39q-89 0 -167.5 43.5t-126.5 126t-48 194.5q0 111 48 194t126.5 126.5t167.5 43.5q79 0 145.5 -28t110 -79.5t55.5 -121.5h-86q-18 70 -81 110.5t-144 40.5q-67 0 -125.5 -33.5t-94.5 -98t-36 -154.5t36 -154.5
t94.5 -98t125.5 -33.5q106 0 167 54t74 160h-218v74h300zM294 816.5q-35 36.5 -35 89.5h58q0 -32 18.5 -52t49.5 -20t49.5 20t18.5 52h58q0 -53 -35 -89.5t-91 -36.5t-91 36.5z" />
    <glyph glyph-name="gbreve" unicode="&#x11f;" horiz-adv-x="610" 
d="M175 -190q-52 24 -80.5 65t-31.5 91h82q5 -48 43.5 -77t104.5 -29q73 0 115 38t42 110v91q-60 -87 -175 -87q-64 0 -117 32t-84.5 88.5t-31.5 127.5t32.5 127.5t87 88.5t118.5 32q59 0 106.5 -24t69.5 -64v74h76v-484q0 -65 -31 -116t-85 -79.5t-121 -28.5q-68 0 -120 24
zM373 108q38 22 60.5 62t22.5 90q0 51 -22.5 90.5t-60.5 61.5t-83 22t-83 -22t-60.5 -61.5t-22.5 -90.5q0 -50 22.5 -90t60.5 -62t83 -22t83 22zM214 610.5q-35 36.5 -35 89.5h58q0 -32 18.5 -52t49.5 -20t49.5 20t18.5 52h58q0 -53 -35 -89.5t-91 -36.5t-91 36.5z" />
    <glyph glyph-name="uni0122" unicode="&#x122;" horiz-adv-x="749" 
d="M707 352v-27q0 -108 -41.5 -184.5t-115 -115.5t-166.5 -39q-89 0 -167.5 43.5t-126.5 126t-48 194.5q0 111 48 194t126.5 126.5t167.5 43.5q79 0 145.5 -28t110 -79.5t55.5 -121.5h-86q-18 70 -81 110.5t-144 40.5q-67 0 -125.5 -33.5t-94.5 -98t-36 -154.5t36 -154.5
t94.5 -98t125.5 -33.5q106 0 167 54t74 160h-218v74h300zM327 -212h11q28 0 41.5 12.5t15.5 42.5q-6 -3 -16 -3q-21 0 -34.5 14.5t-13.5 36.5q0 21 14.5 36t35.5 15q30 0 46 -21t16 -60q0 -117 -102 -117h-14v44z" />
    <glyph glyph-name="uni0123" unicode="&#x123;" horiz-adv-x="610" 
d="M175 -190q-52 24 -80.5 65t-31.5 91h82q5 -48 43.5 -77t104.5 -29q73 0 115 38t42 110v91q-60 -87 -175 -87q-64 0 -117 32t-84.5 88.5t-31.5 127.5t32.5 127.5t87 88.5t118.5 32q59 0 106.5 -24t69.5 -64v74h76v-484q0 -65 -31 -116t-85 -79.5t-121 -28.5q-68 0 -120 24
zM373 108q38 22 60.5 62t22.5 90q0 51 -22.5 90.5t-60.5 61.5t-83 22t-83 -22t-60.5 -61.5t-22.5 -90.5q0 -50 22.5 -90t60.5 -62t83 -22t83 22zM363 708h-11q-28 0 -41.5 -12.5t-15.5 -42.5q6 3 16 3q21 0 34.5 -14.5t13.5 -36.5q0 -21 -14.5 -36t-35.5 -15q-30 0 -46 21
t-16 60q0 117 102 117h14v-44z" />
    <glyph glyph-name="Imacron" unicode="&#x12a;" horiz-adv-x="262" 
d="M88 700h86v-700h-86v700zM10 876h242v-66h-242v66z" />
    <glyph glyph-name="imacron" unicode="&#x12b;" horiz-adv-x="238" 
d="M78 494h82v-494h-82v494zM-2 670h242v-66h-242v66z" />
    <glyph glyph-name="Iogonek" unicode="&#x12e;" horiz-adv-x="262" 
d="M189 -120v-67q-32 -13 -70 -13q-41 0 -67.5 25.5t-26.5 67.5q0 35 17.5 63.5t45.5 44.5v699h86v-700q-71 -39 -71 -84q0 -21 12 -33t31 -12q22 0 43 9z" />
    <glyph glyph-name="iogonek" unicode="&#x12f;" horiz-adv-x="238" 
d="M76 596q-18 18 -18 43q0 26 17.5 43.5t43.5 17.5t43.5 -17.5t17.5 -43.5t-17.5 -43.5t-43.5 -17.5q-25 0 -43 18zM101 -117q12 -12 31 -12q22 0 43 9v-67q-32 -13 -70 -13q-41 0 -67.5 25.5t-26.5 67.5q0 36 19 65.5t48 44.5v491h82v-494q-71 -39 -71 -84q0 -21 12 -33z
" />
    <glyph glyph-name="Idotaccent" unicode="&#x130;" horiz-adv-x="262" 
d="M88 700h86v-700h-86v700zM87.5 802q-17.5 18 -17.5 43q0 26 17.5 43.5t43.5 17.5t43.5 -17.5t17.5 -43.5t-17.5 -43.5t-43.5 -17.5t-43.5 18z" />
    <glyph glyph-name="dotlessi" unicode="&#x131;" horiz-adv-x="238" 
d="M78 494h82v-494h-82v494z" />
    <glyph glyph-name="uni0136" unicode="&#x136;" horiz-adv-x="572" 
d="M446 0l-272 333v-333h-86v700h86v-329l266 329h107l-282 -346l287 -354h-106zM248 -212h11q28 0 41.5 12.5t15.5 42.5q-6 -3 -16 -3q-21 0 -34.5 14.5t-13.5 36.5q0 21 14.5 36t35.5 15q30 0 46 -21t16 -60q0 -117 -102 -117h-14v44z" />
    <glyph glyph-name="uni0137" unicode="&#x137;" horiz-adv-x="482" 
d="M353 0l-193 242v-242h-82v700h82v-428l183 222h99l-196 -237l205 -257h-98zM183 -212h11q28 0 41.5 12.5t15.5 42.5q-6 -3 -16 -3q-21 0 -34.5 14.5t-13.5 36.5q0 21 14.5 36t35.5 15q30 0 46 -21t16 -60q0 -117 -102 -117h-14v44z" />
    <glyph glyph-name="Lacute" unicode="&#x139;" horiz-adv-x="554" 
d="M88 700h86v-622h328v-78h-414v700zM151 906h118l-102 -133h-72z" />
    <glyph glyph-name="lacute" unicode="&#x13a;" horiz-adv-x="238" 
d="M78 700h82v-700h-82v700zM139 906h118l-102 -133h-72z" />
    <glyph glyph-name="uni013B" unicode="&#x13b;" horiz-adv-x="554" 
d="M88 700h86v-622h328v-78h-414v700zM219 -212h11q28 0 41.5 12.5t15.5 42.5q-6 -3 -16 -3q-21 0 -34.5 14.5t-13.5 36.5q0 21 14.5 36t35.5 15q30 0 46 -21t16 -60q0 -117 -102 -117h-14v44z" />
    <glyph glyph-name="uni013C" unicode="&#x13c;" horiz-adv-x="238" 
d="M78 700h82v-700h-82v700zM61 -212h11q28 0 41.5 12.5t15.5 42.5q-6 -3 -16 -3q-21 0 -34.5 14.5t-13.5 36.5q0 21 14.5 36t35.5 15q30 0 46 -21t16 -60q0 -117 -102 -117h-14v44z" />
    <glyph glyph-name="Lcaron" unicode="&#x13d;" horiz-adv-x="554" 
d="M88 700h86v-622h328v-78h-414v700zM392 546h8q29 0 44.5 12.5t18.5 42.5q-6 -4 -19 -4q-23 0 -39 16.5t-16 41.5t16.5 42t41.5 17q31 0 49.5 -22t18.5 -67q0 -61 -30.5 -94t-80.5 -33h-12v48z" />
    <glyph glyph-name="lcaron" unicode="&#x13e;" horiz-adv-x="318" 
d="M78 700h82v-700h-82v700zM228 546h8q29 0 44.5 12.5t18.5 42.5q-6 -4 -19 -4q-23 0 -39 16.5t-16 41.5t16.5 42t41.5 17q31 0 49.5 -22t18.5 -67q0 -61 -30.5 -94t-80.5 -33h-12v48z" />
    <glyph glyph-name="Lslash" unicode="&#x141;" horiz-adv-x="562" 
d="M510 78v-78h-414v210l-82 -58v96l82 58v394h86v-333l142 101v-96l-142 -101v-193h328z" />
    <glyph glyph-name="lslash" unicode="&#x142;" horiz-adv-x="238" 
d="M224 320l-64 -48v-272h-82v210l-64 -48v98l64 48v392h82v-330l64 48v-98z" />
    <glyph glyph-name="Nacute" unicode="&#x143;" horiz-adv-x="730" 
d="M88 700h84l389 -569q-1 35 -1 94v475h82v-700h-83l-391 569q2 -35 2 -94v-475h-82v700zM385 906h118l-102 -133h-72z" />
    <glyph glyph-name="nacute" unicode="&#x144;" horiz-adv-x="557" 
d="M78 494h77v-69q19 35 59.5 59t96.5 24q79 0 124 -50t45 -131v-327h-82v308q0 59 -34.5 93.5t-84.5 34.5q-49 0 -84 -35t-35 -93v-308h-82v494zM299 700h118l-102 -133h-72z" />
    <glyph glyph-name="uni0145" unicode="&#x145;" horiz-adv-x="730" 
d="M88 700h84l389 -569q-1 35 -1 94v475h82v-700h-83l-391 569q2 -35 2 -94v-475h-82v700zM307 -212h11q28 0 41.5 12.5t15.5 42.5q-6 -3 -16 -3q-21 0 -34.5 14.5t-13.5 36.5q0 21 14.5 36t35.5 15q30 0 46 -21t16 -60q0 -117 -102 -117h-14v44z" />
    <glyph glyph-name="uni0146" unicode="&#x146;" horiz-adv-x="557" 
d="M78 494h77v-69q19 35 59.5 59t96.5 24q79 0 124 -50t45 -131v-327h-82v308q0 59 -34.5 93.5t-84.5 34.5q-49 0 -84 -35t-35 -93v-308h-82v494zM221 -212h11q28 0 41.5 12.5t15.5 42.5q-6 -3 -16 -3q-21 0 -34.5 14.5t-13.5 36.5q0 21 14.5 36t35.5 15q30 0 46 -21t16 -60
q0 -117 -102 -117h-14v44z" />
    <glyph glyph-name="Ncaron" unicode="&#x147;" horiz-adv-x="730" 
d="M88 700h84l389 -569q-1 35 -1 94v475h82v-700h-83l-391 569q2 -35 2 -94v-475h-82v700zM231 906h70l64 -69l64 69h70l-99 -133h-70z" />
    <glyph glyph-name="ncaron" unicode="&#x148;" horiz-adv-x="557" 
d="M78 494h77v-69q19 35 59.5 59t96.5 24q79 0 124 -50t45 -131v-327h-82v308q0 59 -34.5 93.5t-84.5 34.5q-49 0 -84 -35t-35 -93v-308h-82v494zM145 700h70l64 -69l64 69h70l-99 -133h-70z" />
    <glyph glyph-name="Omacron" unicode="&#x14c;" horiz-adv-x="784" 
d="M219 29.5q-80 43.5 -128.5 126t-48.5 194.5t48.5 194.5t128.5 126t173 43.5t173 -43.5t128.5 -126t48.5 -194.5t-48.5 -194.5t-128.5 -126t-173 -43.5t-173 43.5zM521.5 97.5q60.5 33.5 97.5 98t37 154.5t-37 154.5t-97.5 98t-129.5 33.5t-129.5 -33.5t-97.5 -98
t-37 -154.5t37 -154.5t97.5 -98t129.5 -33.5t129.5 33.5zM271 876h242v-66h-242v66z" />
    <glyph glyph-name="omacron" unicode="&#x14d;" horiz-adv-x="606" 
d="M169.5 20.5q-59.5 34.5 -93.5 94t-34 132.5t34 132.5t93.5 94t133.5 34.5t133.5 -34.5t93.5 -94t34 -132.5t-34 -132.5t-93.5 -94t-133.5 -34.5t-133.5 34.5zM393 83q41 23 65 65.5t24 98.5t-24 98.5t-65 65.5t-90 23t-90 -23t-65 -65.5t-24 -98.5t24 -98.5t65 -65.5
t90 -23t90 23zM182 670h242v-66h-242v66z" />
    <glyph glyph-name="Ohungarumlaut" unicode="&#x150;" horiz-adv-x="784" 
d="M219 29.5q-80 43.5 -128.5 126t-48.5 194.5t48.5 194.5t128.5 126t173 43.5t173 -43.5t128.5 -126t48.5 -194.5t-48.5 -194.5t-128.5 -126t-173 -43.5t-173 43.5zM521.5 97.5q60.5 33.5 97.5 98t37 154.5t-37 154.5t-97.5 98t-129.5 33.5t-129.5 -33.5t-97.5 -98
t-37 -154.5t37 -154.5t97.5 -98t129.5 -33.5t129.5 33.5zM314 906h110l-78 -133h-68zM474 906h110l-78 -133h-68z" />
    <glyph glyph-name="ohungarumlaut" unicode="&#x151;" horiz-adv-x="606" 
d="M169.5 20.5q-59.5 34.5 -93.5 94t-34 132.5t34 132.5t93.5 94t133.5 34.5t133.5 -34.5t93.5 -94t34 -132.5t-34 -132.5t-93.5 -94t-133.5 -34.5t-133.5 34.5zM393 83q41 23 65 65.5t24 98.5t-24 98.5t-65 65.5t-90 23t-90 -23t-65 -65.5t-24 -98.5t24 -98.5t65 -65.5
t90 -23t90 23zM225 700h110l-78 -133h-68zM385 700h110l-78 -133h-68z" />
    <glyph glyph-name="OE" unicode="&#x152;" horiz-adv-x="1118" 
d="M219 29.5q-80 43.5 -128.5 126t-48.5 194.5t48.5 194.5t128.5 126t173 43.5q87 0 157 -38t103 -97v121h411v-78h-325v-211h274v-78h-274v-255h328v-78h-414v124q-44 -69 -112.5 -103.5t-147.5 -34.5q-93 0 -173 43.5zM521.5 97.5q60.5 33.5 97.5 98t37 154.5t-37 154.5
t-97.5 98t-129.5 33.5t-129.5 -33.5t-97.5 -98t-37 -154.5t37 -154.5t97.5 -98t129.5 -33.5t129.5 33.5z" />
    <glyph glyph-name="oe" unicode="&#x153;" horiz-adv-x="1017" 
d="M169.5 20.5q-59.5 34.5 -93.5 94t-34 132.5t34 132.5t93.5 94t133.5 34.5q70 0 128 -31t91 -83q31 51 87 82.5t121 31.5q73 0 128 -30.5t85 -86.5t30 -131v-26h-409q0 -54 22.5 -94t60.5 -61t84 -21q59 0 99 29t56 76h78q-22 -80 -83.5 -128.5t-149.5 -48.5
q-71 0 -125 31.5t-87 89.5q-35 -57 -90.5 -89t-125.5 -32q-74 0 -133.5 34.5zM893 300q-8 64 -52 101t-112 37q-61 0 -104 -36.5t-56 -101.5h324zM393 83q41 23 65 65.5t24 98.5t-24 98.5t-65 65.5t-90 23t-90 -23t-65 -65.5t-24 -98.5t24 -98.5t65 -65.5t90 -23t90 23z" />
    <glyph glyph-name="Racute" unicode="&#x154;" horiz-adv-x="615" 
d="M486 0l-144 280h-168v-280h-86v700h239q67 0 119 -27t81 -74.5t29 -108.5q0 -67 -34.5 -117t-95.5 -74l153 -299h-93zM322 356q70 0 109 35.5t39 98.5t-39 98.5t-109 35.5h-148v-268h148zM328 906h118l-102 -133h-72z" />
    <glyph glyph-name="racute" unicode="&#x155;" horiz-adv-x="375" 
d="M336 494v-76h-99q-77 0 -77 -78v-340h-82v494h76v-70q8 35 32 52.5t59 17.5h91zM233 700h118l-102 -133h-72z" />
    <glyph glyph-name="uni0156" unicode="&#x156;" horiz-adv-x="615" 
d="M486 0l-144 280h-168v-280h-86v700h239q67 0 119 -27t81 -74.5t29 -108.5q0 -67 -34.5 -117t-95.5 -74l153 -299h-93zM322 356q70 0 109 35.5t39 98.5t-39 98.5t-109 35.5h-148v-268h148zM257 -212h11q28 0 41.5 12.5t15.5 42.5q-6 -3 -16 -3q-21 0 -34.5 14.5
t-13.5 36.5q0 21 14.5 36t35.5 15q30 0 46 -21t16 -60q0 -117 -102 -117h-14v44z" />
    <glyph glyph-name="uni0157" unicode="&#x157;" horiz-adv-x="375" 
d="M336 494v-76h-99q-77 0 -77 -78v-340h-82v494h76v-70q8 35 32 52.5t59 17.5h91zM61 -212h11q28 0 41.5 12.5t15.5 42.5q-6 -3 -16 -3q-21 0 -34.5 14.5t-13.5 36.5q0 21 14.5 36t35.5 15q30 0 46 -21t16 -60q0 -117 -102 -117h-14v44z" />
    <glyph glyph-name="Rcaron" unicode="&#x158;" horiz-adv-x="615" 
d="M486 0l-144 280h-168v-280h-86v700h239q67 0 119 -27t81 -74.5t29 -108.5q0 -67 -34.5 -117t-95.5 -74l153 -299h-93zM322 356q70 0 109 35.5t39 98.5t-39 98.5t-109 35.5h-148v-268h148zM174 906h70l64 -69l64 69h70l-99 -133h-70z" />
    <glyph glyph-name="rcaron" unicode="&#x159;" horiz-adv-x="375" 
d="M336 494v-76h-99q-77 0 -77 -78v-340h-82v494h76v-70q8 35 32 52.5t59 17.5h91zM79 700h70l64 -69l64 69h70l-99 -133h-70z" />
    <glyph glyph-name="Sacute" unicode="&#x15a;" horiz-adv-x="567" 
d="M163.5 13.5q-52.5 27.5 -81 77.5t-28.5 114h86q0 -64 42.5 -102.5t106.5 -38.5q65 0 103 35t38 96q0 46 -34.5 74.5t-97.5 49.5l-69 23q-76 25 -118.5 71.5t-42.5 114.5q0 54 28 96.5t76.5 66t109.5 23.5q68 0 117 -24.5t74.5 -68.5t25.5 -100h-85q0 51 -37 84t-95 33
q-57 0 -92.5 -29.5t-35.5 -70.5q0 -82 114 -121l95 -33q153 -54 153 -183q0 -59 -27.5 -108t-79.5 -78t-124 -29q-69 0 -121.5 27.5zM304 906h118l-102 -133h-72z" />
    <glyph glyph-name="sacute" unicode="&#x15b;" horiz-adv-x="455" 
d="M95.5 34.5q-49.5 48.5 -49.5 125.5h82q0 -44 27.5 -73t74.5 -29q43 0 71 22t28 57q0 31 -19 49t-65 31l-73 21q-53 16 -83.5 50t-30.5 83q0 62 49 99.5t121 37.5q49 0 86.5 -19t58.5 -52t21 -74h-78q0 32 -25.5 53.5t-62.5 21.5q-39 0 -64.5 -17t-25.5 -46
q0 -27 19.5 -44.5t62.5 -30.5l73 -22q118 -35 118 -134q0 -45 -23.5 -81t-65 -56.5t-92.5 -20.5q-85 0 -134.5 48.5zM248 700h118l-102 -133h-72z" />
    <glyph glyph-name="Scedilla" unicode="&#x15e;" horiz-adv-x="567" 
d="M491 97.5q-25 -47.5 -73.5 -77.5t-114.5 -33l-13 -42q18 2 28 2q35 0 58 -23t23 -61q0 -47 -30.5 -69t-76.5 -22q-42 0 -69 10v52q28 -10 57 -10q56 0 56 40q0 18 -13.5 28.5t-35.5 10.5h-64v20l22 66q-88 11 -139.5 70t-51.5 146h86q0 -64 42.5 -102.5t106.5 -38.5
q65 0 103 35t38 96q0 46 -34.5 74.5t-97.5 49.5l-69 23q-76 25 -118.5 71.5t-42.5 114.5q0 54 28 96.5t76.5 66t109.5 23.5q68 0 117 -24.5t74.5 -68.5t25.5 -100h-85q0 51 -37 84t-95 33q-57 0 -92.5 -29.5t-35.5 -70.5q0 -82 114 -121l95 -33q153 -54 153 -183
q0 -56 -25 -103.5z" />
    <glyph glyph-name="scedilla" unicode="&#x15f;" horiz-adv-x="455" 
d="M364.5 35.5q-46.5 -43.5 -117.5 -48.5l-13 -42q18 2 28 2q35 0 58 -23t23 -61q0 -47 -30.5 -69t-76.5 -22q-42 0 -69 10v52q28 -10 57 -10q56 0 56 40q0 18 -13.5 28.5t-35.5 10.5h-64v20l23 66q-68 11 -106 57.5t-38 113.5h82q0 -44 27.5 -73t74.5 -29q43 0 71 22t28 57
q0 31 -19 49t-65 31l-73 21q-53 16 -83.5 50t-30.5 83q0 62 49 99.5t121 37.5q49 0 86.5 -19t58.5 -52t21 -74h-78q0 32 -25.5 53.5t-62.5 21.5q-39 0 -64.5 -17t-25.5 -46q0 -27 19.5 -44.5t62.5 -30.5l73 -22q118 -35 118 -134q0 -65 -46.5 -108.5z" />
    <glyph glyph-name="Scaron" unicode="&#x160;" horiz-adv-x="567" 
d="M163.5 13.5q-52.5 27.5 -81 77.5t-28.5 114h86q0 -64 42.5 -102.5t106.5 -38.5q65 0 103 35t38 96q0 46 -34.5 74.5t-97.5 49.5l-69 23q-76 25 -118.5 71.5t-42.5 114.5q0 54 28 96.5t76.5 66t109.5 23.5q68 0 117 -24.5t74.5 -68.5t25.5 -100h-85q0 51 -37 84t-95 33
q-57 0 -92.5 -29.5t-35.5 -70.5q0 -82 114 -121l95 -33q153 -54 153 -183q0 -59 -27.5 -108t-79.5 -78t-124 -29q-69 0 -121.5 27.5zM150 906h70l64 -69l64 69h70l-99 -133h-70z" />
    <glyph glyph-name="scaron" unicode="&#x161;" horiz-adv-x="455" 
d="M95.5 34.5q-49.5 48.5 -49.5 125.5h82q0 -44 27.5 -73t74.5 -29q43 0 71 22t28 57q0 31 -19 49t-65 31l-73 21q-53 16 -83.5 50t-30.5 83q0 62 49 99.5t121 37.5q49 0 86.5 -19t58.5 -52t21 -74h-78q0 32 -25.5 53.5t-62.5 21.5q-39 0 -64.5 -17t-25.5 -46
q0 -27 19.5 -44.5t62.5 -30.5l73 -22q118 -35 118 -134q0 -45 -23.5 -81t-65 -56.5t-92.5 -20.5q-85 0 -134.5 48.5zM94 700h70l64 -69l64 69h70l-99 -133h-70z" />
    <glyph glyph-name="uni0162" unicode="&#x162;" horiz-adv-x="590" 
d="M318 0l-17 -55q18 2 28 2q35 0 58 -23t23 -61q0 -47 -30.5 -69t-76.5 -22q-42 0 -69 10v52q28 -10 57 -10q56 0 56 40q0 18 -13.5 28.5t-35.5 10.5h-64v20l26 77h-8v622h-212v78h510v-78h-212v-622h-20z" />
    <glyph glyph-name="uni0163" unicode="&#x163;" horiz-adv-x="342" 
d="M282 -76q23 -23 23 -61q0 -47 -30.5 -69t-76.5 -22q-42 0 -69 10v52q28 -10 57 -10q56 0 56 40q0 18 -13.5 28.5t-35.5 10.5h-64v20l31 90q-30 15 -46 45t-16 72v296h-73v68h73v126h82v-126h117v-68h-117v-289q0 -31 14.5 -46t44.5 -15h58v-76h-76h-8l-17 -55q18 2 28 2
q35 0 58 -23z" />
    <glyph glyph-name="Tcaron" unicode="&#x164;" horiz-adv-x="590" 
d="M550 622h-212v-622h-86v622h-212v78h510v-78zM161 906h70l64 -69l64 69h70l-99 -133h-70z" />
    <glyph glyph-name="tcaron" unicode="&#x165;" horiz-adv-x="342" 
d="M180 426v-289q0 -31 14.5 -46t44.5 -15h58v-76h-76q-59 0 -91 34.5t-32 95.5v296h-73v68h73v126h82v-126h117v-68h-117zM234 596h8q29 0 44.5 12.5t18.5 42.5q-6 -4 -19 -4q-23 0 -39 16.5t-16 41.5t16.5 42t41.5 17q31 0 49.5 -22t18.5 -67q0 -61 -30.5 -94t-80.5 -33
h-12v48z" />
    <glyph glyph-name="Umacron" unicode="&#x16a;" horiz-adv-x="656" 
d="M202.5 15.5q-56.5 29.5 -89.5 88t-33 141.5v455h84v-466q0 -50 21.5 -88.5t59 -60t83.5 -21.5t83.5 21.5t59 60t21.5 88.5v466h84v-455q0 -83 -33 -141.5t-89.5 -88t-125.5 -29.5t-125.5 29.5zM207 876h242v-66h-242v66z" />
    <glyph glyph-name="umacron" unicode="&#x16b;" horiz-adv-x="557" 
d="M123.5 38q-46.5 52 -46.5 135v321h82v-308q0 -59 33.5 -93.5t85.5 -34.5q51 0 85 34.5t34 93.5v308h82v-494h-77v69q-19 -36 -58.5 -59.5t-97.5 -23.5q-76 0 -122.5 52zM157 670h242v-66h-242v66z" />
    <glyph glyph-name="Uring" unicode="&#x16e;" horiz-adv-x="656" 
d="M202.5 15.5q-56.5 29.5 -89.5 88t-33 141.5v455h84v-466q0 -50 21.5 -88.5t59 -60t83.5 -21.5t83.5 21.5t59 60t21.5 88.5v466h84v-455q0 -83 -33 -141.5t-89.5 -88t-125.5 -29.5t-125.5 29.5zM243 801.5q-35 35.5 -35 84.5q0 50 35 85t85 35q49 0 84.5 -35t35.5 -85
q0 -49 -35.5 -84.5t-84.5 -35.5q-50 0 -85 35.5zM377.5 836.5q20.5 20.5 20.5 49.5t-20.5 49.5t-49.5 20.5t-49.5 -20.5t-20.5 -49.5t20.5 -49.5t49.5 -20.5t49.5 20.5z" />
    <glyph glyph-name="uring" unicode="&#x16f;" horiz-adv-x="557" 
d="M123.5 38q-46.5 52 -46.5 135v321h82v-308q0 -59 33.5 -93.5t85.5 -34.5q51 0 85 34.5t34 93.5v308h82v-494h-77v69q-19 -36 -58.5 -59.5t-97.5 -23.5q-76 0 -122.5 52zM193 595.5q-35 35.5 -35 84.5q0 50 35 85t85 35q49 0 84.5 -35t35.5 -85q0 -49 -35.5 -84.5
t-84.5 -35.5q-50 0 -85 35.5zM327.5 630.5q20.5 20.5 20.5 49.5t-20.5 49.5t-49.5 20.5t-49.5 -20.5t-20.5 -49.5t20.5 -49.5t49.5 -20.5t49.5 20.5z" />
    <glyph glyph-name="Uhungarumlaut" unicode="&#x170;" horiz-adv-x="656" 
d="M202.5 15.5q-56.5 29.5 -89.5 88t-33 141.5v455h84v-466q0 -50 21.5 -88.5t59 -60t83.5 -21.5t83.5 21.5t59 60t21.5 88.5v466h84v-455q0 -83 -33 -141.5t-89.5 -88t-125.5 -29.5t-125.5 29.5zM250 906h110l-78 -133h-68zM410 906h110l-78 -133h-68z" />
    <glyph glyph-name="uhungarumlaut" unicode="&#x171;" horiz-adv-x="557" 
d="M123.5 38q-46.5 52 -46.5 135v321h82v-308q0 -59 33.5 -93.5t85.5 -34.5q51 0 85 34.5t34 93.5v308h82v-494h-77v69q-19 -36 -58.5 -59.5t-97.5 -23.5q-76 0 -122.5 52zM200 700h110l-78 -133h-68zM360 700h110l-78 -133h-68z" />
    <glyph glyph-name="Uogonek" unicode="&#x172;" horiz-adv-x="656" 
d="M576 700v-455q0 -95 -43.5 -158t-115.5 -87q-71 -39 -71 -84q0 -21 12 -33t31 -12q22 0 43 9v-67q-32 -13 -70 -13q-41 0 -67.5 25.5t-26.5 67.5q0 28 12 52.5t31 40.5q-66 4 -118 35t-82.5 88t-30.5 136v455h84v-466q0 -50 21.5 -88.5t59 -60t83.5 -21.5t83.5 21.5
t59 60t21.5 88.5v466h84z" />
    <glyph glyph-name="uogonek" unicode="&#x173;" horiz-adv-x="557" 
d="M494 -120v-67q-32 -13 -70 -13q-41 0 -67.5 25.5t-26.5 67.5q0 38 20.5 68.5t51.5 43.5v64q-19 -36 -58.5 -59.5t-97.5 -23.5q-76 0 -122.5 52t-46.5 135v321h82v-308q0 -59 33.5 -93.5t85.5 -34.5q51 0 85 34.5t34 93.5v308h82v-494q-71 -39 -71 -84q0 -21 12 -33
t31 -12q22 0 43 9z" />
    <glyph glyph-name="Ydieresis" unicode="&#x178;" horiz-adv-x="560" 
d="M237 291l-218 409h98l138 -269q15 -30 25 -59q10 29 25 59l138 269h98l-218 -409v-291h-86v291zM161 806q-16 16 -16 39q0 24 16 39.5t39 15.5q24 0 39.5 -15.5t15.5 -39.5q0 -23 -15.5 -39t-39.5 -16q-23 0 -39 16zM321 806q-16 16 -16 39q0 24 16 39.5t39 15.5
t39 -15.5t16 -39.5q0 -23 -16 -39t-39 -16t-39 16z" />
    <glyph glyph-name="Zacute" unicode="&#x179;" horiz-adv-x="605" 
d="M49 78l389 544h-371v78h469v-78l-390 -544h408v-78h-505v78zM323 906h118l-102 -133h-72z" />
    <glyph glyph-name="zacute" unicode="&#x17a;" horiz-adv-x="480" 
d="M44 68l287 358h-279v68h371v-68l-286 -358h299v-68h-392v68zM260 700h118l-102 -133h-72z" />
    <glyph glyph-name="Zdotaccent" unicode="&#x17b;" horiz-adv-x="605" 
d="M49 78l389 544h-371v78h469v-78l-390 -544h408v-78h-505v78zM259.5 802q-17.5 18 -17.5 43q0 26 17.5 43.5t43.5 17.5t43.5 -17.5t17.5 -43.5t-17.5 -43.5t-43.5 -17.5t-43.5 18z" />
    <glyph glyph-name="zdotaccent" unicode="&#x17c;" horiz-adv-x="480" 
d="M44 68l287 358h-279v68h371v-68l-286 -358h299v-68h-392v68zM196.5 596q-17.5 18 -17.5 43q0 26 17.5 43.5t43.5 17.5t43.5 -17.5t17.5 -43.5t-17.5 -43.5t-43.5 -17.5t-43.5 18z" />
    <glyph glyph-name="Zcaron" unicode="&#x17d;" horiz-adv-x="605" 
d="M49 78l389 544h-371v78h469v-78l-390 -544h408v-78h-505v78zM169 906h70l64 -69l64 69h70l-99 -133h-70z" />
    <glyph glyph-name="zcaron" unicode="&#x17e;" horiz-adv-x="480" 
d="M44 68l287 358h-279v68h371v-68l-286 -358h299v-68h-392v68zM106 700h70l64 -69l64 69h70l-99 -133h-70z" />
    <glyph glyph-name="florin" unicode="&#x192;" horiz-adv-x="508" 
d="M350 599q-22 -23 -27 -67l-13 -109h148v-72h-157l-37 -315q-9 -74 -49 -109t-117 -35h-75v78h65q49 0 69.5 20t26.5 70l35 291h-125v72h133l15 123q9 72 48.5 113t110.5 41h81v-78h-75q-35 0 -57 -23z" />
    <glyph glyph-name="uni0218" unicode="&#x218;" horiz-adv-x="567" 
d="M163.5 13.5q-52.5 27.5 -81 77.5t-28.5 114h86q0 -64 42.5 -102.5t106.5 -38.5q65 0 103 35t38 96q0 46 -34.5 74.5t-97.5 49.5l-69 23q-76 25 -118.5 71.5t-42.5 114.5q0 54 28 96.5t76.5 66t109.5 23.5q68 0 117 -24.5t74.5 -68.5t25.5 -100h-85q0 51 -37 84t-95 33
q-57 0 -92.5 -29.5t-35.5 -70.5q0 -82 114 -121l95 -33q153 -54 153 -183q0 -59 -27.5 -108t-79.5 -78t-124 -29q-69 0 -121.5 27.5zM226 -212h11q28 0 41.5 12.5t15.5 42.5q-6 -3 -16 -3q-21 0 -34.5 14.5t-13.5 36.5q0 21 14.5 36t35.5 15q30 0 46 -21t16 -60
q0 -117 -102 -117h-14v44z" />
    <glyph glyph-name="uni0219" unicode="&#x219;" horiz-adv-x="455" 
d="M95.5 34.5q-49.5 48.5 -49.5 125.5h82q0 -44 27.5 -73t74.5 -29q43 0 71 22t28 57q0 31 -19 49t-65 31l-73 21q-53 16 -83.5 50t-30.5 83q0 62 49 99.5t121 37.5q49 0 86.5 -19t58.5 -52t21 -74h-78q0 32 -25.5 53.5t-62.5 21.5q-39 0 -64.5 -17t-25.5 -46
q0 -27 19.5 -44.5t62.5 -30.5l73 -22q118 -35 118 -134q0 -45 -23.5 -81t-65 -56.5t-92.5 -20.5q-85 0 -134.5 48.5zM170 -212h11q28 0 41.5 12.5t15.5 42.5q-6 -3 -16 -3q-21 0 -34.5 14.5t-13.5 36.5q0 21 14.5 36t35.5 15q30 0 46 -21t16 -60q0 -117 -102 -117h-14v44z
" />
    <glyph glyph-name="uni021A" unicode="&#x21a;" horiz-adv-x="590" 
d="M550 622h-212v-622h-86v622h-212v78h510v-78zM237 -212h11q28 0 41.5 12.5t15.5 42.5q-6 -3 -16 -3q-21 0 -34.5 14.5t-13.5 36.5q0 21 14.5 36t35.5 15q30 0 46 -21t16 -60q0 -117 -102 -117h-14v44z" />
    <glyph glyph-name="uni021B" unicode="&#x21b;" horiz-adv-x="342" 
d="M180 426v-289q0 -31 14.5 -46t44.5 -15h58v-76h-76q-59 0 -91 34.5t-32 95.5v296h-73v68h73v126h82v-126h117v-68h-117zM132 -212h11q28 0 41.5 12.5t15.5 42.5q-6 -3 -16 -3q-21 0 -34.5 14.5t-13.5 36.5q0 21 14.5 36t35.5 15q30 0 46 -21t16 -60q0 -117 -102 -117h-14
v44z" />
    <glyph glyph-name="circumflex" unicode="&#x2c6;" 
d="M119 700h70l99 -133h-70l-64 69l-64 -69h-70z" />
    <glyph glyph-name="caron" unicode="&#x2c7;" 
d="M20 700h70l64 -69l64 69h70l-99 -133h-70z" />
    <glyph glyph-name="uni02C9" unicode="&#x2c9;" horiz-adv-x="342" 
d="M50 670h242v-66h-242v66z" />
    <glyph glyph-name="breve" unicode="&#x2d8;" 
d="M51 610.5q-35 36.5 -35 89.5h58q0 -32 18.5 -52t49.5 -20t49.5 20t18.5 52h58q0 -53 -35 -89.5t-91 -36.5t-91 36.5z" />
    <glyph glyph-name="dotaccent" unicode="&#x2d9;" 
d="M75.5 596q-17.5 18 -17.5 43q0 26 17.5 43.5t43.5 17.5t43.5 -17.5t17.5 -43.5t-17.5 -43.5t-43.5 -17.5t-43.5 18z" />
    <glyph glyph-name="ring" unicode="&#x2da;" 
d="M70 595.5q-35 35.5 -35 84.5q0 50 35 85t85 35q49 0 84.5 -35t35.5 -85q0 -49 -35.5 -84.5t-84.5 -35.5q-50 0 -85 35.5zM204.5 630.5q20.5 20.5 20.5 49.5t-20.5 49.5t-49.5 20.5t-49.5 -20.5t-20.5 -49.5t20.5 -49.5t49.5 -20.5t49.5 20.5z" />
    <glyph glyph-name="ogonek" unicode="&#x2db;" 
d="M66.5 -174.5q-26.5 25.5 -26.5 67.5q0 39 22.5 70.5t55.5 44.5l71 -8q-71 -39 -71 -84q0 -21 12 -33t31 -12q22 0 43 9v-67q-33 -13 -70 -13q-41 0 -67.5 25.5z" />
    <glyph glyph-name="tilde" unicode="&#x2dc;" 
d="M262 580q-20 9 -42 25q-17 12 -28.5 18t-23.5 6q-21 0 -33.5 -14.5t-12.5 -35.5h-72q0 53 28 87t78 34q26 0 46 -9t42 -25q17 -12 28.5 -18t23.5 -6q21 0 33.5 14.5t12.5 35.5h72q0 -53 -28 -87t-78 -34q-26 0 -46 9z" />
    <glyph glyph-name="hungarumlaut" unicode="&#x2dd;" 
d="M76 700h110l-78 -133h-68zM236 700h110l-78 -133h-68z" />
    <glyph glyph-name="gravecomb" unicode="&#x300;" horiz-adv-x="0" 
d="M-214 700h118l56 -133h-72z" />
    <glyph glyph-name="acutecomb" unicode="&#x301;" horiz-adv-x="0" 
d="M-158 700h118l-102 -133h-72z" />
    <glyph glyph-name="uni0302" unicode="&#x302;" horiz-adv-x="0" 
d="M-189 700h70l99 -133h-70l-64 69l-64 -69h-70z" />
    <glyph glyph-name="tildecomb" unicode="&#x303;" horiz-adv-x="0" 
d="M-202 580q-20 9 -42 25q-17 12 -28.5 18t-23.5 6q-21 0 -33.5 -14.5t-12.5 -35.5h-72q0 53 28 87t78 34q26 0 46 -9t42 -25q17 -12 28.5 -18t23.5 -6q21 0 33.5 14.5t12.5 35.5h72q0 -53 -28 -87t-78 -34q-26 0 -46 9z" />
    <glyph glyph-name="uni0304" unicode="&#x304;" horiz-adv-x="0" 
d="M-292 670h242v-66h-242v66z" />
    <glyph glyph-name="uni0306" unicode="&#x306;" horiz-adv-x="0" 
d="M-233 610.5q-35 36.5 -35 89.5h58q0 -32 18.5 -52t49.5 -20t49.5 20t18.5 52h58q0 -53 -35 -89.5t-91 -36.5t-91 36.5z" />
    <glyph glyph-name="uni0307" unicode="&#x307;" horiz-adv-x="0" 
d="M-162.5 596q-17.5 18 -17.5 43q0 26 17.5 43.5t43.5 17.5t43.5 -17.5t17.5 -43.5t-17.5 -43.5t-43.5 -17.5t-43.5 18z" />
    <glyph glyph-name="uni0308" unicode="&#x308;" horiz-adv-x="0" 
d="M-280 600q-16 16 -16 39q0 24 16 39.5t39 15.5q24 0 39.5 -15.5t15.5 -39.5q0 -23 -15.5 -39t-39.5 -16q-23 0 -39 16zM-120 600q-16 16 -16 39q0 24 16 39.5t39 15.5t39 -15.5t16 -39.5q0 -23 -16 -39t-39 -16t-39 16z" />
    <glyph glyph-name="uni030A" unicode="&#x30a;" horiz-adv-x="0" 
d="M-240 595.5q-35 35.5 -35 84.5q0 50 35 85t85 35q49 0 84.5 -35t35.5 -85q0 -49 -35.5 -84.5t-84.5 -35.5q-50 0 -85 35.5zM-105.5 630.5q20.5 20.5 20.5 49.5t-20.5 49.5t-49.5 20.5t-49.5 -20.5t-20.5 -49.5t20.5 -49.5t49.5 -20.5t49.5 20.5z" />
    <glyph glyph-name="uni030B" unicode="&#x30b;" horiz-adv-x="0" 
d="M-310 700h110l-78 -133h-68zM-150 700h110l-78 -133h-68z" />
    <glyph glyph-name="uni030C" unicode="&#x30c;" horiz-adv-x="0" 
d="M-288 700h70l64 -69l64 69h70l-99 -133h-70z" />
    <glyph glyph-name="uni0312" unicode="&#x312;" horiz-adv-x="0" 
d="M-66 708h-11q-28 0 -41.5 -12.5t-15.5 -42.5q6 3 16 3q21 0 34.5 -14.5t13.5 -36.5q0 -21 -14.5 -36t-35.5 -15q-30 0 -46 21t-16 60q0 117 102 117h14v-44z" />
    <glyph glyph-name="uni0326" unicode="&#x326;" horiz-adv-x="0" 
d="M-182 -212h11q28 0 41.5 12.5t15.5 42.5q-6 -3 -16 -3q-21 0 -34.5 14.5t-13.5 36.5q0 21 14.5 36t35.5 15q30 0 46 -21t16 -60q0 -117 -102 -117h-14v44z" />
    <glyph glyph-name="uni0327" unicode="&#x327;" horiz-adv-x="0" 
d="M-43 -76q23 -23 23 -61q0 -47 -30.5 -69t-76.5 -22q-42 0 -69 10v52q28 -10 57 -10q56 0 56 40q0 18 -13.5 28.5t-35.5 10.5h-64v20l35 102h57l-25 -80q18 2 28 2q35 0 58 -23z" />
    <glyph glyph-name="uni0328" unicode="&#x328;" horiz-adv-x="0" 
d="M-157.5 -174.5q-26.5 25.5 -26.5 67.5q0 39 22.5 70.5t55.5 44.5l71 -8q-71 -39 -71 -84q0 -21 12 -33t31 -12q22 0 43 9v-67q-33 -13 -70 -13q-41 0 -67.5 25.5z" />
    <glyph glyph-name="pi" unicode="&#x3c0;" horiz-adv-x="642" 
d="M480 426v-289q0 -31 14.5 -46t44.5 -15h58v-76h-76q-59 0 -91 34.5t-32 95.5v296h-186v-426h-82v426h-105v68h572v-68h-117z" />
    <glyph glyph-name="endash" unicode="&#x2013;" horiz-adv-x="421" 
d="M15 370h391v-70h-391v70z" />
    <glyph glyph-name="emdash" unicode="&#x2014;" horiz-adv-x="668" 
d="M15 370h638v-70h-638v70z" />
    <glyph glyph-name="quoteleft" unicode="&#x2018;" horiz-adv-x="256" 
d="M83.5 513.5q-17.5 24.5 -17.5 68.5q0 65 28.5 98.5t81.5 33.5h12v-48h-8q-29 0 -45 -15t-19 -49q6 4 19 4q23 0 39 -16.5t16 -41.5t-16.5 -42t-41.5 -17q-31 0 -48.5 24.5z" />
    <glyph glyph-name="quoteright" unicode="&#x2019;" horiz-adv-x="256" 
d="M68 537h8q29 0 45 15t19 49q-6 -4 -19 -4q-23 0 -39 16.5t-16 41.5t16.5 42t41.5 17q31 0 48.5 -24.5t17.5 -68.5q0 -65 -28.5 -98.5t-81.5 -33.5h-12v48z" />
    <glyph glyph-name="quotesinglbase" unicode="&#x201a;" horiz-adv-x="256" 
d="M68 -64h8q29 0 45 15t19 49q-6 -4 -19 -4q-23 0 -39 16.5t-16 41.5t16.5 42t41.5 17q31 0 48.5 -24.5t17.5 -68.5q0 -65 -28.5 -98.5t-81.5 -33.5h-12v48z" />
    <glyph glyph-name="quotedblleft" unicode="&#x201c;" horiz-adv-x="427" 
d="M254.5 513.5q-17.5 24.5 -17.5 68.5q0 65 28.5 98.5t81.5 33.5h12v-48h-8q-29 0 -45 -15t-19 -49q6 4 19 4q23 0 39 -16.5t16 -41.5t-16.5 -42t-41.5 -17q-31 0 -48.5 24.5zM83.5 513.5q-17.5 24.5 -17.5 68.5q0 65 28.5 98.5t81.5 33.5h12v-48h-8q-29 0 -45 -15t-19 -49
q6 4 19 4q23 0 39 -16.5t16 -41.5t-16.5 -42t-41.5 -17q-31 0 -48.5 24.5z" />
    <glyph glyph-name="quotedblright" unicode="&#x201d;" horiz-adv-x="427" 
d="M239 537h8q29 0 45 15t19 49q-6 -4 -19 -4q-23 0 -39 16.5t-16 41.5t16.5 42t41.5 17q31 0 48.5 -24.5t17.5 -68.5q0 -65 -28.5 -98.5t-81.5 -33.5h-12v48zM68 537h8q29 0 45 15t19 49q-6 -4 -19 -4q-23 0 -39 16.5t-16 41.5t16.5 42t41.5 17q31 0 48.5 -24.5t17.5 -68.5
q0 -65 -28.5 -98.5t-81.5 -33.5h-12v48z" />
    <glyph glyph-name="quotedblbase" unicode="&#x201e;" horiz-adv-x="427" 
d="M68 -64h8q29 0 45 15t19 49q-6 -4 -19 -4q-23 0 -39 16.5t-16 41.5t16.5 42t41.5 17q31 0 48.5 -24.5t17.5 -68.5q0 -65 -28.5 -98.5t-81.5 -33.5h-12v48zM239 -64h8q29 0 45 15t19 49q-6 -4 -19 -4q-23 0 -39 16.5t-16 41.5t16.5 42t41.5 17q31 0 48.5 -24.5t17.5 -68.5
q0 -65 -28.5 -98.5t-81.5 -33.5h-12v48z" />
    <glyph glyph-name="dagger" unicode="&#x2020;" horiz-adv-x="314" 
d="M274 552h-82v-266h-70v266h-82v66h82v82h70v-82h82v-66z" />
    <glyph glyph-name="daggerdbl" unicode="&#x2021;" horiz-adv-x="314" 
d="M192 552v-118h82v-66h-82v-82h-70v82h-82v66h82v118h-82v66h82v82h70v-82h82v-66h-82z" />
    <glyph glyph-name="bullet" unicode="&#x2022;" horiz-adv-x="380" 
d="M101.5 221.5q-36.5 36.5 -36.5 88.5t36.5 88.5t88.5 36.5t88.5 -36.5t36.5 -88.5t-36.5 -88.5t-88.5 -36.5t-88.5 36.5z" />
    <glyph glyph-name="ellipsis" unicode="&#x2026;" horiz-adv-x="708" 
d="M312.5 8q-16.5 17 -16.5 41q0 25 16.5 41.5t41.5 16.5t41.5 -16.5t16.5 -41.5q0 -24 -16.5 -41t-41.5 -17t-41.5 17zM542.5 8q-16.5 17 -16.5 41q0 25 16.5 41.5t41.5 16.5t41.5 -16.5t16.5 -41.5q0 -24 -16.5 -41t-41.5 -17t-41.5 17zM82.5 8q-16.5 17 -16.5 41
q0 25 16.5 41.5t41.5 16.5t41.5 -16.5t16.5 -41.5q0 -24 -16.5 -41t-41.5 -17t-41.5 17z" />
    <glyph glyph-name="perthousand" unicode="&#x2030;" horiz-adv-x="1048" 
d="M362 455q-22 -39 -61.5 -62t-90.5 -23t-90.5 23t-61.5 62t-22 87q0 47 22 86.5t61.5 62.5t90.5 23t90.5 -23t61.5 -62.5t22 -86.5q0 -48 -22 -87zM135.5 464.5q29.5 -30.5 74.5 -30.5t74.5 30.5t29.5 77.5t-29.5 77.5t-74.5 30.5t-74.5 -30.5t-29.5 -77.5t29.5 -77.5z
M682 605l-552 -552l-42 42l552 552zM928.5 307q39.5 -23 61.5 -62.5t22 -86.5q0 -48 -22 -87t-61.5 -62t-90.5 -23q-44 0 -80 17t-59 48q-23 -31 -59 -48t-80 -17q-51 0 -90.5 23t-61.5 62t-22 87q0 47 22 86.5t61.5 62.5t90.5 23q44 0 80 -17.5t59 -47.5q23 30 59 47.5
t80 17.5q51 0 90.5 -23zM634.5 80.5q29.5 30.5 29.5 77.5t-29.5 77.5t-74.5 30.5t-74.5 -30.5t-29.5 -77.5t29.5 -77.5t74.5 -30.5t74.5 30.5zM912.5 80.5q29.5 30.5 29.5 77.5t-29.5 77.5t-74.5 30.5t-74.5 -30.5t-29.5 -77.5t29.5 -77.5t74.5 -30.5t74.5 30.5z" />
    <glyph glyph-name="guilsinglleft" unicode="&#x2039;" horiz-adv-x="306" 
d="M39 286v8l142 203h91l-141 -207l141 -207h-91z" />
    <glyph glyph-name="guilsinglright" unicode="&#x203a;" horiz-adv-x="306" 
d="M175 290l-141 207h91l142 -203v-8l-142 -203h-91z" />
    <glyph glyph-name="fraction" unicode="&#x2044;" horiz-adv-x="240" 
d="M-177 95l552 552l42 -42l-552 -552z" />
    <glyph glyph-name="uni2070" unicode="&#x2070;" horiz-adv-x="324" 
d="M63.5 390.5q-37.5 47.5 -37.5 134.5t37.5 134.5t98.5 47.5t98.5 -47.5t37.5 -134.5t-37.5 -134.5t-98.5 -47.5t-98.5 47.5zM214.5 432q19.5 30 19.5 93t-19.5 93t-52.5 30t-52.5 -30t-19.5 -93t19.5 -93t52.5 -30t52.5 30z" />
    <glyph glyph-name="uni2074" unicode="&#x2074;" horiz-adv-x="290" 
d="M171 436h-155v39l149 225h70v-215h39v-49h-39v-86h-64v86zM171 485v99q0 15 2 33l-86 -132h84z" />
    <glyph glyph-name="uni2075" unicode="&#x2075;" horiz-adv-x="298" 
d="M241.5 548q30.5 -33 30.5 -84q0 -52 -34.5 -86.5t-91.5 -34.5q-55 0 -88 31.5t-33 78.5h64q1 -22 18 -37t40 -15q27 0 43.5 17.5t16.5 45.5t-16.5 45.5t-43.5 17.5q-19 0 -34.5 -9.5t-24.5 -24.5h-61l18 207h213v-58h-158l-12 -90q12 13 31.5 21t42.5 8q49 0 79.5 -33z
" />
    <glyph glyph-name="uni2076" unicode="&#x2076;" horiz-adv-x="298" 
d="M243 546.5q31 -32.5 31 -82.5q0 -52 -34.5 -86.5t-90.5 -34.5q-57 0 -91 35.5t-34 86.5q0 35 10.5 59.5t35.5 59.5l81 116h67l-90 -128q15 7 38 7q46 0 77 -32.5zM195 415.5q19 18.5 19 47.5t-18.5 47t-46.5 18t-46.5 -18t-18.5 -47t19 -47.5t46 -18.5t46 18.5z" />
    <glyph glyph-name="uni2077" unicode="&#x2077;" horiz-adv-x="264" 
d="M186 642h-168v58h230v-53l-116 -297h-64z" />
    <glyph glyph-name="uni2078" unicode="&#x2078;" horiz-adv-x="290" 
d="M57.5 373.5q-33.5 30.5 -33.5 75.5q0 29 16.5 52.5t40.5 33.5q-20 12 -33 31t-13 45q0 41 31 68.5t79 27.5t79 -27.5t31 -68.5q0 -26 -13 -45t-33 -31q24 -10 40.5 -33.5t16.5 -52.5q0 -45 -33.5 -75.5t-87.5 -30.5t-87.5 30.5zM180.5 574q14.5 13 14.5 34t-14.5 34
t-35.5 13t-35.5 -13t-14.5 -34t14.5 -34t35.5 -13t35.5 13zM186.5 414q15.5 15 15.5 40t-15.5 40t-41.5 15t-41.5 -15t-15.5 -40t15.5 -40t41.5 -15t41.5 15z" />
    <glyph glyph-name="uni2079" unicode="&#x2079;" horiz-adv-x="298" 
d="M240 671.5q34 -35.5 34 -86.5q0 -35 -10.5 -59.5t-35.5 -59.5l-81 -116h-67l90 128q-15 -7 -38 -7q-46 0 -77 32.5t-31 82.5q0 52 34.5 86.5t90.5 34.5q57 0 91 -35.5zM195.5 540q18.5 18 18.5 47t-19 47.5t-46 18.5t-46 -18.5t-19 -47.5t18.5 -47t46.5 -18t46.5 18z" />
    <glyph glyph-name="Euro" unicode="&#x20ac;" horiz-adv-x="772" 
d="M576.5 101q55.5 37 71.5 97h84q-20 -100 -97.5 -156t-192.5 -56q-69 0 -135.5 30.5t-116.5 89t-71 138.5h-109l15 72h82q-1 11 -1 34t1 34h-71l14 72h69q21 80 71 138.5t116.5 89t135.5 30.5q115 0 192.5 -56t97.5 -156h-84q-16 60 -71.5 97t-134.5 37
q-77 0 -142.5 -47.5t-92.5 -132.5h306l-14 -72h-306q-1 -11 -1 -34t1 -34h294l-14 -72h-266q27 -85 92.5 -132.5t142.5 -47.5q79 0 134.5 37z" />
    <glyph glyph-name="uni20BA" unicode="&#x20ba;" horiz-adv-x="564" 
d="M527 276v-23q0 -123 -61.5 -188t-177.5 -65h-170v152l-91 -57v84l91 57v72l-91 -57v84l91 57v308h86v-254l157 99v-84l-157 -99v-72l157 99v-84l-157 -99v-128h73q87 0 127.5 42.5t40.5 131.5v24h82z" />
    <glyph glyph-name="uni20BD" unicode="&#x20bd;" horiz-adv-x="591" 
d="M198 276v-87h223v-72h-223v-117h-86v117h-85v72h85v511h212q62 0 112.5 -26.5t79.5 -74.5t29 -111q0 -64 -29 -112t-79 -74t-113 -26h-126zM198 352h121q62 0 101 36.5t39 99.5t-39 99.5t-101 36.5h-121v-272z" />
    <glyph glyph-name="uni2113" unicode="&#x2113;" horiz-adv-x="530" 
d="M332 89.5q37 33.5 89 121.5l53 -38q-52 -97 -104.5 -142t-123.5 -45q-73 0 -115.5 55.5t-42.5 155.5v2q-22 -7 -60 -16v74q44 12 64 19q13 113 55.5 214t105 162.5t132.5 61.5q54 0 82 -34t28 -91q0 -64 -38.5 -131.5t-113.5 -128.5t-179 -103v-23q0 -70 22 -108.5
t61 -38.5q48 0 85 33.5zM294.5 592q-40.5 -46 -73.5 -122.5t-48 -161.5q115 53 179.5 126t64.5 148q0 25 -12 40.5t-36 15.5q-34 0 -74.5 -46z" />
    <glyph glyph-name="trademark" unicode="&#x2122;" horiz-adv-x="549" 
d="M222 654h-80v-234h-50v234h-80v46h210v-46zM527 700v-280h-48v186l-69 -186h-36l-69 186v-186h-48v280h60l75 -204l75 204h60z" />
    <glyph glyph-name="uni2126" unicode="&#x2126;" horiz-adv-x="744" 
d="M78 78h152v29q-52 23 -94.5 67t-68 102t-25.5 122q0 93 43 165t118.5 111.5t168.5 39.5t168.5 -39.5t118.5 -111.5t43 -165q0 -64 -25.5 -122t-68 -102t-94.5 -67v-29h152v-78h-238v151q84 25 136 89t52 157q0 73 -33 127t-88.5 83t-122.5 29t-122.5 -29t-88.5 -83
t-33 -127q0 -93 52 -157t136 -89v-151h-238v78z" />
    <glyph glyph-name="estimated" unicode="&#x212e;" horiz-adv-x="798" 
d="M205 331v-215q29 -32 85.5 -52t108.5 -20q81 0 148 37t107 102h67q-44 -91 -130 -144t-192 -53q-96 0 -178.5 47t-131.5 130t-49 187t49 187t131.5 130t178.5 47q99 0 181 -47t130 -130t48 -187v-19h-553zM518 628.5q-56 27.5 -119 27.5q-56 0 -106.5 -20t-87.5 -56v-195
h407v169q-38 47 -94 74.5zM184 151l-1 4z" />
    <glyph glyph-name="oneeighth" unicode="&#x215b;" horiz-adv-x="691" 
d="M89 640h-67v60h131v-350h-64v290zM14 95l552 552l42 -42l-552 -552zM458.5 23.5q-33.5 30.5 -33.5 75.5q0 29 16.5 52.5t40.5 33.5q-20 12 -33 31t-13 45q0 41 31 68.5t79 27.5t79 -27.5t31 -68.5q0 -26 -13 -45t-33 -31q24 -10 40.5 -33.5t16.5 -52.5q0 -45 -33.5 -75.5
t-87.5 -30.5t-87.5 30.5zM581.5 224q14.5 13 14.5 34t-14.5 34t-35.5 13t-35.5 -13t-14.5 -34t14.5 -34t35.5 -13t35.5 13zM587.5 64q15.5 15 15.5 40t-15.5 40t-41.5 15t-41.5 -15t-15.5 -40t15.5 -40t41.5 -15t41.5 15z" />
    <glyph glyph-name="threeeighths" unicode="&#x215c;" horiz-adv-x="760" 
d="M52 376.5q-32 33.5 -32 81.5h63q2 -26 17 -41t41 -15q27 0 42.5 14t15.5 39q0 24 -16 37.5t-43 13.5h-19v51h19q23 0 37.5 12.5t14.5 33.5t-13.5 33.5t-38.5 12.5q-22 0 -37 -13t-17 -34h-61q2 44 33.5 74.5t81.5 30.5q53 0 83.5 -27t30.5 -70q0 -24 -13 -44.5t-32 -31.5
q24 -9 39.5 -30t15.5 -51q0 -48 -34.5 -79t-88.5 -31q-57 0 -89 33.5zM83 95l552 552l42 -42l-552 -552zM527.5 23.5q-33.5 30.5 -33.5 75.5q0 29 16.5 52.5t40.5 33.5q-20 12 -33 31t-13 45q0 41 31 68.5t79 27.5t79 -27.5t31 -68.5q0 -26 -13 -45t-33 -31
q24 -10 40.5 -33.5t16.5 -52.5q0 -45 -33.5 -75.5t-87.5 -30.5t-87.5 30.5zM650.5 224q14.5 13 14.5 34t-14.5 34t-35.5 13t-35.5 -13t-14.5 -34t14.5 -34t35.5 -13t35.5 13zM656.5 64q15.5 15 15.5 40t-15.5 40t-41.5 15t-41.5 -15t-15.5 -40t15.5 -40t41.5 -15t41.5 15z
" />
    <glyph glyph-name="fiveeighths" unicode="&#x215d;" horiz-adv-x="768" 
d="M241.5 548q30.5 -33 30.5 -84q0 -52 -34.5 -86.5t-91.5 -34.5q-55 0 -88 31.5t-33 78.5h64q1 -22 18 -37t40 -15q27 0 43.5 17.5t16.5 45.5t-16.5 45.5t-43.5 17.5q-19 0 -34.5 -9.5t-24.5 -24.5h-61l18 207h213v-58h-158l-12 -90q12 13 31.5 21t42.5 8q49 0 79.5 -33z
M91 95l552 552l42 -42l-552 -552zM535.5 23.5q-33.5 30.5 -33.5 75.5q0 29 16.5 52.5t40.5 33.5q-20 12 -33 31t-13 45q0 41 31 68.5t79 27.5t79 -27.5t31 -68.5q0 -26 -13 -45t-33 -31q24 -10 40.5 -33.5t16.5 -52.5q0 -45 -33.5 -75.5t-87.5 -30.5t-87.5 30.5zM658.5 224
q14.5 13 14.5 34t-14.5 34t-35.5 13t-35.5 -13t-14.5 -34t14.5 -34t35.5 -13t35.5 13zM664.5 64q15.5 15 15.5 40t-15.5 40t-41.5 15t-41.5 -15t-15.5 -40t15.5 -40t41.5 -15t41.5 15z" />
    <glyph glyph-name="seveneighths" unicode="&#x215e;" horiz-adv-x="704" 
d="M186 642h-168v58h230v-53l-116 -297h-64zM27 95l552 552l42 -42l-552 -552zM471.5 23.5q-33.5 30.5 -33.5 75.5q0 29 16.5 52.5t40.5 33.5q-20 12 -33 31t-13 45q0 41 31 68.5t79 27.5t79 -27.5t31 -68.5q0 -26 -13 -45t-33 -31q24 -10 40.5 -33.5t16.5 -52.5
q0 -45 -33.5 -75.5t-87.5 -30.5t-87.5 30.5zM594.5 224q14.5 13 14.5 34t-14.5 34t-35.5 13t-35.5 -13t-14.5 -34t14.5 -34t35.5 -13t35.5 13zM600.5 64q15.5 15 15.5 40t-15.5 40t-41.5 15t-41.5 -15t-15.5 -40t15.5 -40t41.5 -15t41.5 15z" />
    <glyph glyph-name="arrowleft" unicode="&#x2190;" horiz-adv-x="676" 
d="M646 312h-475l138 -137l-51 -51l-228 226l228 226l51 -51l-138 -137h475v-76z" />
    <glyph glyph-name="arrowup" unicode="&#x2191;" horiz-adv-x="512" 
d="M431 379l-135 136v-473h-80v473l-135 -136l-51 51l226 228l226 -228z" />
    <glyph glyph-name="arrowright" unicode="&#x2192;" horiz-adv-x="676" 
d="M646 350l-228 -226l-51 51l138 137h-475v76h475l-138 137l51 51z" />
    <glyph glyph-name="arrowdown" unicode="&#x2193;" horiz-adv-x="512" 
d="M482 270l-226 -228l-226 228l51 51l135 -136v473h80v-473l135 136z" />
    <glyph glyph-name="uni2196" unicode="&#x2196;" horiz-adv-x="524" 
d="M438 118l-335 335v-192h-73v321h321v-73h-192l335 -335z" />
    <glyph glyph-name="uni2197" unicode="&#x2197;" horiz-adv-x="524" 
d="M494 582v-321h-73v192l-335 -335l-56 56l335 335h-192v73h321z" />
    <glyph glyph-name="uni2198" unicode="&#x2198;" horiz-adv-x="524" 
d="M494 439v-321h-321v73h192l-335 335l56 56l335 -335v192h73z" />
    <glyph glyph-name="uni2199" unicode="&#x2199;" horiz-adv-x="524" 
d="M159 191h192v-73h-321v321h73v-192l335 335l56 -56z" />
    <glyph glyph-name="uni21B0" unicode="&#x21b0;" horiz-adv-x="676" 
d="M646 388v-264h-80v188h-395l138 -137l-51 -51l-228 226l228 226l51 -51l-138 -137h475z" />
    <glyph glyph-name="uni21B1" unicode="&#x21b1;" horiz-adv-x="676" 
d="M646 350l-228 -226l-51 51l138 137h-395v-188h-80v264h475l-138 137l51 51z" />
    <glyph glyph-name="uni21B2" unicode="&#x21b2;" horiz-adv-x="676" 
d="M646 576v-264h-475l138 -137l-51 -51l-228 226l228 226l51 -51l-138 -137h395v188h80z" />
    <glyph glyph-name="uni21B3" unicode="&#x21b3;" horiz-adv-x="676" 
d="M646 350l-228 -226l-51 51l138 137h-475v264h80v-188h395l-138 137l51 51z" />
    <glyph glyph-name="partialdiff" unicode="&#x2202;" horiz-adv-x="570" 
d="M366.5 614.5q74.5 -65.5 118 -156.5t43.5 -196q0 -129 -65 -202.5t-179 -73.5q-68 0 -123 31t-87 85.5t-32 122.5q0 65 32 118t84.5 83t110.5 30q53 0 95.5 -19t69.5 -51q-35 91 -106.5 159.5t-165.5 104.5l36 64q94 -34 168.5 -99.5zM366 80q37 20 58.5 56.5t21.5 84.5
t-21.5 84.5t-58.5 56.5t-82 20t-81.5 -20t-57.5 -56.5t-21 -84.5t21 -84.5t57.5 -56.5t81.5 -20t82 20z" />
    <glyph glyph-name="uni2206" unicode="&#x2206;" horiz-adv-x="635" 
d="M605 78v-78h-575v78l238 622h99zM517 78l-181 479l-19 48q-4 -12 -18 -48l-181 -479h399z" />
    <glyph glyph-name="product" unicode="&#x220f;" horiz-adv-x="640" 
d="M620 622h-92v-742h-86v742h-244v-742h-86v742h-92v78h600v-78z" />
    <glyph glyph-name="summation" unicode="&#x2211;" horiz-adv-x="565" 
d="M49 -42l259 353l-246 311v78h443v-78h-335l216 -269v-76l-239 -319h371v-78h-469v78z" />
    <glyph glyph-name="minus" unicode="&#x2212;" horiz-adv-x="482" 
d="M35 385h412v-70h-412v70z" />
    <glyph glyph-name="uni2215" unicode="&#x2215;" horiz-adv-x="482" 
d="M384 700h82l-368 -700h-82z" />
    <glyph glyph-name="uni2219" unicode="&#x2219;" horiz-adv-x="482" 
d="M163.5 272.5q-32.5 32.5 -32.5 77.5q0 46 32.5 78t77.5 32q46 0 78 -32t32 -78q0 -45 -32 -77.5t-78 -32.5q-45 0 -77.5 32.5z" />
    <glyph glyph-name="radical" unicode="&#x221a;" horiz-adv-x="639" 
d="M25 410h90l91 -266q6 -18 10 -27l9 -27q5 17 19 54l201 556h174v-78h-110l-235 -622h-100z" />
    <glyph glyph-name="infinity" unicode="&#x221e;" horiz-adv-x="726" 
d="M607.5 446q35.5 -19 57 -55t21.5 -85t-21.5 -85t-57 -55t-75.5 -19q-105 0 -169 98q-64 -98 -169 -98q-40 0 -75.5 19t-57 55t-21.5 85t21.5 85t57 55t75.5 19q105 0 169 -98q64 98 169 98q40 0 75.5 -19zM266.5 237q30.5 26 59.5 69q-29 43 -59.5 69t-66.5 26
q-35 0 -62.5 -26t-27.5 -69t27.5 -69t62.5 -26q36 0 66.5 26zM588.5 237q27.5 26 27.5 69t-27.5 69t-62.5 26q-36 0 -66.5 -26t-59.5 -69q29 -43 59.5 -69t66.5 -26q35 0 62.5 26z" />
    <glyph glyph-name="integral" unicode="&#x222b;" horiz-adv-x="508" 
d="M23 -30h65q49 0 69.5 20t26.5 70l58 486q9 72 48.5 113t110.5 41h81v-78h-75q-35 0 -57 -23t-27 -67l-59 -496q-9 -74 -49 -109t-117 -35h-75v78z" />
    <glyph glyph-name="approxequal" unicode="&#x2248;" horiz-adv-x="482" 
d="M282 405.5q-22 7.5 -55 23.5q-25 12 -39.5 17.5t-27.5 5.5q-22 0 -34 -14t-12 -36h-72q0 59 31 89.5t80 30.5q25 0 47 -7.5t55 -23.5q25 -12 39.5 -17.5t27.5 -5.5q22 0 34 14t12 36h72q0 -59 -31 -89.5t-80 -30.5q-25 0 -47 7.5zM282 185.5q-22 7.5 -55 23.5
q-25 12 -39.5 17.5t-27.5 5.5q-22 0 -34 -14t-12 -36h-72q0 59 31 89.5t80 30.5q25 0 47 -7.5t55 -23.5q25 -12 39.5 -17.5t27.5 -5.5q22 0 34 14t12 36h72q0 -59 -31 -89.5t-80 -30.5q-25 0 -47 7.5z" />
    <glyph glyph-name="notequal" unicode="&#x2260;" horiz-adv-x="482" 
d="M327 429l-91 -158h211v-70h-252l-87 -151l-60 35l67 116h-80v70h120l91 158h-211v70h252l87 151l60 -35l-67 -116h80v-70h-120z" />
    <glyph glyph-name="lessequal" unicode="&#x2264;" horiz-adv-x="482" 
d="M35 311v78l412 194v-76l-341 -157l341 -157v-76zM35 70h412v-70h-412v70z" />
    <glyph glyph-name="greaterequal" unicode="&#x2265;" horiz-adv-x="482" 
d="M35 193l341 157l-341 157v76l412 -194v-78l-412 -194v76zM35 70h412v-70h-412v70z" />
    <glyph glyph-name="lozenge" unicode="&#x25ca;" horiz-adv-x="574" 
d="M536 350l-200 -350h-98l-200 350l200 350h98zM447 350l-160 285l-160 -285l160 -285z" />
    <glyph glyph-name="circle" unicode="&#x25cb;" horiz-adv-x="780" 
d="M214.5 47q-80.5 47 -127.5 127.5t-47 175.5t47 175.5t127.5 127.5t175.5 47t175.5 -47t127.5 -127.5t47 -175.5t-47 -175.5t-127.5 -127.5t-175.5 -47t-175.5 47zM521.5 123q60.5 35 96 95.5t35.5 131.5t-35.5 131.5t-96 96t-131.5 35.5t-131.5 -35.5t-96 -96
t-35.5 -131.5t35.5 -131.5t96 -95.5t131.5 -35t131.5 35z" />
    <glyph glyph-name="uni25D0" unicode="&#x25d0;" horiz-adv-x="780" 
d="M214.5 47q-80.5 47 -127.5 127.5t-47 175.5t47 175.5t127.5 127.5t175.5 47t175.5 -47t127.5 -127.5t47 -175.5t-47 -175.5t-127.5 -127.5t-175.5 -47t-175.5 47zM521.5 123q60.5 35 96 95.5t35.5 131.5t-35.5 131.5t-96 96t-131.5 35.5v-525q71 0 131.5 35z" />
    <glyph glyph-name="uni2B24" unicode="&#x2b24;" horiz-adv-x="780" 
d="M214.5 47q-80.5 47 -127.5 127.5t-47 175.5t47 175.5t127.5 127.5t175.5 47t175.5 -47t127.5 -127.5t47 -175.5t-47 -175.5t-127.5 -127.5t-175.5 -47t-175.5 47z" />
    <glyph glyph-name="u1F989" unicode="&#x1f989;" horiz-adv-x="808" 
d="M221.5 35q-83.5 49 -132.5 132.5t-49 182.5t49 182.5t132.5 132.5t182.5 49t182.5 -49t132.5 -132.5t49 -182.5t-49 -182.5t-132.5 -132.5t-182.5 -49t-182.5 49zM566 70.5q74 43.5 117.5 117.5t43.5 162t-43.5 162t-117.5 117.5t-162 43.5t-162 -43.5t-117.5 -117.5
t-43.5 -162t43.5 -162t117.5 -117.5t162 -43.5t162 43.5zM364 240q-37 -34 -86 -34q-52 0 -88.5 37t-36.5 89q0 26 11 50t30 42l-41 45h91q73 49 160 49q89 0 160 -49h91l-41 -45q19 -18 30 -42t11 -50q0 -52 -36.5 -89t-88.5 -37q-48 0 -86 33l-40 -43zM430.5 409
q26.5 34 67.5 49q-42 19 -94 19t-94 -19q41 -15 67.5 -49t26.5 -75q0 41 26.5 75zM338 272q25 25 25 60t-25 60t-60 25t-60 -25t-25 -60t25 -60t60 -25t60 25zM590 272q25 25 25 60t-25 60t-60 25t-60 -25t-25 -60t25 -60t60 -25t60 25zM247 300q-13 13 -13 32q0 18 13 31
t31 13q19 0 32 -13t13 -31q0 -19 -13 -32t-32 -13q-18 0 -31 13zM498 300q-13 13 -13 32q0 18 13 31t32 13q18 0 31 -13t13 -31q0 -19 -13 -32t-31 -13q-19 0 -32 13z" />
    <glyph glyph-name="a.ss01" horiz-adv-x="516" 
d="M389.5 461.5q49.5 -46.5 49.5 -123.5v-338h-76v89q-19 -47 -60.5 -75t-107.5 -28q-44 0 -78.5 20t-54 54t-19.5 75q0 66 49.5 107t132.5 41h132v49q0 51 -28.5 78t-77.5 27q-45 0 -73.5 -21.5t-34.5 -58.5h-82q3 38 26.5 73t66 56.5t97.5 21.5q89 0 138.5 -46.5z
M291.5 78q32.5 22 49 56.5t16.5 72.5v12h-131q-49 0 -75.5 -23t-26.5 -60q0 -36 25 -58t65 -22q45 0 77.5 22z" />
    <glyph glyph-name="aacute.ss01" horiz-adv-x="516" 
d="M389.5 461.5q49.5 -46.5 49.5 -123.5v-338h-76v89q-19 -47 -60.5 -75t-107.5 -28q-44 0 -78.5 20t-54 54t-19.5 75q0 66 49.5 107t132.5 41h132v49q0 51 -28.5 78t-77.5 27q-45 0 -73.5 -21.5t-34.5 -58.5h-82q3 38 26.5 73t66 56.5t97.5 21.5q89 0 138.5 -46.5z
M291.5 78q32.5 22 49 56.5t16.5 72.5v12h-131q-49 0 -75.5 -23t-26.5 -60q0 -36 25 -58t65 -22q45 0 77.5 22zM271 700h118l-102 -133h-72z" />
    <glyph glyph-name="abreve.ss01" horiz-adv-x="516" 
d="M389.5 461.5q49.5 -46.5 49.5 -123.5v-338h-76v89q-19 -47 -60.5 -75t-107.5 -28q-44 0 -78.5 20t-54 54t-19.5 75q0 66 49.5 107t132.5 41h132v49q0 51 -28.5 78t-77.5 27q-45 0 -73.5 -21.5t-34.5 -58.5h-82q3 38 26.5 73t66 56.5t97.5 21.5q89 0 138.5 -46.5z
M291.5 78q32.5 22 49 56.5t16.5 72.5v12h-131q-49 0 -75.5 -23t-26.5 -60q0 -36 25 -58t65 -22q45 0 77.5 22zM160 610.5q-35 36.5 -35 89.5h58q0 -32 18.5 -52t49.5 -20t49.5 20t18.5 52h58q0 -53 -35 -89.5t-91 -36.5t-91 36.5z" />
    <glyph glyph-name="acircumflex.ss01" horiz-adv-x="516" 
d="M389.5 461.5q49.5 -46.5 49.5 -123.5v-338h-76v89q-19 -47 -60.5 -75t-107.5 -28q-44 0 -78.5 20t-54 54t-19.5 75q0 66 49.5 107t132.5 41h132v49q0 51 -28.5 78t-77.5 27q-45 0 -73.5 -21.5t-34.5 -58.5h-82q3 38 26.5 73t66 56.5t97.5 21.5q89 0 138.5 -46.5z
M291.5 78q32.5 22 49 56.5t16.5 72.5v12h-131q-49 0 -75.5 -23t-26.5 -60q0 -36 25 -58t65 -22q45 0 77.5 22zM216 700h70l99 -133h-70l-64 69l-64 -69h-70z" />
    <glyph glyph-name="adieresis.ss01" horiz-adv-x="516" 
d="M389.5 461.5q49.5 -46.5 49.5 -123.5v-338h-76v89q-19 -47 -60.5 -75t-107.5 -28q-44 0 -78.5 20t-54 54t-19.5 75q0 66 49.5 107t132.5 41h132v49q0 51 -28.5 78t-77.5 27q-45 0 -73.5 -21.5t-34.5 -58.5h-82q3 38 26.5 73t66 56.5t97.5 21.5q89 0 138.5 -46.5z
M291.5 78q32.5 22 49 56.5t16.5 72.5v12h-131q-49 0 -75.5 -23t-26.5 -60q0 -36 25 -58t65 -22q45 0 77.5 22zM132 600q-16 16 -16 39q0 24 16 39.5t39 15.5q24 0 39.5 -15.5t15.5 -39.5q0 -23 -15.5 -39t-39.5 -16q-23 0 -39 16zM292 600q-16 16 -16 39q0 24 16 39.5
t39 15.5t39 -15.5t16 -39.5q0 -23 -16 -39t-39 -16t-39 16z" />
    <glyph glyph-name="agrave.ss01" horiz-adv-x="516" 
d="M389.5 461.5q49.5 -46.5 49.5 -123.5v-338h-76v89q-19 -47 -60.5 -75t-107.5 -28q-44 0 -78.5 20t-54 54t-19.5 75q0 66 49.5 107t132.5 41h132v49q0 51 -28.5 78t-77.5 27q-45 0 -73.5 -21.5t-34.5 -58.5h-82q3 38 26.5 73t66 56.5t97.5 21.5q89 0 138.5 -46.5z
M291.5 78q32.5 22 49 56.5t16.5 72.5v12h-131q-49 0 -75.5 -23t-26.5 -60q0 -36 25 -58t65 -22q45 0 77.5 22zM113 700h118l56 -133h-72z" />
    <glyph glyph-name="amacron.ss01" horiz-adv-x="516" 
d="M389.5 461.5q49.5 -46.5 49.5 -123.5v-338h-76v89q-19 -47 -60.5 -75t-107.5 -28q-44 0 -78.5 20t-54 54t-19.5 75q0 66 49.5 107t132.5 41h132v49q0 51 -28.5 78t-77.5 27q-45 0 -73.5 -21.5t-34.5 -58.5h-82q3 38 26.5 73t66 56.5t97.5 21.5q89 0 138.5 -46.5z
M291.5 78q32.5 22 49 56.5t16.5 72.5v12h-131q-49 0 -75.5 -23t-26.5 -60q0 -36 25 -58t65 -22q45 0 77.5 22zM130 670h242v-66h-242v66z" />
    <glyph glyph-name="aogonek.ss01" horiz-adv-x="516" 
d="M454 -120v-67q-32 -13 -70 -13q-41 0 -67.5 25.5t-26.5 67.5q0 38 21 68.5t52 44.5v83q-19 -47 -60.5 -75t-107.5 -28q-44 0 -78.5 20t-54 54t-19.5 75q0 66 49.5 107t132.5 41h132v49q0 51 -28.5 78t-77.5 27q-45 0 -73.5 -21.5t-34.5 -58.5h-82q3 38 26.5 73t66 56.5
t97.5 21.5q89 0 138.5 -46.5t49.5 -123.5v-338q-71 -39 -71 -84q0 -21 12 -33t31 -12q22 0 43 9zM291.5 78q32.5 22 49 56.5t16.5 72.5v12h-131q-49 0 -75.5 -23t-26.5 -60q0 -36 25 -58t65 -22q45 0 77.5 22z" />
    <glyph glyph-name="aring.ss01" horiz-adv-x="516" 
d="M389.5 461.5q49.5 -46.5 49.5 -123.5v-338h-76v89q-19 -47 -60.5 -75t-107.5 -28q-44 0 -78.5 20t-54 54t-19.5 75q0 66 49.5 107t132.5 41h132v49q0 51 -28.5 78t-77.5 27q-45 0 -73.5 -21.5t-34.5 -58.5h-82q3 38 26.5 73t66 56.5t97.5 21.5q89 0 138.5 -46.5z
M291.5 78q32.5 22 49 56.5t16.5 72.5v12h-131q-49 0 -75.5 -23t-26.5 -60q0 -36 25 -58t65 -22q45 0 77.5 22zM166 595.5q-35 35.5 -35 84.5q0 50 35 85t85 35q49 0 84.5 -35t35.5 -85q0 -49 -35.5 -84.5t-84.5 -35.5q-50 0 -85 35.5zM300.5 630.5q20.5 20.5 20.5 49.5
t-20.5 49.5t-49.5 20.5t-49.5 -20.5t-20.5 -49.5t20.5 -49.5t49.5 -20.5t49.5 20.5z" />
    <glyph glyph-name="atilde.ss01" horiz-adv-x="516" 
d="M389.5 461.5q49.5 -46.5 49.5 -123.5v-338h-76v89q-19 -47 -60.5 -75t-107.5 -28q-44 0 -78.5 20t-54 54t-19.5 75q0 66 49.5 107t132.5 41h132v49q0 51 -28.5 78t-77.5 27q-45 0 -73.5 -21.5t-34.5 -58.5h-82q3 38 26.5 73t66 56.5t97.5 21.5q89 0 138.5 -46.5z
M291.5 78q32.5 22 49 56.5t16.5 72.5v12h-131q-49 0 -75.5 -23t-26.5 -60q0 -36 25 -58t65 -22q45 0 77.5 22zM281 580q-20 9 -42 25q-17 12 -28.5 18t-23.5 6q-21 0 -33.5 -14.5t-12.5 -35.5h-72q0 53 28 87t78 34q26 0 46 -9t42 -25q17 -12 28.5 -18t23.5 -6
q21 0 33.5 14.5t12.5 35.5h72q0 -53 -28 -87t-78 -34q-26 0 -46 9z" />
    <glyph glyph-name="ae.ss01" horiz-adv-x="892" 
d="M116.5 6q-34.5 20 -54 54t-19.5 75q0 71 49.5 115.5t132.5 44.5h132v37q0 51 -28.5 78t-77.5 27q-45 0 -73.5 -21.5t-34.5 -58.5h-82q3 38 26.5 73t66 56.5t97.5 21.5q61 0 104 -23t64 -67q29 41 79.5 65.5t106.5 24.5q73 0 128 -30.5t85 -86.5t30 -131v-29h-409
q1 -80 48.5 -126.5t118.5 -46.5q59 0 99 29t56 76h78q-22 -80 -83.5 -128.5t-149.5 -48.5q-51 0 -96 21t-71 59v-66h-76v89q-19 -47 -60.5 -75t-107.5 -28q-44 0 -78.5 20zM769 295q-7 67 -51 105t-114 38q-62 0 -105 -38t-56 -105h326zM291.5 78q32.5 22 49 56.5t16.5 72.5
v24h-131q-49 0 -75.5 -26.5t-26.5 -68.5q0 -36 25 -58t65 -22q45 0 77.5 22z" />
    <glyph glyph-name="t.ss02" horiz-adv-x="342" 
d="M307 426h-95v-426h-82v426h-95v68h95v126h82v-126h95v-68z" />
    <glyph glyph-name="tcaron.ss02" horiz-adv-x="356" 
d="M307 426h-95v-426h-82v426h-95v68h95v126h82v-126h95v-68zM266 596h8q29 0 44.5 12.5t18.5 42.5q-6 -4 -19 -4q-23 0 -39 16.5t-16 41.5t16.5 42t41.5 17q31 0 49.5 -22t18.5 -67q0 -61 -30.5 -94t-80.5 -33h-12v48z" />
    <glyph glyph-name="uni0163.ss02" horiz-adv-x="342" 
d="M194 0l-17 -55q18 2 28 2q35 0 58 -23t23 -61q0 -47 -30.5 -69t-76.5 -22q-42 0 -69 10v52q28 -10 57 -10q56 0 56 40q0 18 -13.5 28.5t-35.5 10.5h-64v20l26 77h-6v426h-95v68h95v126h82v-126h95v-68h-95v-426h-18z" />
    <glyph glyph-name="uni021B.ss02" horiz-adv-x="342" 
d="M307 426h-95v-426h-82v426h-95v68h95v126h82v-126h95v-68zM113 -212h11q28 0 41.5 12.5t15.5 42.5q-6 -3 -16 -3q-21 0 -34.5 14.5t-13.5 36.5q0 21 14.5 36t35.5 15q30 0 46 -21t16 -60q0 -117 -102 -117h-14v44z" />
    <glyph glyph-name="u.ss03" horiz-adv-x="552" 
d="M131.5 38.5q-54.5 52.5 -54.5 150.5v305h82v-313q0 -57 32.5 -90t84.5 -33t84.5 33t32.5 90v313h82v-305q0 -98 -54.5 -150.5t-144.5 -52.5t-144.5 52.5z" />
    <glyph glyph-name="uacute.ss03" horiz-adv-x="552" 
d="M131.5 38.5q-54.5 52.5 -54.5 150.5v305h82v-313q0 -57 32.5 -90t84.5 -33t84.5 33t32.5 90v313h82v-305q0 -98 -54.5 -150.5t-144.5 -52.5t-144.5 52.5zM296 700h118l-102 -133h-72z" />
    <glyph glyph-name="ucircumflex.ss03" horiz-adv-x="552" 
d="M131.5 38.5q-54.5 52.5 -54.5 150.5v305h82v-313q0 -57 32.5 -90t84.5 -33t84.5 33t32.5 90v313h82v-305q0 -98 -54.5 -150.5t-144.5 -52.5t-144.5 52.5zM241 700h70l99 -133h-70l-64 69l-64 -69h-70z" />
    <glyph glyph-name="udieresis.ss03" horiz-adv-x="552" 
d="M131.5 38.5q-54.5 52.5 -54.5 150.5v305h82v-313q0 -57 32.5 -90t84.5 -33t84.5 33t32.5 90v313h82v-305q0 -98 -54.5 -150.5t-144.5 -52.5t-144.5 52.5zM157 600q-16 16 -16 39q0 24 16 39.5t39 15.5q24 0 39.5 -15.5t15.5 -39.5q0 -23 -15.5 -39t-39.5 -16
q-23 0 -39 16zM317 600q-16 16 -16 39q0 24 16 39.5t39 15.5t39 -15.5t16 -39.5q0 -23 -16 -39t-39 -16t-39 16z" />
    <glyph glyph-name="ugrave.ss03" horiz-adv-x="552" 
d="M131.5 38.5q-54.5 52.5 -54.5 150.5v305h82v-313q0 -57 32.5 -90t84.5 -33t84.5 33t32.5 90v313h82v-305q0 -98 -54.5 -150.5t-144.5 -52.5t-144.5 52.5zM138 700h118l56 -133h-72z" />
    <glyph glyph-name="uhungarumlaut.ss03" horiz-adv-x="552" 
d="M131.5 38.5q-54.5 52.5 -54.5 150.5v305h82v-313q0 -57 32.5 -90t84.5 -33t84.5 33t32.5 90v313h82v-305q0 -98 -54.5 -150.5t-144.5 -52.5t-144.5 52.5zM198 700h110l-78 -133h-68zM358 700h110l-78 -133h-68z" />
    <glyph glyph-name="umacron.ss03" horiz-adv-x="552" 
d="M131.5 38.5q-54.5 52.5 -54.5 150.5v305h82v-313q0 -57 32.5 -90t84.5 -33t84.5 33t32.5 90v313h82v-305q0 -98 -54.5 -150.5t-144.5 -52.5t-144.5 52.5zM155 670h242v-66h-242v66z" />
    <glyph glyph-name="uogonek.ss03" horiz-adv-x="552" 
d="M475 494v-305q0 -72 -31 -120.5t-85 -68.5q-71 -39 -71 -84q0 -21 12 -33t31 -12q22 0 43 9v-67q-32 -13 -70 -13q-41 0 -67.5 25.5t-26.5 67.5q0 28 12 52.5t32 41.5q-81 6 -129 58.5t-48 143.5v305h82v-313q0 -57 32.5 -90t84.5 -33t84.5 33t32.5 90v313h82z" />
    <glyph glyph-name="uring.ss03" horiz-adv-x="552" 
d="M131.5 38.5q-54.5 52.5 -54.5 150.5v305h82v-313q0 -57 32.5 -90t84.5 -33t84.5 33t32.5 90v313h82v-305q0 -98 -54.5 -150.5t-144.5 -52.5t-144.5 52.5zM191 595.5q-35 35.5 -35 84.5q0 50 35 85t85 35q49 0 84.5 -35t35.5 -85q0 -49 -35.5 -84.5t-84.5 -35.5
q-50 0 -85 35.5zM325.5 630.5q20.5 20.5 20.5 49.5t-20.5 49.5t-49.5 20.5t-49.5 -20.5t-20.5 -49.5t20.5 -49.5t49.5 -20.5t49.5 20.5z" />
    <glyph glyph-name="y.ss04" horiz-adv-x="501" 
d="M196 0l-184 494h91l120 -331q9 -27 18 -67l154 398h89l-277 -694h-93z" />
    <glyph glyph-name="yacute.ss04" horiz-adv-x="501" 
d="M196 0l-184 494h91l120 -331q9 -27 18 -67l154 398h89l-277 -694h-93zM271 700h118l-102 -133h-72z" />
    <glyph glyph-name="ydieresis.ss04" horiz-adv-x="501" 
d="M196 0l-184 494h91l120 -331q9 -27 18 -67l154 398h89l-277 -694h-93zM132 600q-16 16 -16 39q0 24 16 39.5t39 15.5q24 0 39.5 -15.5t15.5 -39.5q0 -23 -15.5 -39t-39.5 -16q-23 0 -39 16zM292 600q-16 16 -16 39q0 24 16 39.5t39 15.5t39 -15.5t16 -39.5q0 -23 -16 -39
t-39 -16t-39 16z" />
    <glyph glyph-name="t_t" horiz-adv-x="684" 
d="M180 426v-289q0 -31 14.5 -46t44.5 -15h58v-76h-76q-59 0 -91 34.5t-32 95.5v296h-73v68h73v126h82v-126h117v-68h-117zM522 426v-289q0 -31 14.5 -46t44.5 -15h58v-76h-76q-59 0 -91 34.5t-32 95.5v296h-73v68h73v126h82v-126h117v-68h-117z" />
    <glyph glyph-name="zero.osf" horiz-adv-x="633" 
d="M176 23q-63 37 -98.5 101t-35.5 143t35.5 143t98.5 101t141 37t141 -37t98.5 -101t35.5 -143t-35.5 -143t-98.5 -101t-141 -37t-141 37zM414 85.5q44 25.5 70 72.5t26 109t-26 109t-70 72.5t-97 25.5t-97 -25.5t-70 -72.5t-26 -109t26 -109t70 -72.5t97 -25.5t97 25.5z
" />
    <glyph glyph-name="one.osf" horiz-adv-x="330" 
d="M170 458h-139v76h221v-534h-82v458z" />
    <glyph glyph-name="two.osf" horiz-adv-x="467" 
d="M49 63l205 193q44 40 60.5 65.5t16.5 62.5q0 41 -28 65.5t-72 24.5q-47 0 -75 -26t-32 -68h-78q3 73 53 120.5t134 47.5q82 0 130 -44.5t48 -115.5q0 -48 -23 -89t-75 -87l-150 -136h253v-76h-367v63z" />
    <glyph glyph-name="three.osf" horiz-adv-x="504" 
d="M128 -106.5q-49 29.5 -75 77t-26 100.5h82q4 -56 40.5 -94t96.5 -38q61 0 97.5 34.5t36.5 94.5q0 52 -36 84.5t-95 32.5h-37v72h37q53 0 85 28.5t32 77.5t-33.5 80t-89.5 31q-51 0 -86 -32t-40 -81h-77q1 52 27.5 94.5t72 67.5t103.5 25q62 0 108 -23t70.5 -63.5
t24.5 -90.5q0 -51 -26.5 -90.5t-64.5 -57.5q50 -17 79.5 -57t29.5 -99q0 -58 -27 -104t-77 -72.5t-115 -26.5q-68 0 -117 29.5z" />
    <glyph glyph-name="four.osf" horiz-adv-x="512" 
d="M337 47h-305v48l298 440h89v-416h71v-72h-71v-170h-82v170zM337 119v234q0 20 2 70l-205 -304h203z" />
    <glyph glyph-name="five.osf" horiz-adv-x="530" 
d="M392 282.5q47 -28.5 72 -79.5t25 -115t-29 -115t-80.5 -80t-116.5 -29t-114.5 28t-76 74.5t-26.5 99.5h81q2 -55 41 -92t97 -37q66 0 103.5 42.5t37.5 108.5t-37 109t-104 43q-45 0 -80 -23.5t-56 -63.5h-78l36 382h376v-73h-307l-24 -214q24 29 63.5 46t86.5 17
q63 0 110 -28.5z" />
    <glyph glyph-name="six.osf" horiz-adv-x="572" 
d="M410.5 400q46.5 -28 73.5 -77.5t27 -111.5q0 -64 -30.5 -115t-82.5 -80t-115 -29q-68 0 -120.5 30t-81 81.5t-28.5 113.5q0 66 24 118t72 119l148 209h92l-178 -252q37 22 97 22q56 0 102.5 -28zM356 78.5q33 18.5 53 52t20 77.5q0 43 -20 76.5t-53 52t-73 18.5
t-73.5 -18.5t-53.5 -52t-20 -76.5q0 -44 20 -77.5t53.5 -52t73.5 -18.5t73 18.5z" />
    <glyph glyph-name="seven.osf" horiz-adv-x="489" 
d="M374 462h-336v73h421v-66l-238 -592h-85z" />
    <glyph glyph-name="eight.osf" horiz-adv-x="506" 
d="M139 13.5q-48 26.5 -73 71t-25 97.5q0 57 28.5 102.5t76.5 65.5q-38 21 -62 59t-24 90q0 49 25.5 88t70 61.5t97.5 22.5t97.5 -22.5t70 -61.5t25.5 -88q0 -52 -24 -90t-62 -59q48 -20 76.5 -65.5t28.5 -102.5q0 -53 -25 -97.5t-73 -71t-114 -26.5t-114 26.5zM335 413.5
q32 30.5 32 77.5t-32 77.5t-82 30.5t-82 -30t-32 -78q0 -47 32 -77.5t82 -30.5t82 30.5zM346 97.5q35 35.5 35 89.5q0 55 -35 90.5t-93 35.5t-93 -35.5t-35 -90.5q0 -54 35 -89.5t93 -35.5t93 35.5z" />
    <glyph glyph-name="nine.osf" horiz-adv-x="572" 
d="M411 518.5q52 -29.5 80 -81t28 -114.5q0 -65 -24 -116.5t-73 -120.5l-147 -209h-93l180 252q-41 -22 -94 -22q-55 0 -102.5 28t-76 77.5t-28.5 111.5q0 64 30.5 115t82.5 80t115 29q70 0 122 -29.5zM362.5 198.5q33.5 18.5 53.5 52t20 76.5q0 44 -20 77.5t-53.5 52
t-73.5 18.5t-73 -18.5t-52.5 -52t-19.5 -77.5q0 -43 19.5 -76.5t52.5 -52t73 -18.5t73.5 18.5z" />
    <glyph glyph-name="zero.tf" 
d="M171 26.5q-62 40.5 -100 122.5t-38 201t38 201t100 122.5t134 40.5q71 0 131 -40.5t95.5 -122.5t35.5 -201t-35.5 -201t-95.5 -122.5t-131 -40.5q-72 0 -134 40.5zM430 134q49 70 49 216t-49 216t-125 70q-49 0 -90.5 -29.5t-67.5 -93.5t-26 -163t26 -163t67.5 -93.5
t90.5 -29.5q76 0 125 70z" />
    <glyph glyph-name="one.tf" 
d="M513 78v-78h-425v78h170v541h-162v81h249v-622h168z" />
    <glyph glyph-name="two.tf" 
d="M80 69l253 257q49 50 72 92.5t23 87.5q0 61 -36.5 95.5t-92.5 34.5q-58 0 -94 -35t-41 -90h-83q3 58 30.5 104t76.5 72.5t113 26.5q62 0 110.5 -26t75 -72t26.5 -104q0 -64 -29 -118.5t-88 -114.5l-194 -198h319v-81h-441v69z" />
    <glyph glyph-name="three.tf" 
d="M174 17q-51 31 -77 81t-26 106h83q4 -60 41.5 -100t102.5 -40t104.5 36.5t39.5 102.5q0 56 -38.5 90.5t-101.5 34.5h-40v73h40q56 0 90.5 32t34.5 85t-35.5 86t-96.5 33q-56 0 -93.5 -34t-42.5 -87h-79q1 55 29 100t76 71.5t110 26.5q63 0 112 -24.5t76 -67.5t27 -96
q0 -52 -29.5 -95t-67.5 -63q51 -19 83.5 -62.5t32.5 -103.5t-29 -109.5t-81.5 -78t-121.5 -28.5q-72 0 -123 31z" />
    <glyph glyph-name="four.tf" 
d="M382 183h-320v48l313 469h93v-445h71v-72h-71v-183h-86v183zM382 255v259q0 25 4 67l-216 -326h212z" />
    <glyph glyph-name="five.tf" 
d="M432.5 431.5q49.5 -30.5 76 -84t26.5 -122.5t-31 -123.5t-85.5 -85t-123.5 -30.5t-121.5 30t-80.5 79t-28 106h84q2 -60 43.5 -99.5t104.5 -39.5q71 0 111.5 46t40.5 117t-40 117t-112 46q-45 0 -84.5 -26t-60.5 -68h-81l38 406h399v-76h-327l-26 -231q25 31 67.5 50
t92.5 19q68 0 117.5 -30.5z" />
    <glyph glyph-name="six.tf" 
d="M435.5 426.5q49.5 -29.5 78.5 -82.5t29 -119q0 -68 -32.5 -122.5t-88 -85.5t-121.5 -31q-72 0 -127.5 32t-86 86.5t-30.5 120.5q0 69 25 123t78 129l157 223h96l-192 -270q47 26 106 26t108.5 -29.5zM379.5 81.5q35.5 19.5 56.5 56t21 83.5t-21 83.5t-56.5 56t-78.5 19.5
t-79 -20t-57.5 -56t-21.5 -83t21.5 -83t57.5 -56t79 -20t78.5 19.5z" />
    <glyph glyph-name="seven.tf" 
d="M442 624h-373v76h462v-68l-269 -632h-88z" />
    <glyph glyph-name="eight.tf" 
d="M179 14q-51 28 -77.5 75.5t-26.5 103.5q0 61 31 109.5t81 69.5q-41 23 -66.5 62.5t-25.5 96.5q0 52 27.5 94t74.5 65.5t103 23.5q57 0 104 -23.5t74 -65.5t27 -94q0 -57 -25.5 -96.5t-66.5 -62.5q51 -21 81.5 -69t30.5 -110q0 -56 -26.5 -103.5t-77.5 -75.5t-121 -28
t-121 28zM389.5 439.5q34.5 32.5 34.5 83.5t-34.5 83.5t-89.5 32.5q-54 0 -88.5 -32.5t-34.5 -83.5t34 -83.5t89 -32.5t89.5 32.5zM400.5 102q38.5 38 38.5 96q0 59 -38 97.5t-101 38.5q-62 0 -100 -38.5t-38 -97.5q0 -58 38 -96t100 -38t100.5 38z" />
    <glyph glyph-name="nine.tf" 
d="M429.5 682.5q55.5 -31.5 84.5 -85.5t29 -122q0 -69 -25 -123t-78 -129l-157 -223h-96l190 267q-41 -23 -99 -23q-59 0 -110 30t-81 82.5t-30 118.5q0 68 32.5 122.5t88 85.5t121.5 31q75 0 130.5 -31.5zM378 340q36 20 57.5 56t21.5 83t-21.5 83t-57.5 56t-79 20
t-78.5 -19.5t-56.5 -56t-21 -83.5t21 -83.5t56.5 -56t78.5 -19.5t79 20z" />
    <glyph glyph-name="zero.tosf" 
d="M159 23q-63 37 -98.5 101t-35.5 143t35.5 143t98.5 101t141 37t141 -37t98.5 -101t35.5 -143t-35.5 -143t-98.5 -101t-141 -37t-141 37zM397 85.5q44 25.5 70 72.5t26 109t-26 109t-70 72.5t-97 25.5t-97 -25.5t-70 -72.5t-26 -109t26 -109t70 -72.5t97 -25.5t97 25.5z
" />
    <glyph glyph-name="one.tosf" 
d="M504 76v-76h-408v76h177v382h-139v76h221v-458h149z" />
    <glyph glyph-name="two.tosf" 
d="M104 63l230 181q42 33 59.5 61.5t17.5 66.5q0 47 -30.5 74.5t-81.5 27.5t-83.5 -29.5t-36.5 -74.5h-78q2 46 26.5 87t69.5 66t104 25q88 0 139 -48t51 -124q0 -53 -23.5 -95t-74.5 -81l-160 -124h266v-76h-395v63z" />
    <glyph glyph-name="three.tosf" 
d="M183 -106.5q-49 29.5 -75 77t-26 100.5h82q4 -56 40.5 -94t96.5 -38q61 0 97.5 34.5t36.5 94.5q0 52 -36 84.5t-95 32.5h-37v72h37q53 0 85 28.5t32 77.5t-33.5 80t-89.5 31q-51 0 -86 -32t-40 -81h-77q1 52 27.5 94.5t72 67.5t103.5 25q62 0 108 -23t70.5 -63.5
t24.5 -90.5q0 -51 -26.5 -90.5t-64.5 -57.5q50 -17 79.5 -57t29.5 -99q0 -58 -27 -104t-77 -72.5t-115 -26.5q-68 0 -117 29.5z" />
    <glyph glyph-name="four.tosf" 
d="M373 47h-316v48l309 440h89v-416h88v-72h-88v-170h-82v170zM373 119v237q0 20 2 70l-216 -307h214z" />
    <glyph glyph-name="five.tosf" 
d="M425 282.5q47 -28.5 72 -79.5t25 -115t-29 -115t-80.5 -80t-116.5 -29t-114.5 28t-76 74.5t-26.5 99.5h81q2 -55 41 -92t97 -37q66 0 103.5 42.5t37.5 108.5t-37 109t-104 43q-45 0 -80 -23.5t-56 -63.5h-78l36 382h376v-73h-307l-24 -214q24 29 63.5 46t86.5 17
q63 0 110 -28.5z" />
    <glyph glyph-name="six.tosf" 
d="M428.5 400q46.5 -28 73.5 -77.5t27 -111.5q0 -64 -30.5 -115t-82.5 -80t-115 -29q-68 0 -120.5 30t-81 81.5t-28.5 113.5q0 66 24 118t72 119l148 209h92l-178 -252q37 22 97 22q56 0 102.5 -28zM374 78.5q33 18.5 53 52t20 77.5q0 43 -20 76.5t-53 52t-73 18.5
t-73.5 -18.5t-53.5 -52t-20 -76.5q0 -44 20 -77.5t53.5 -52t73.5 -18.5t73 18.5z" />
    <glyph glyph-name="seven.tosf" 
d="M442 462h-368v73h453v-66l-258 -592h-85z" />
    <glyph glyph-name="eight.tosf" 
d="M186 13.5q-48 26.5 -73 71t-25 97.5q0 57 28.5 102.5t76.5 65.5q-38 21 -62 59t-24 90q0 49 25.5 88t70 61.5t97.5 22.5t97.5 -22.5t70 -61.5t25.5 -88q0 -52 -24 -90t-62 -59q48 -20 76.5 -65.5t28.5 -102.5q0 -53 -25 -97.5t-73 -71t-114 -26.5t-114 26.5zM382 413.5
q32 30.5 32 77.5t-32 77.5t-82 30.5t-82 -30t-32 -78q0 -47 32 -77.5t82 -30.5t82 30.5zM393 97.5q35 35.5 35 89.5q0 55 -35 90.5t-93 35.5t-93 -35.5t-35 -90.5q0 -54 35 -89.5t93 -35.5t93 35.5z" />
    <glyph glyph-name="nine.tosf" 
d="M421 518.5q52 -29.5 80 -81t28 -114.5q0 -65 -24 -116.5t-73 -120.5l-147 -209h-93l180 252q-41 -22 -94 -22q-55 0 -102.5 28t-76 77.5t-28.5 111.5q0 64 30.5 115t82.5 80t115 29q70 0 122 -29.5zM372.5 198.5q33.5 18.5 53.5 52t20 76.5q0 44 -20 77.5t-53.5 52
t-73.5 18.5t-73 -18.5t-52.5 -52t-19.5 -77.5q0 -43 19.5 -76.5t52.5 -52t73 -18.5t73.5 18.5z" />
    <glyph glyph-name="zero.dnom" horiz-adv-x="324" 
d="M63.5 40.5q-37.5 47.5 -37.5 134.5t37.5 134.5t98.5 47.5t98.5 -47.5t37.5 -134.5t-37.5 -134.5t-98.5 -47.5t-98.5 47.5zM214.5 82q19.5 30 19.5 93t-19.5 93t-52.5 30t-52.5 -30t-19.5 -93t19.5 -93t52.5 -30t52.5 30z" />
    <glyph glyph-name="one.dnom" horiz-adv-x="191" 
d="M89 290h-67v60h131v-350h-64v290z" />
    <glyph glyph-name="two.dnom" horiz-adv-x="282" 
d="M23 47l122 125q20 21 29.5 38.5t9.5 37.5q0 22 -13.5 36t-34.5 14q-23 0 -36.5 -14t-15.5 -37h-61q2 49 32.5 79.5t81.5 30.5t81 -29.5t30 -76.5q0 -32 -13.5 -58.5t-44.5 -57.5l-74 -77h136v-58h-229v47z" />
    <glyph glyph-name="three.dnom" horiz-adv-x="290" 
d="M52 26.5q-32 33.5 -32 81.5h63q2 -26 17 -41t41 -15q27 0 42.5 14t15.5 39q0 24 -16 37.5t-43 13.5h-19v51h19q23 0 37.5 12.5t14.5 33.5t-13.5 33.5t-38.5 12.5q-22 0 -37 -13t-17 -34h-61q2 44 33.5 74.5t81.5 30.5q53 0 83.5 -27t30.5 -70q0 -24 -13 -44.5t-32 -31.5
q24 -9 39.5 -30t15.5 -51q0 -48 -34.5 -79t-88.5 -31q-57 0 -89 33.5z" />
    <glyph glyph-name="four.dnom" horiz-adv-x="290" 
d="M171 86h-155v39l149 225h70v-215h39v-49h-39v-86h-64v86zM171 135v99q0 15 2 33l-86 -132h84z" />
    <glyph glyph-name="five.dnom" horiz-adv-x="298" 
d="M241.5 198q30.5 -33 30.5 -84q0 -52 -34.5 -86.5t-91.5 -34.5q-55 0 -88 31.5t-33 78.5h64q1 -22 18 -37t40 -15q27 0 43.5 17.5t16.5 45.5t-16.5 45.5t-43.5 17.5q-19 0 -34.5 -9.5t-24.5 -24.5h-61l18 207h213v-58h-158l-12 -90q12 13 31.5 21t42.5 8q49 0 79.5 -33z
" />
    <glyph glyph-name="six.dnom" horiz-adv-x="298" 
d="M243 196.5q31 -32.5 31 -82.5q0 -52 -34.5 -86.5t-90.5 -34.5q-57 0 -91 35.5t-34 86.5q0 35 10.5 59.5t35.5 59.5l81 116h67l-90 -128q15 7 38 7q46 0 77 -32.5zM195 65.5q19 18.5 19 47.5t-18.5 47t-46.5 18t-46.5 -18t-18.5 -47t19 -47.5t46 -18.5t46 18.5z" />
    <glyph glyph-name="seven.dnom" horiz-adv-x="264" 
d="M186 292h-168v58h230v-53l-116 -297h-64z" />
    <glyph glyph-name="eight.dnom" horiz-adv-x="290" 
d="M57.5 23.5q-33.5 30.5 -33.5 75.5q0 29 16.5 52.5t40.5 33.5q-20 12 -33 31t-13 45q0 41 31 68.5t79 27.5t79 -27.5t31 -68.5q0 -26 -13 -45t-33 -31q24 -10 40.5 -33.5t16.5 -52.5q0 -45 -33.5 -75.5t-87.5 -30.5t-87.5 30.5zM180.5 224q14.5 13 14.5 34t-14.5 34
t-35.5 13t-35.5 -13t-14.5 -34t14.5 -34t35.5 -13t35.5 13zM186.5 64q15.5 15 15.5 40t-15.5 40t-41.5 15t-41.5 -15t-15.5 -40t15.5 -40t41.5 -15t41.5 15z" />
    <glyph glyph-name="nine.dnom" horiz-adv-x="298" 
d="M240 321.5q34 -35.5 34 -86.5q0 -35 -10.5 -59.5t-35.5 -59.5l-81 -116h-67l90 128q-15 -7 -38 -7q-46 0 -77 32.5t-31 82.5q0 52 34.5 86.5t90.5 34.5q57 0 91 -35.5zM195.5 190q18.5 18 18.5 47t-19 47.5t-46 18.5t-46 -18.5t-19 -47.5t18.5 -47t46.5 -18t46.5 18z" />
    <glyph glyph-name="zero.numr" horiz-adv-x="324" 
d="M63.5 390.5q-37.5 47.5 -37.5 134.5t37.5 134.5t98.5 47.5t98.5 -47.5t37.5 -134.5t-37.5 -134.5t-98.5 -47.5t-98.5 47.5zM214.5 432q19.5 30 19.5 93t-19.5 93t-52.5 30t-52.5 -30t-19.5 -93t19.5 -93t52.5 -30t52.5 30z" />
    <glyph glyph-name="one.numr" horiz-adv-x="191" 
d="M89 640h-67v60h131v-350h-64v290z" />
    <glyph glyph-name="two.numr" horiz-adv-x="282" 
d="M23 397l122 125q20 21 29.5 38.5t9.5 37.5q0 22 -13.5 36t-34.5 14q-23 0 -36.5 -14t-15.5 -37h-61q2 49 32.5 79.5t81.5 30.5t81 -29.5t30 -76.5q0 -32 -13.5 -58.5t-44.5 -57.5l-74 -77h136v-58h-229v47z" />
    <glyph glyph-name="three.numr" horiz-adv-x="290" 
d="M52 376.5q-32 33.5 -32 81.5h63q2 -26 17 -41t41 -15q27 0 42.5 14t15.5 39q0 24 -16 37.5t-43 13.5h-19v51h19q23 0 37.5 12.5t14.5 33.5t-13.5 33.5t-38.5 12.5q-22 0 -37 -13t-17 -34h-61q2 44 33.5 74.5t81.5 30.5q53 0 83.5 -27t30.5 -70q0 -24 -13 -44.5t-32 -31.5
q24 -9 39.5 -30t15.5 -51q0 -48 -34.5 -79t-88.5 -31q-57 0 -89 33.5z" />
    <glyph glyph-name="four.numr" horiz-adv-x="290" 
d="M171 436h-155v39l149 225h70v-215h39v-49h-39v-86h-64v86zM171 485v99q0 15 2 33l-86 -132h84z" />
    <glyph glyph-name="five.numr" horiz-adv-x="298" 
d="M241.5 548q30.5 -33 30.5 -84q0 -52 -34.5 -86.5t-91.5 -34.5q-55 0 -88 31.5t-33 78.5h64q1 -22 18 -37t40 -15q27 0 43.5 17.5t16.5 45.5t-16.5 45.5t-43.5 17.5q-19 0 -34.5 -9.5t-24.5 -24.5h-61l18 207h213v-58h-158l-12 -90q12 13 31.5 21t42.5 8q49 0 79.5 -33z
" />
    <glyph glyph-name="six.numr" horiz-adv-x="298" 
d="M243 546.5q31 -32.5 31 -82.5q0 -52 -34.5 -86.5t-90.5 -34.5q-57 0 -91 35.5t-34 86.5q0 35 10.5 59.5t35.5 59.5l81 116h67l-90 -128q15 7 38 7q46 0 77 -32.5zM195 415.5q19 18.5 19 47.5t-18.5 47t-46.5 18t-46.5 -18t-18.5 -47t19 -47.5t46 -18.5t46 18.5z" />
    <glyph glyph-name="seven.numr" horiz-adv-x="264" 
d="M186 642h-168v58h230v-53l-116 -297h-64z" />
    <glyph glyph-name="eight.numr" horiz-adv-x="290" 
d="M57.5 373.5q-33.5 30.5 -33.5 75.5q0 29 16.5 52.5t40.5 33.5q-20 12 -33 31t-13 45q0 41 31 68.5t79 27.5t79 -27.5t31 -68.5q0 -26 -13 -45t-33 -31q24 -10 40.5 -33.5t16.5 -52.5q0 -45 -33.5 -75.5t-87.5 -30.5t-87.5 30.5zM180.5 574q14.5 13 14.5 34t-14.5 34
t-35.5 13t-35.5 -13t-14.5 -34t14.5 -34t35.5 -13t35.5 13zM186.5 414q15.5 15 15.5 40t-15.5 40t-41.5 15t-41.5 -15t-15.5 -40t15.5 -40t41.5 -15t41.5 15z" />
    <glyph glyph-name="nine.numr" horiz-adv-x="298" 
d="M240 671.5q34 -35.5 34 -86.5q0 -35 -10.5 -59.5t-35.5 -59.5l-81 -116h-67l90 128q-15 -7 -38 -7q-46 0 -77 32.5t-31 82.5q0 52 34.5 86.5t90.5 34.5q57 0 91 -35.5zM195.5 540q18.5 18 18.5 47t-19 47.5t-46 18.5t-46 -18.5t-19 -47.5t18.5 -47t46.5 -18t46.5 18z" />
    <glyph glyph-name="cent.ss05" horiz-adv-x="304" 
d="M222 488h56q-8 -37 -32.5 -61.5t-66.5 -30.5v-46h-46v46q-47 8 -77 44t-30 85t30 85t77 44v46h46v-46q43 -5 68.5 -30t30.5 -62h-56q-7 20 -23.5 32t-43.5 12q-31 0 -52.5 -22.5t-21.5 -58.5t21.5 -58.5t52.5 -22.5q52 0 67 44z" />
    <glyph glyph-name="currency.ss05" horiz-adv-x="342" 
d="M270 456l50 -50l-30 -30l-49 49q-32 -21 -70 -21t-69 21l-50 -49l-30 30l50 50q-21 31 -21 69q0 37 21 69l-50 50l30 30l49 -49q31 22 70 22q40 0 70 -22l49 49l30 -30l-50 -50q21 -31 21 -69t-21 -69zM123 474q19 -20 48 -20t48.5 20t19.5 51t-19.5 51t-48.5 20t-48 -20
t-19 -51t19 -51z" />
    <glyph glyph-name="dollar.ss05" horiz-adv-x="298" 
d="M247 382q-26 -30 -72 -37v-49h-50v49q-46 7 -73.5 38t-27.5 75h59q0 -28 19 -45t48 -17q65 0 65 52q0 23 -15.5 35t-45.5 21l-38 11q-40 11 -62.5 36.5t-22.5 59.5q0 37 26 63t68 31v48h50v-48q44 -7 67.5 -35t23.5 -67h-56q-1 25 -18.5 39t-43.5 14q-29 0 -44.5 -11.5
t-15.5 -30.5q0 -18 13 -29.5t44 -21.5l46 -14q82 -26 82 -96q0 -41 -26 -71z" />
    <glyph glyph-name="Euro.ss05" horiz-adv-x="403" 
d="M288 410.5q25 15.5 33 41.5h58q-10 -49 -50 -79t-97 -30t-103.5 35t-61.5 93h-55l7 39h42q-1 5 -1 15t1 15h-37l7 39h36q15 59 61.5 93.5t103.5 34.5q59 0 98 -28.5t49 -80.5h-58q-7 26 -32 41.5t-57 15.5q-36 0 -64.5 -20t-41.5 -56h146l-7 -39h-147q-1 -5 -1 -15t1 -15
h142l-7 -39h-127q13 -36 41.5 -56t64.5 -20q31 0 56 15.5z" />
    <glyph glyph-name="florin.ss05" horiz-adv-x="262" 
d="M174 611l-6 -47h70v-46h-76l-18 -143q-6 -42 -25 -60.5t-64 -18.5h-41v51h36q19 0 28 7.5t12 30.5l17 133h-58v46h63l7 54q5 39 26.5 60.5t60.5 21.5h42v-51h-37q-32 0 -37 -38z" />
    <glyph glyph-name="uni20BA.ss05" horiz-adv-x="305" 
d="M284 491v-10q0 -63 -32.5 -97t-92.5 -34h-103v74l-41 -26v48l41 26v41l-41 -26v48l41 26v139h58v-103l80 51v-48l-80 -51v-41l80 51v-48l-80 -51v-57h38q36 0 56 18t20 60v10h56z" />
    <glyph glyph-name="uni20BD.ss05" horiz-adv-x="299" 
d="M109 483v-36h105v-45h-105v-52h-58v52h-39v45h39v253h110q51 0 83.5 -29.5t32.5 -79.5t-32.5 -79t-83.5 -29h-52zM109 534h50q27 0 43.5 14.5t16.5 42.5t-16.5 43t-43.5 15h-50v-115z" />
    <glyph glyph-name="sterling.ss05" horiz-adv-x="301" 
d="M277 403v-53h-257v53h8q34 0 34 41v51h-42v47h42v56q0 49 28 79t78 30t78.5 -28t29.5 -72h-55q-2 21 -16 34.5t-37 13.5q-22 0 -35.5 -14.5t-13.5 -40.5v-58h92v-47h-92v-46q0 -31 -18 -46h176z" />
    <glyph glyph-name="yen.ss05" horiz-adv-x="304" 
d="M202 530h68v-39h-89v-31h89v-39h-89v-71h-58v71h-89v39h89v31h-89v39h68l-92 170h66l76 -150l75 150h67z" />
    <glyph glyph-name="uni030C.alt" horiz-adv-x="0" 
d="M-141 546h8q29 0 44.5 12.5t18.5 42.5q-6 -4 -19 -4q-23 0 -39 16.5t-16 41.5t16.5 42t41.5 17q31 0 49.5 -22t18.5 -67q0 -61 -30.5 -94t-80.5 -33h-12v48z" />
    </font>
</defs>
</svg>
